<?xml version="1.0" encoding="utf-8"?>
<!-- Generator: Adobe Illustrator 23.0.2, SVG Export Plug-In . SVG Version: 6.00 Build 0)  -->
<svg version="1.1" id="Capa_1" xmlns="http://www.w3.org/2000/svg" xmlns:xlink="http://www.w3.org/1999/xlink" x="0px" y="0px"
	 width="16px" height="21px" viewBox="0 0 16 21" enable-background="new 0 0 16 21" xml:space="preserve">
<title>Group 11</title>
<desc>Created with Sketch.</desc>
<g id="Symbols">
	<g transform="translate(-4.000000, -2.000000)">
		<g id="Group-11" transform="translate(4.000000, 2.000000)">
			<g id="Group-10">
				<polygon id="Fill-1" fill-rule="evenodd" clip-rule="evenodd" fill="#5D5D5D" points="12.434,6.881 12.434,18.341 3.385,18.341 
					3.385,6.881 1.135,6.881 1.135,20.591 14.684,20.591 14.684,6.881 				"/>
				<polygon id="Fill-2" fill-rule="evenodd" clip-rule="evenodd" fill="#5D5D5D" points="0,5.89 15.819,5.89 15.819,3.64 0,3.64 
									"/>
				<g id="Group-9" transform="translate(0.000000, 0.091425)">
					<g id="Group-5" transform="translate(3.250000, 0.000000)">
						<g id="Clip-4">
						</g>
						<defs>
							<filter id="Adobe_OpacityMaskFilter" filterUnits="userSpaceOnUse" x="0.21" y="0.158" width="8.899" height="2.26">
								<feColorMatrix  type="matrix" values="1 0 0 0 0  0 1 0 0 0  0 0 1 0 0  0 0 0 1 0"/>
							</filter>
						</defs>
						<mask maskUnits="userSpaceOnUse" x="0.21" y="0.158" width="8.899" height="2.26" id="mask-2_1_">
							<g filter="url(#Adobe_OpacityMaskFilter)">
								<polygon id="path-1_1_" fill-rule="evenodd" clip-rule="evenodd" fill="#FFFFFF" points="0.21,0.159 9.109,0.159 
									9.109,2.418 0.21,2.418 								"/>
							</g>
						</mask>
						<path id="Fill-3" mask="url(#mask-2_1_)" fill-rule="evenodd" clip-rule="evenodd" fill="#5D5D5D" d="M9.109,2.359
							c0-1.215-0.985-2.201-2.2-2.201H2.41c-1.215,0-2.2,0.985-2.2,2.201v0.059h8.899V2.359z"/>
					</g>
					<g id="Clip-7">
					</g>
					<defs>
						<filter id="Adobe_OpacityMaskFilter_1_" filterUnits="userSpaceOnUse" x="5.088" y="6.933" width="2.25" height="9.039">
							<feColorMatrix  type="matrix" values="1 0 0 0 0  0 1 0 0 0  0 0 1 0 0  0 0 0 1 0"/>
						</filter>
					</defs>
					<mask maskUnits="userSpaceOnUse" x="5.088" y="6.933" width="2.25" height="9.039" id="mask-4_1_">
						<g filter="url(#Adobe_OpacityMaskFilter_1_)">
							<polygon id="path-3_1_" fill-rule="evenodd" clip-rule="evenodd" fill="#FFFFFF" points="0,20.5 15.819,20.5 15.819,0.159 
								0,0.159 							"/>
						</g>
					</mask>
					<polygon id="Fill-6" mask="url(#mask-4_1_)" fill-rule="evenodd" clip-rule="evenodd" fill="#5D5D5D" points="5.088,15.973 
						7.338,15.973 7.338,6.933 5.088,6.933 					"/>
					<defs>
						<filter id="Adobe_OpacityMaskFilter_2_" filterUnits="userSpaceOnUse" x="8.468" y="6.933" width="2.25" height="9.039">
							<feColorMatrix  type="matrix" values="1 0 0 0 0  0 1 0 0 0  0 0 1 0 0  0 0 0 1 0"/>
						</filter>
					</defs>
					<mask maskUnits="userSpaceOnUse" x="8.468" y="6.933" width="2.25" height="9.039" id="mask-4_2_">
						<g filter="url(#Adobe_OpacityMaskFilter_2_)">
							<polygon id="path-3_2_" fill-rule="evenodd" clip-rule="evenodd" fill="#FFFFFF" points="0,20.5 15.819,20.5 15.819,0.159 
								0,0.159 							"/>
						</g>
					</mask>
					<polygon id="Fill-8" mask="url(#mask-4_2_)" fill-rule="evenodd" clip-rule="evenodd" fill="#5D5D5D" points="8.468,15.973 
						10.718,15.973 10.718,6.933 8.468,6.933 					"/>
				</g>
			</g>
		</g>
	</g>
</g>
</svg>
