<svg xmlns="http://www.w3.org/2000/svg" width="222" height="40" viewBox="0 0 222 40">
    <g fill="#FFF" fill-rule="evenodd">
        <path d="M52.758 21.935c.208.316.496.459.9.47.55.012.903-.527.903-.527l9.124-11.692c.753-.785 1.496-.15 1.496-.15.722.753.184 1.443.184 1.443l-2.041 2.61v.014a1.002 1.002 0 0 0-.043 1.349v.004l2.053 2.603 6.468-8.227-2.585-3.294-.477-.62c-.42-.603-1.357-.743-1.357-.743h-3.872c-1.027 0-1.586.71-1.586.71L51.078 19.803l1.68 2.132zM52.299 14.8l-2.595-3.327c-.527-.85.242-1.459.242-1.459.969-.565 1.531.306 1.531.306l2.147 2.757 2.54-3.272-2.93-3.769c-.699-1.001-1.764-.862-1.764-.862H47.97c-1.12 0-1.6.697-1.6.697l-3.095 3.926 6.468 8.262L52.3 14.8z"/>
        <path d="M62.298 17.636s-.298-.461-.873-.453c-.6.009-.84.408-.84.408l-9.219 11.838c-.747.82-1.55.16-1.55.16-.721-.754-.13-1.452-.13-1.452l2.067-2.655.001-.014a1.004 1.004 0 0 0 .043-1.349v-.005l-2.053-2.602-6.49 8.319 3.618 4.58 5.686.013L63.99 19.802l-1.693-2.166zM62.775 24.77l2.616 3.367c.603.836-.158 1.453-.158 1.453-1.004.674-1.618-.333-1.618-.333l-2.19-2.782-2.541 3.274 3.665 4.69 5.642-.015 3.617-4.636-6.482-8.28-2.551 3.262zM71.76 17.227c-1.446 0-2.624 1.162-2.624 2.59 0 1.427 1.178 2.59 2.624 2.59 1.447 0 2.624-1.163 2.624-2.59 0-1.428-1.177-2.59-2.624-2.59m0 3.983c-.76 0-1.38-.625-1.38-1.393s.62-1.393 1.38-1.393c.761 0 1.38.625 1.38 1.393s-.619 1.393-1.38 1.393M57.523 5.18c1.447 0 2.624-1.163 2.624-2.59 0-1.428-1.177-2.59-2.624-2.59-1.446 0-2.624 1.162-2.624 2.59 0 1.427 1.178 2.59 2.624 2.59m0-3.982c.761 0 1.38.624 1.38 1.391 0 .769-.619 1.394-1.38 1.394-.761 0-1.38-.625-1.38-1.394 0-.767.619-1.391 1.38-1.391M45.871 19.807c0-1.428-1.177-2.59-2.622-2.59-1.448 0-2.625 1.162-2.625 2.59 0 1.427 1.177 2.59 2.625 2.59 1.445 0 2.622-1.163 2.622-2.59m-4.003 0c0-.767.62-1.392 1.38-1.392.76 0 1.38.625 1.38 1.392 0 .768-.62 1.393-1.38 1.393-.76 0-1.38-.625-1.38-1.393M57.527 34.44c-1.447 0-2.624 1.162-2.624 2.59 0 1.427 1.177 2.59 2.624 2.59 1.446 0 2.622-1.163 2.622-2.59 0-1.428-1.176-2.59-2.622-2.59m0 3.982c-.761 0-1.38-.624-1.38-1.392 0-.768.619-1.393 1.38-1.393.76 0 1.38.625 1.38 1.393s-.62 1.392-1.38 1.392M29.408 3.308v19.365c0 2.346-.739 4.513-2.194 6.439-1.186 1.57-2.85 2.991-4.946 4.225-3.207 1.89-6.467 2.76-7.198 2.94-.727-.18-3.96-1.04-7.166-2.922-2.104-1.234-3.774-2.657-4.966-4.228-1.462-1.93-2.204-4.102-2.204-6.454V3.308h28.674zm.733-.733H0v20.098c0 11.032 15.064 14.356 15.064 14.356h.014S30.14 33.705 30.14 22.673V2.575z"/>
        <path d="M18.721 9.008V7.16h-1.898v1.723h-.742V7.161h-1.955v1.723h-.742V7.161h-1.93V9.01l.942 1.618c.032.057.05.121.05.186l.008 8.453h.913l-.01-3.036c0-.716.815-1.366 1.71-1.366.894 0 1.708.65 1.708 1.365l.009 3.037h.937l-.003-3.205a.58.58 0 0 1-.002-.045v-1.589l.001-.024-.001-1.158v-.51l-.002-1.92c0-.067.017-.133.052-.19l.955-1.617zM11.712 19.463l-.002-2.8-.337.201a.368.368 0 0 1-.4-.012l-.408-.278c.001.012.002.024.001.036l-.013 1.08a.375.375 0 0 1-.142.287.365.365 0 0 1 .117.062c.494.396.531.963.424 1.424h.76z"/>
        <path d="M15.066 15.604c-.568 0-.967.406-.967.625l.01 3.037h1.935l-.01-3.036c0-.22-.4-.626-.968-.626"/>
        <path d="M3.768 19.463a3.386 3.386 0 0 1-.237-.852c-.094-.585-.075-1.123-.075-1.146a.373.373 0 0 1 .262-.34l.81-.25-.915-.648a.375.375 0 0 1-.157-.302v-1.027c0-.139.078-.265.2-.329l.358-.186v-.35l-.326-.132a.368.368 0 0 1-.232-.342v-1.235c0-.204.164-.369.366-.371l1.145-.01c-.02-.304-.027-.718.046-1.06.1-.463.363-.966.489-1.19l-.06-.429a.372.372 0 0 1 .367-.422h.616c.07 0 .14.02.199.058l1.507.956h.693a.369.369 0 0 1 .37.387l-.051 1.187a.379.379 0 0 1-.121.258l.46.001c.1 0 .197.041.267.114l.21.218.16-.122.267-.565a.372.372 0 0 1 .335-.21h.984v-.21l-.942-1.618a.368.368 0 0 1-.05-.187V6.79a.37.37 0 0 1 .372-.37H19.093a.37.37 0 0 1 .37.37v2.318a.374.374 0 0 1-.052.189l-.956 1.617v.209h.977a.37.37 0 0 1 .334.21l.268.565.159.122.21-.218a.37.37 0 0 1 .266-.114l.46-.001a.378.378 0 0 1-.12-.258l-.05-1.187a.369.369 0 0 1 .37-.387h.693l1.507-.956a.368.368 0 0 1 .198-.058h.617c.107 0 .21.047.28.127.07.082.102.19.086.295l-.06.428c.126.225.39.728.489 1.19.073.343.068.757.047 1.06l1.144.01a.371.371 0 0 1 .368.372l-.003 1.235c0 .15-.09.287-.231.342l-.325.133v.35l.356.185c.124.064.2.19.2.329v1.027c0 .12-.058.232-.156.302l-.915.648.81.25c.15.046.255.184.261.34 0 .023.02.561-.073 1.146a3.339 3.339 0 0 1-.238.852h1.35l.016.001V5.14H2.425v14.324h1.343z"/>
        <path d="M19.624 18.04a.416.416 0 0 1 .118-.064.371.371 0 0 1-.143-.287l-.014-1.079.001-.035-.406.277a.37.37 0 0 1-.4.012l-.32-.191.003 2.79h.736c-.105-.461-.07-1.028.425-1.424M24.547 27.123a.37.37 0 0 1-.37-.37V24.33c0-.18-.109-.405-.278-.57a1.021 1.021 0 0 0-.76-.296c-.57.01-.911.448-.957.884v2.403a.37.37 0 0 1-.37.37l-2.205.001a.37.37 0 0 1-.37-.37V24.33c0-.18-.11-.405-.277-.57a1.023 1.023 0 0 0-.761-.296.95.95 0 0 0-.643.255l1.81 9.237c2.55-1.13 5.568-2.972 7.198-5.834h-2.017zM18.656 33.187L16.11 20.205h-2.067l-2.542 12.988c-.005.017-.009.035-.015.052 1.767.725 3.202 1.094 3.602 1.219.406-.128 1.832-.494 3.587-1.212a.409.409 0 0 1-.019-.065M12.602 23.708a.96.96 0 0 0-.63-.242h-.02c-.362 0-.602.16-.74.297-.169.165-.277.388-.277.569v2.422c0 .205-.166.371-.37.371H8.36a.368.368 0 0 1-.37-.37V24.35c-.048-.436-.389-.875-.957-.884h-.021c-.362 0-.602.16-.74.297-.17.165-.277.388-.277.569v2.422c0 .205-.167.371-.371.371h-2.01c1.626 2.852 4.635 4.693 7.177 5.824l1.81-9.241z"/>
        <path d="M27.733 20.204H16.865l.534 2.722a1.788 1.788 0 0 1 2.081.307c.313.306.498.717.498 1.097v2.052h1.462V24.33l.001-.035a1.722 1.722 0 0 1 1.685-1.572 1.78 1.78 0 0 1 1.294.51c.312.306.498.717.498 1.097v2.052h2.025a8.98 8.98 0 0 0 .807-3.771v-2.408l-.017.001M5.254 26.383v-2.05c0-.382.186-.792.498-1.1a1.798 1.798 0 0 1 1.294-.51c.877.016 1.603.691 1.684 1.574l.002.035v2.051h1.462v-2.05c0-.382.186-.792.497-1.1a1.798 1.798 0 0 1 1.294-.51c.274.006.537.074.77.197l.533-2.715H2.426v2.405c0 1.409.302 2.66.809 3.773h2.02zM6.126 18.7h.6c.047.074.073.16.085.248.002.05.006.1.01.151a1.56 1.56 0 0 1-.05.365H4.664c-.304-.208-.456-1.033-.469-1.71l.921-.285a.372.372 0 0 0 .262-.355v-.354a.37.37 0 0 0-.157-.303l-1.023-.724v-.61l.357-.186a.372.372 0 0 0 .199-.328v-.824a.372.372 0 0 0-.231-.345l-.326-.13v-.62l.971-.008.462.757.003 1.055-.318 1.001a.371.371 0 0 0 .355.483h.28a.37.37 0 0 0 .365-.311c.027-.164.116-.638.198-.85.064-.166.328-.522.495-.72a.373.373 0 0 0-.004-.483L5.73 12.15c-.025-.22-.07-.742.009-1.112.086-.402.365-.914.465-1.077a.37.37 0 0 0 .05-.246l-.018-.133h.082l1.507.956c.06.037.128.058.2.058h.412l-.025.553-.485.176a.371.371 0 0 0-.246.35l.004.381a.37.37 0 0 0 .37.369l1.269.004.331.344a.37.37 0 0 0 .492.037s.577-.46.603-.513l.205-.433h.74v1.349s-1.353.464-1.465.519c-.088.044-.137.463-.12.564.015.1.01.14.155.249 0 0 .394.309.514.352l.393-.375.521.035v1.25l-.498.298-1.555-1.064a.37.37 0 0 0-.501.078l-.244.311a.372.372 0 0 0 .038.5l.89.833-.009.678-.893.397a.37.37 0 0 0-.22.338v.152c0 .205.166.37.372.37h1.073c.186.23.113.557.035.765H7.706c-.084-.089-.127-.245-.145-.42a2.148 2.148 0 0 0-.008-.142 2.736 2.736 0 0 1 .055-.618l.576-.737a.368.368 0 0 0 .078-.21l.017-.354a.37.37 0 0 0-.51-.361l-.93.379a.368.368 0 0 0-.226.289l-.055.37-.54.164a.37.37 0 0 0-.263.354v.15c0 .206.166.371.37.371M24.027 18.7h-.601a.642.642 0 0 0-.086.248c0 .05-.004.1-.008.151 0 .13.024.259.05.365h2.105c.304-.208.456-1.033.47-1.71l-.921-.285a.373.373 0 0 1-.263-.355v-.354c0-.121.06-.234.157-.303l1.023-.724v-.61l-.356-.186a.373.373 0 0 1-.2-.328v-.824c0-.153.093-.288.231-.345l.326-.13v-.62l-.97-.008-.462.757-.003 1.055.317 1.001a.375.375 0 0 1-.054.332.373.373 0 0 1-.3.151h-.28a.372.372 0 0 1-.366-.311c-.027-.164-.115-.638-.198-.85-.064-.166-.328-.522-.494-.72a.372.372 0 0 1 .004-.483l1.275-1.463c.024-.22.07-.742-.01-1.112-.086-.402-.364-.914-.464-1.077a.37.37 0 0 1-.05-.246l.018-.133h-.083l-1.507.956a.38.38 0 0 1-.198.058h-.413l.024.553.486.176a.37.37 0 0 1 .244.35l-.002.381a.37.37 0 0 1-.37.369l-1.269.004-.332.344a.37.37 0 0 1-.492.037s-.577-.46-.602-.513l-.206-.433h-.74v1.349s1.354.464 1.465.519c.089.044.137.463.121.564-.015.1-.01.14-.156.249 0 0-.393.309-.514.352l-.393-.375-.52.035v1.25l.498.298 1.554-1.064a.37.37 0 0 1 .5.078l.245.311a.371.371 0 0 1-.039.5l-.888.833.008.678.893.397a.37.37 0 0 1 .22.338v.152a.37.37 0 0 1-.371.37h-1.074c-.186.23-.112.557-.034.765h2.474c.085-.089.128-.245.145-.42.001-.046.005-.095.009-.142a2.736 2.736 0 0 0-.055-.618l-.576-.737a.377.377 0 0 1-.08-.21l-.016-.354a.37.37 0 0 1 .51-.361l.93.379c.121.05.208.159.226.289l.055.37.54.164a.37.37 0 0 1 .264.354v.15a.37.37 0 0 1-.371.371M82.318 15.413V15.4c0-1.408 1.035-2.656 2.575-2.656.866 0 1.402.25 1.915.682l-.374.44c-.397-.344-.836-.587-1.562-.587-1.138 0-1.952.961-1.952 2.106v.015c0 1.225.785 2.134 2.032 2.134.587 0 1.13-.227 1.482-.513v-1.277h-1.562v-.521h2.12v2.048a3.115 3.115 0 0 1-2.062.784c-1.614 0-2.612-1.174-2.612-2.64M88.89 15.413V15.4c0-1.416 1.064-2.656 2.627-2.656 1.562 0 2.612 1.225 2.612 2.641v.015c0 1.416-1.064 2.655-2.626 2.655-1.563 0-2.613-1.224-2.613-2.64m4.638 0v-.015c0-1.166-.852-2.12-2.025-2.12-1.174 0-2.01.939-2.01 2.105v.015c0 1.167.85 2.12 2.024 2.12s2.011-.938 2.011-2.106M96.205 12.83h2.186c.586 0 1.05.17 1.343.456.213.22.33.491.33.821v.015c0 .667-.411 1.012-.815 1.188.61.184 1.1.537 1.1 1.24v.016c0 .88-.74 1.4-1.863 1.4h-2.281V12.83zm3.271 1.358c0-.506-.403-.837-1.136-.837h-1.563v1.77h1.519c.697 0 1.18-.317 1.18-.919v-.014zm-1.078 1.446h-1.621v1.812H98.5c.777 0 1.262-.345 1.262-.917v-.015c0-.557-.47-.88-1.365-.88zM102.422 17.967h.58v-5.136h-.58zM105.348 12.83h3.712v.529h-3.132v1.754h2.802v.528h-2.802v1.797h3.168v.529h-3.748zM111.02 12.83h2.207c.632 0 1.139.192 1.46.514.25.25.396.61.396 1.013v.015c0 .85-.587 1.35-1.393 1.496l1.577 2.099h-.711l-1.489-1.997H111.6v1.997h-.58V12.83zm2.156 2.62c.77 0 1.32-.396 1.32-1.056v-.016c0-.63-.483-1.011-1.313-1.011h-1.584v2.083h1.577zM117.173 12.83h.543l3.235 4.117V12.83h.566v5.137h-.463l-3.317-4.211v4.21h-.564zM123.59 15.413V15.4c0-1.416 1.064-2.656 2.627-2.656 1.563 0 2.612 1.225 2.612 2.641v.015c0 1.416-1.063 2.655-2.626 2.655s-2.613-1.224-2.613-2.64m4.638 0v-.015c0-1.166-.852-2.12-2.025-2.12-1.174 0-2.01.939-2.01 2.105v.015c0 1.167.85 2.12 2.024 2.12s2.011-.938 2.011-2.106M133.577 12.83h1.782c1.614 0 2.729 1.108 2.729 2.554v.015c0 1.445-1.115 2.568-2.729 2.568h-1.782V12.83zm.58.537v4.063h1.202c1.299 0 2.128-.88 2.128-2.017V15.4c0-1.137-.83-2.032-2.128-2.032h-1.203zM139.93 12.83h3.712v.529h-3.132v1.754h2.802v.528h-2.802v1.797h3.17v.529h-3.75zM148.295 12.83h.578v4.6h2.892v.537h-3.47zM155.323 12.794h.543l2.34 5.173h-.623l-.602-1.358h-2.795l-.61 1.358h-.594l2.34-5.173zm1.43 3.288l-1.166-2.612-1.173 2.612h2.34zM82.208 24.218v-.014c0-1.46 1.101-2.656 2.678-2.656.969 0 1.548.323 2.025.792l-.719.83c-.397-.36-.8-.58-1.313-.58-.866 0-1.489.718-1.489 1.599v.015c0 .88.609 1.613 1.489 1.613.587 0 .947-.235 1.35-.601l.719.726c-.528.566-1.115.917-2.106.917-1.511 0-2.634-1.166-2.634-2.64M87.88 26.77h1.13v-5.135h-1.13zM90.314 24.57v-2.934h1.13v2.906c0 .835.418 1.268 1.108 1.268.69 0 1.107-.418 1.107-1.233v-2.941h1.13v2.898c0 1.556-.873 2.318-2.252 2.318-1.379 0-2.223-.77-2.223-2.281M96.074 21.635h2.003c1.614 0 2.729 1.108 2.729 2.554v.015c0 1.444-1.115 2.566-2.729 2.566h-2.003v-5.135zm2.003 4.117c.925 0 1.548-.625 1.548-1.534v-.014c0-.91-.623-1.548-1.548-1.548h-.873v3.096h.873zM103.309 21.599h1.042l2.201 5.173h-1.181l-.47-1.153h-2.171l-.47 1.153h-1.152l2.201-5.173zm1.19 3.023l-.683-1.666-.683 1.666h1.365zM107.37 21.635h2.003c1.613 0 2.729 1.108 2.729 2.554v.015c0 1.444-1.116 2.566-2.729 2.566h-2.003v-5.135zm2.003 4.117c.925 0 1.548-.625 1.548-1.534v-.014c0-.91-.623-1.548-1.548-1.548h-.873v3.096h.873zM115.382 21.635h2.003c1.614 0 2.729 1.108 2.729 2.554v.015c0 1.444-1.115 2.566-2.729 2.566h-2.003v-5.135zm2.003 4.117c.925 0 1.548-.625 1.548-1.534v-.014c0-.91-.623-1.548-1.548-1.548h-.873v3.096h.873zM121.186 21.635h3.873v1.006h-2.75v1.042h2.42v1.005h-2.42v1.078h2.787v1.004h-3.91zM128.376 21.635h1.217l1.35 2.172 1.35-2.172h1.218v5.135h-1.122v-3.352l-1.445 2.195h-.03l-1.43-2.172v3.33h-1.108zM134.859 21.635h3.873v1.006h-2.751v1.042h2.42v1.005h-2.42v1.078h2.788v1.004h-3.91v-5.135zm2.149-1.701l.961.418-.938.88h-.852l.829-1.298zM141.286 24.16l-1.717-2.524h1.32l1.079 1.666 1.085-1.666h1.285l-1.717 2.509 1.79 2.627h-1.32l-1.152-1.761-1.16 1.761h-1.284zM145.277 26.77h1.13v-5.135h-1.13zM147.5 24.218v-.014c0-1.46 1.1-2.656 2.679-2.656.967 0 1.548.323 2.025.792l-.72.83c-.397-.36-.8-.58-1.314-.58-.866 0-1.489.718-1.489 1.599v.015c0 .88.61 1.613 1.49 1.613.586 0 .946-.235 1.35-.601l.718.726c-.527.566-1.114.917-2.105.917-1.512 0-2.634-1.166-2.634-2.64M152.773 24.218v-.014c0-1.46 1.151-2.656 2.736-2.656 1.586 0 2.721 1.18 2.721 2.641v.015c0 1.46-1.15 2.655-2.735 2.655s-2.722-1.18-2.722-2.64m4.278 0v-.015c0-.881-.647-1.614-1.556-1.614-.91 0-1.54.718-1.54 1.599v.015c0 .88.644 1.613 1.554 1.613s1.542-.718 1.542-1.599"/>
        <text font-family="Gotham-Bold, Gotham" font-size="15" font-weight="bold" transform="translate(0 2.575)">
            <tspan x="183.18" y="10.425">ADIP</tspan>
        </text>
        <path d="M171 6h1v29h-1z"/>
    </g>
</svg>
