<?xml version="1.0" encoding="UTF-8"?>
<svg width="31px" height="40px" viewBox="0 0 31 40" version="1.1" xmlns="http://www.w3.org/2000/svg" xmlns:xlink="http://www.w3.org/1999/xlink">
    <!-- Generator: Sketch 56 (81588) - https://sketch.com -->
    <title>Group 5</title>
    <desc>Created with Sketch.</desc>
    <defs>
        <path d="M-1.67688086e-12,15.3341837 L-1.67688086e-12,15.0899013 C0.0666988649,6.93528617 6.7980459,0.337686406 15.1143692,0.2786 L15.3396294,0.2786 C23.6558558,0.337686404 30.3873006,6.93528665 30.454,15.0899022 L30.454,15.3341883 C30.4248146,18.8933389 29.1195991,22.1502131 26.973,24.7009 L26.9769,24.7115 L15.2945,39.5182 L3.8872,25.1616 C1.49986907,22.5486945 0.0309813783,19.1121951 -1.67688086e-12,15.3341837 L-1.67688086e-12,15.3341837 Z" id="path-1"></path>
        <path d="M0,15.5376837 L0,15.2934013 C0.0667391912,7.13385586 6.80618793,0.533209112 15.1294552,0.482 L15.3245436,0.482 C23.6477136,0.533209114 30.3872603,7.13385634 30.454,15.2934022 L30.454,15.5376883 C30.4248146,19.0968389 29.1195991,22.353712 26.973,24.9043 L26.9769,24.9149 L15.2945,39.7217 L3.8872,25.3651 C1.49986907,22.7521945 0.0309813783,19.3156951 0,15.5376837 Z M24.4072,21.2923 C25.5369,19.6022 26.1947,17.5829 26.1947,15.4157 C26.1947,9.4846 21.2747,4.6595 15.227,4.6595 C9.1793,4.6595 4.2593,9.4846 4.2593,15.4157 C4.2593,18.0961 5.2665,20.5487 6.9267,22.434 L6.9417,22.472 L15.2154,32.6884 L23.9928,21.8773 C24.0106,21.8499 24.027,21.8248 24.0405,21.807 C24.1677,21.6393 24.2901,21.4672 24.4072,21.2923 Z" id="path-3"></path>
        <path d="M7.1344,9.4841 C8.3363,9.4841 9.3141,8.5063 9.3141,7.3044 C9.3141,6.102 8.3363,5.1241 7.1344,5.1241 C5.9324,5.1241 4.9546,6.102 4.9546,7.3044 C4.9546,8.5063 5.9324,9.4841 7.1344,9.4841 Z M7.1344,0.7868 C10.7281,0.7868 13.6515,3.7107 13.6515,7.3044 C13.6515,10.8981 10.7281,13.8215 7.1344,13.8215 C3.5406,13.8215 0.6173,10.8981 0.6173,7.3044 C0.6173,3.7107 3.5406,0.7868 7.1344,0.7868 Z" id="path-5"></path>
    </defs>
    <g id="Page-1" stroke="none" stroke-width="1" fill="none" fill-rule="evenodd">
        <g id="PC-PI-07" transform="translate(-572.000000, -719.000000)">
            <g id="Group-5" transform="translate(572.000000, 719.000000)">
                <g id="Group-149">
                    <mask id="mask-2" fill="white">
                        <use xlink:href="#path-1"></use>
                    </mask>
                    <g id="Clip-148"></g>
                    <polygon id="Fill-147" fill="#00B140" mask="url(#mask-2)" points="-5.0005 -4.7218 35.4545 -4.7218 35.4545 44.5182 -5.0005 44.5182"></polygon>
                </g>
                <g id="Group-2">
                    <g id="Group-152">
                        <mask id="mask-4" fill="white">
                            <use xlink:href="#path-3"></use>
                        </mask>
                        <g id="Clip-151"></g>
                        <polygon id="Fill-150" fill="#0F4C42" mask="url(#mask-4)" points="-5.0005 -4.5183 35.4545 -4.5183 35.4545 44.7217 -5.0005 44.7217"></polygon>
                    </g>
                    <g id="Group-155" transform="translate(8.000000, 8.000000)">
                        <mask id="mask-6" fill="white">
                            <use xlink:href="#path-5"></use>
                        </mask>
                        <g id="Clip-154"></g>
                        <polygon id="Fill-153" fill="#0F4C42" mask="url(#mask-6)" points="-4.3827 -4.2132 18.6515 -4.2132 18.6515 18.8215 -4.3827 18.8215"></polygon>
                    </g>
                </g>
            </g>
        </g>
    </g>
</svg>