<?xml version="1.0" encoding="UTF-8"?>
<svg width="20px" height="20px" viewBox="0 0 20 20" version="1.1" xmlns="http://www.w3.org/2000/svg" xmlns:xlink="http://www.w3.org/1999/xlink">
    <!-- Generator: Sketch 56 (81588) - https://sketch.com -->
    <title>Group 6</title>
    <desc>Created with Sketch.</desc>
    <defs>
        <polygon id="path-1" points="0 0.174634146 19.8253659 0.174634146 19.8253659 20 0 20"></polygon>
    </defs>
    <g id="Symbols" stroke="none" stroke-width="1" fill="none" fill-rule="evenodd">
        <g id="icons/time/grey" transform="translate(-2.000000, -2.000000)">
            <g id="Group-6" transform="translate(2.000000, 2.000000)">
                <g id="Group-3" transform="translate(0.000000, 0.069195)">
                    <mask id="mask-2" fill="white">
                        <use xlink:href="#path-1"></use>
                    </mask>
                    <g id="Clip-2"></g>
                    <path d="M9.91258537,17.804878 C5.65721951,17.804878 2.19502439,14.3426829 2.19502439,10.0873171 C2.19502439,5.83195122 5.65721951,2.3697561 9.91258537,2.3697561 C14.1681951,2.3697561 17.6303902,5.83195122 17.6303902,10.0873171 C17.6303902,14.3426829 14.1681951,17.804878 9.91258537,17.804878 M9.91258537,0.174634146 C4.44673171,0.174634146 -9.75609756e-05,4.62146341 -9.75609756e-05,10.0873171 C-9.75609756e-05,15.5531707 4.44673171,20 9.91258537,20 C15.378439,20 19.8255122,15.5531707 19.8255122,10.0873171 C19.8255122,4.62146341 15.378439,0.174634146 9.91258537,0.174634146" id="Fill-1" fill="#898D8D" mask="url(#mask-2)"></path>
                </g>
                <polygon id="Fill-4" fill="#898D8D" points="10.9718049 4.64463415 8.77668293 4.64463415 8.77668293 12.3695122 14.2913171 12.3695122 14.2913171 10.1743902 10.9718049 10.1743902"></polygon>
            </g>
        </g>
    </g>
</svg>