<?xml version="1.0" encoding="UTF-8"?>
<svg width="16px" height="20px" viewBox="0 0 16 20" version="1.1" xmlns="http://www.w3.org/2000/svg" xmlns:xlink="http://www.w3.org/1999/xlink">
    <!-- Generator: Sketch 56 (81588) - https://sketch.com -->
    <title>Group 7</title>
    <desc>Created with Sketch.</desc>
    <defs>
        <polygon id="path-1" points="0.0655180723 0.131807229 9.88431325 0.131807229 9.88431325 9.95057831 0.0655180723 9.95057831"></polygon>
        <polygon id="path-3" points="0.000168674699 0.193036145 15.2672289 0.193036145 15.2672289 8.91566265 0.000168674699 8.91566265"></polygon>
    </defs>
    <g id="Symbols" stroke="none" stroke-width="1" fill="none" fill-rule="evenodd">
        <g id="Usuario-logueado" transform="translate(-4.000000, 0.000000)">
            <g id="Group-7" transform="translate(4.000000, 0.000000)">
                <g id="Group-3" transform="translate(2.650602, 0.109181)">
                    <mask id="mask-2" fill="white">
                        <use xlink:href="#path-1"></use>
                    </mask>
                    <g id="Clip-2"></g>
                    <path d="M4.97491566,2.30045783 C6.486,2.30045783 7.71563855,3.53009639 7.71563855,5.04118072 C7.71563855,6.55250602 6.486,7.78190361 4.97491566,7.78190361 C3.46383133,7.78190361 2.23419277,6.55250602 2.23419277,5.04118072 C2.23419277,3.53009639 3.46383133,2.30045783 4.97491566,2.30045783 M4.97491566,9.95057831 C7.68190361,9.95057831 9.88431325,7.74816867 9.88431325,5.04118072 C9.88431325,2.33419277 7.68190361,0.131783133 4.97491566,0.131783133 C2.26792771,0.131783133 0.0655180723,2.33419277 0.0655180723,5.04118072 C0.0655180723,7.74816867 2.26792771,9.95057831 4.97491566,9.95057831" id="Fill-1" fill="#00B140" mask="url(#mask-2)"></path>
                </g>
                <g id="Group-6" transform="translate(0.000000, 10.952554)">
                    <mask id="mask-4" fill="white">
                        <use xlink:href="#path-3"></use>
                    </mask>
                    <g id="Clip-5"></g>
                    <path d="M13.0987229,6.74701205 L2.16884337,6.74701205 L2.16884337,2.37014458 L2.17727711,2.36171084 L4.59245783,2.36363855 C5.42860241,3.02291566 6.48040964,3.42026506 7.62546988,3.42026506 C8.76739759,3.42026506 9.81679518,3.02484337 10.6517349,2.36821687 L13.0987229,2.37014458 L13.0987229,6.74701205 Z M13.0902892,0.193036145 L10.6859518,0.193036145 C9.84571084,0.865325301 8.78281928,1.27014458 7.62546988,1.27014458 C6.46812048,1.27014458 5.40498795,0.865325301 4.56498795,0.193036145 L2.17727711,0.193036145 C0.976554217,0.193036145 0.000168674699,1.16966265 0.000168674699,2.37014458 L0.000168674699,8.91568675 L15.2673976,8.91568675 L15.2673976,2.37014458 C15.2673976,1.16966265 14.2907711,0.193036145 13.0902892,0.193036145 L13.0902892,0.193036145 Z" id="Fill-4" fill="#00B140" mask="url(#mask-4)"></path>
                </g>
            </g>
        </g>
    </g>
</svg>