<?xml version="1.0" encoding="utf-8"?>
<!-- Generator: Adobe Illustrator 23.0.2, SVG Export Plug-In . SVG Version: 6.00 Build 0)  -->
<svg version="1.1" id="Capa_1" xmlns="http://www.w3.org/2000/svg" xmlns:xlink="http://www.w3.org/1999/xlink" x="0px" y="0px"
	 width="20px" height="14px" viewBox="0 0 20 14" enable-background="new 0 0 20 14" xml:space="preserve">
<title>Group 6</title>
<desc>Created with Sketch.</desc>
<g id="Symbols">
	<g transform="translate(-2.000000, -5.000000)">
		<g id="Group-6" transform="translate(2.000000, 5.000000)">
			<path id="Fill-1" fill-rule="evenodd" clip-rule="evenodd" fill="#5D5D5D" d="M9.965,7.8c-0.539,0-0.977-0.438-0.977-0.977
				s0.438-0.977,0.977-0.977c0.539,0,0.977,0.438,0.977,0.977S10.503,7.8,9.965,7.8 M9.965,3.652c-1.749,0-3.172,1.423-3.172,3.172
				s1.423,3.172,3.172,3.172s3.172-1.423,3.172-3.172S11.714,3.652,9.965,3.652"/>
			<g id="Group-5" transform="translate(0.000000, 0.022854)">
				<g id="Clip-4">
				</g>
				<defs>
					<filter id="Adobe_OpacityMaskFilter" filterUnits="userSpaceOnUse" x="0" y="0.221" width="19.93" height="13.194">
						<feColorMatrix  type="matrix" values="1 0 0 0 0  0 1 0 0 0  0 0 1 0 0  0 0 0 1 0"/>
					</filter>
				</defs>
				<mask maskUnits="userSpaceOnUse" x="0" y="0.221" width="19.93" height="13.194" id="mask-2_1_">
					<g filter="url(#Adobe_OpacityMaskFilter)">
						<polygon id="path-1_1_" fill-rule="evenodd" clip-rule="evenodd" fill="#FFFFFF" points="0,0.221 19.93,0.221 19.93,13.415 
							0,13.415 						"/>
					</g>
				</mask>
				<path id="Fill-3" mask="url(#mask-2_1_)" fill-rule="evenodd" clip-rule="evenodd" fill="#5D5D5D" d="M9.997,11.22
					c-2.953,0-5.834-1.717-7.491-4.419c1.66-2.719,4.481-4.384,7.491-4.384c2.86,0,5.707,1.703,7.406,4.385
					C15.694,9.504,12.847,11.22,9.997,11.22L9.997,11.22z M19.638,6.271c-2.057-3.732-5.751-6.05-9.641-6.05
					c-4.01,0-7.735,2.324-9.723,6.065L0,6.801l0.274,0.515c1.999,3.762,5.725,6.099,9.723,6.099c3.879,0,7.573-2.331,9.641-6.084
					l0.292-0.53L19.638,6.271z"/>
			</g>
		</g>
	</g>
</g>
</svg>
