<?xml version="1.0" encoding="utf-8"?>
<!-- Generator: Adobe Illustrator 23.0.2, SVG Export Plug-In . SVG Version: 6.00 Build 0)  -->
<svg version="1.1" id="Capa_1" xmlns="http://www.w3.org/2000/svg" xmlns:xlink="http://www.w3.org/1999/xlink" x="0px" y="0px"
	 width="24px" height="24px" viewBox="0 0 24 24" enable-background="new 0 0 24 24" xml:space="preserve">
<g>
	<g id="Page-1">
		<g id="PC-PI-02" transform="translate(-47.000000, -99.000000)">
			<g id="Group-3" transform="translate(47.000000, 99.000000)">
				<g id="Clip-2">
				</g>
				<defs>
					<filter id="Adobe_OpacityMaskFilter" filterUnits="userSpaceOnUse" x="6.032" y="0" width="11.936" height="17.801">
						<feColorMatrix  type="matrix" values="1 0 0 0 0  0 1 0 0 0  0 0 1 0 0  0 0 0 1 0"/>
					</filter>
				</defs>
				<mask maskUnits="userSpaceOnUse" x="6.032" y="0" width="11.936" height="17.801" id="mask-2_2_">
					<g filter="url(#Adobe_OpacityMaskFilter)">
						<polygon id="path-1_2_" fill-rule="evenodd" clip-rule="evenodd" fill="#FFFFFF" points="6.032,17.801 6.032,0 17.968,0 
							17.968,17.801 						"/>
					</g>
				</mask>
				<path id="Fill-1" mask="url(#mask-2_2_)" fill-rule="evenodd" clip-rule="evenodd" fill="#00B140" d="M15.8,9.743l-3.804,4.868
					L8.194,9.743H15.8z M10.987,0v7.779H7.81c-0.685,0-1.296,0.382-1.596,0.998c-0.3,0.615-0.225,1.333,0.196,1.872l5.586,7.152
					l5.594-7.16c0.25-0.32,0.378-0.702,0.378-1.088c0-0.264-0.06-0.53-0.181-0.779c-0.3-0.614-0.909-0.995-1.592-0.995H12.95V0
					H10.987z"/>
			</g>
		</g>
	</g>
</g>
<polygon fill-rule="evenodd" clip-rule="evenodd" fill="#00B140" points="1.957,24 0,24 0,15.245 1.957,17.245 "/>
<polygon fill-rule="evenodd" clip-rule="evenodd" fill="#00B140" points="24,24 22.043,24 22.043,17.245 24,15.245 "/>
<rect x="11.268" y="11.754" transform="matrix(-1.836970e-16 1 -1 -1.836970e-16 35.2676 10.775)" fill-rule="evenodd" clip-rule="evenodd" fill="#00B140" width="1.957" height="22.535"/>
</svg>
