<?xml version="1.0" encoding="utf-8"?>
<!-- Generator: Adobe Illustrator 23.0.2, SVG Export Plug-In . SVG Version: 6.00 Build 0)  -->
<svg version="1.1" id="Capa_1" xmlns="http://www.w3.org/2000/svg" xmlns:xlink="http://www.w3.org/1999/xlink" x="0px" y="0px"
	 width="16px" height="21px" viewBox="0 0 16 21" enable-background="new 0 0 16 21" xml:space="preserve">
<title>Group 5</title>
<desc>Created with Sketch.</desc>
<g id="Symbols">
	<g transform="translate(-4.000000, -2.000000)">
		<g id="Group-5" transform="translate(4.000000, 2.000000)">
			<path id="Fill-1" fill-rule="evenodd" clip-rule="evenodd" fill="#5D5D5D" d="M5.936,5.951L0,14.184l0.028,5.901l5.784-1.413
				l5.924-8.219l2.905-3.718L8.855,2.214L5.936,5.951z M2.444,14.967l5.429-7.532L9.276,5.64l1.94,1.516L9.799,8.969l-5.44,7.546
				L2.454,16.98L2.444,14.967z"/>
			<g id="Group-4" transform="translate(9.491525, 0.017193)">
				<g id="Clip-3">
				</g>
				<defs>
					<filter id="Adobe_OpacityMaskFilter" filterUnits="userSpaceOnUse" x="0.142" y="0.254" width="6.312" height="5.466">
						<feColorMatrix  type="matrix" values="1 0 0 0 0  0 1 0 0 0  0 0 1 0 0  0 0 0 1 0"/>
					</filter>
				</defs>
				<mask maskUnits="userSpaceOnUse" x="0.142" y="0.254" width="6.312" height="5.466" id="mask-2_1_">
					<g filter="url(#Adobe_OpacityMaskFilter)">
						<polygon id="path-1_1_" fill-rule="evenodd" clip-rule="evenodd" fill="#FFFFFF" points="0.142,0.254 6.454,0.254 6.454,5.72 
							0.142,5.72 						"/>
					</g>
				</mask>
				<path id="Fill-2" mask="url(#mask-2_1_)" fill-rule="evenodd" clip-rule="evenodd" fill="#5D5D5D" d="M5.516,2.294L3.567,0.772
					C2.505-0.058,0.971,0.13,0.142,1.192L5.937,5.72C6.767,4.658,6.578,3.124,5.516,2.294"/>
			</g>
		</g>
	</g>
</g>
</svg>
