<?xml version="1.0" encoding="utf-8"?>
<!-- Generator: Adobe Illustrator 23.0.2, SVG Export Plug-In . SVG Version: 6.00 Build 0)  -->
<svg version="1.1" id="Capa_1" xmlns="http://www.w3.org/2000/svg" xmlns:xlink="http://www.w3.org/1999/xlink" x="0px" y="0px"
	 width="17.8px" height="11.9px" viewBox="0 0 17.8 11.9" enable-background="new 0 0 17.8 11.9" xml:space="preserve">
<g>
	<defs>
		<filter id="Adobe_OpacityMaskFilter" filterUnits="userSpaceOnUse" x="0.05" y="0.016" width="17.7" height="11.867">
			<feColorMatrix  type="matrix" values="1 0 0 0 0  0 1 0 0 0  0 0 1 0 0  0 0 0 1 0"/>
		</filter>
	</defs>
	<mask maskUnits="userSpaceOnUse" x="0.05" y="0.016" width="17.7" height="11.867" id="b_1_">
		<g filter="url(#Adobe_OpacityMaskFilter)">
			<path id="a_1_" fill-rule="evenodd" clip-rule="evenodd" fill="#FFFFFF" d="M0.05,0.016h17.7v11.868H0.05V0.016z"/>
		</g>
	</mask>
	<path mask="url(#b_1_)" fill-rule="evenodd" clip-rule="evenodd" fill="#0F4C42" d="M8.063,9.729L3.221,5.948l4.841-3.781V9.729
		L8.063,9.729z M17.75,4.943h-7.735V1.785c0-0.682-0.38-1.29-0.992-1.588C8.417-0.102,7.693-0.026,7.162,0.393L0.05,5.946
		l7.119,5.563c0.53,0.417,1.252,0.493,1.856,0.195c0.607-0.293,0.992-0.909,0.989-1.584V6.895h7.736V4.943L17.75,4.943z"/>
</g>
</svg>
