<?xml version="1.0" encoding="utf-8"?>
<!-- Generator: Adobe Illustrator 23.0.2, SVG Export Plug-In . SVG Version: 6.00 Build 0)  -->
<svg version="1.1" id="Capa_1" xmlns="http://www.w3.org/2000/svg" xmlns:xlink="http://www.w3.org/1999/xlink" x="0px" y="0px"
	 width="261px" height="41px" viewBox="0 0 261 41" enable-background="new 0 0 261 41" xml:space="preserve">
<g>
	<g>
		<path fill="#FFFFFF" d="M228.463,15.657l-0.323-0.794h-1.485l-0.322,0.794h-0.789l1.507-3.563h0.712l1.507,3.563H228.463z
			 M227.399,13.03l-0.466,1.148h0.932L227.399,13.03z M231.381,15.718c-1.095,0-1.846-0.771-1.846-1.82v-0.01
			c0-1.006,0.78-1.83,1.843-1.83c0.632,0,1.015,0.171,1.38,0.486l-0.49,0.592c-0.27-0.228-0.51-0.36-0.919-0.36
			c-0.562,0-1.009,0.502-1.009,1.103v0.01c0,0.646,0.44,1.122,1.063,1.122c0.281,0,0.534-0.07,0.728-0.212v-0.505h-0.779v-0.672
			h1.526v1.537c-0.414,0.363-0.946,0.562-1.497,0.56V15.718z M233.725,15.657V12.12h2.65v0.691h-1.884v0.717h1.657v0.692h-1.657
			v0.743h1.906v0.691L233.725,15.657z M239.65,15.657l-1.701-2.248v2.252h-0.763V12.12h0.712l1.647,2.18v-2.18h0.764v3.537H239.65z
			 M242.898,15.718c-1.034,0-1.8-0.804-1.8-1.82v-0.01c0-1.006,0.753-1.83,1.832-1.83c0.664,0,1.06,0.223,1.386,0.547l-0.492,0.573
			c-0.271-0.248-0.546-0.399-0.897-0.399c-0.594,0-1.019,0.495-1.019,1.103v0.01c0,0.608,0.415,1.113,1.019,1.113
			c0.402,0,0.648-0.161,0.923-0.415l0.491,0.501C243.977,15.477,243.575,15.718,242.898,15.718z M245.092,15.657V12.12h0.772v3.537
			H245.092z M249.46,15.657l-0.323-0.794h-1.485l-0.322,0.794h-0.789l1.507-3.563h0.712l1.507,3.563H249.46z M248.393,13.03
			l-0.466,1.148h0.932L248.393,13.03z M227.22,20.668h-1.37V17.13h1.37c1.105,0,1.868,0.762,1.868,1.76v0.009
			C229.085,19.893,228.322,20.668,227.22,20.668L227.22,20.668z M228.277,18.899c0-0.627-0.427-1.068-1.06-1.068h-0.597v2.132h0.597
			c0.633,0,1.06-0.43,1.06-1.058V18.899L228.277,18.899z M229.909,20.668V17.13h0.773v3.538H229.909z M233.351,20.729
			c-1.095,0-1.846-0.775-1.846-1.82v-0.01c0-1.007,0.78-1.83,1.843-1.83c0.632,0,1.015,0.17,1.38,0.486l-0.486,0.591
			c-0.272-0.228-0.511-0.36-0.92-0.36c-0.562,0-1.009,0.502-1.009,1.103v0.01c0,0.646,0.441,1.122,1.064,1.122
			c0.28,0,0.533-0.07,0.728-0.212v-0.505h-0.78v-0.672h1.527v1.537C234.435,20.53,233.902,20.729,233.351,20.729z M235.73,20.668
			V17.13h0.773v3.538H235.73z M239.073,17.847v2.82H238.3v-2.82h-1.07V17.13h2.91v0.717H239.073z M243,20.668l-0.322-0.795h-1.485
			l-0.322,0.795h-0.79l1.508-3.563h0.712l1.507,3.563H243z M241.934,18.04l-0.466,1.148h0.932L241.934,18.04z M244.45,20.668V17.13
			h0.773v2.83h1.752v0.708H244.45z M250.631,20.668h-1.37V17.13h1.37c1.105,0,1.868,0.762,1.868,1.76v0.009
			C252.499,19.893,251.736,20.668,250.631,20.668z M251.691,18.899c0-0.627-0.427-1.068-1.06-1.068h-0.597v2.132h0.597
			c0.633,0,1.06-0.43,1.06-1.058V18.899L251.691,18.899z M253.288,20.668V17.13h2.65v0.692h-1.88v0.717h1.657v0.691h-1.657v0.743
			h1.906v0.695C255.964,20.668,253.288,20.668,253.288,20.668z M225.883,25.678v-3.537h0.772v3.537H225.883z M230.1,25.678
			l-1.701-2.251v2.251h-0.763v-3.537h0.712l1.647,2.18v-2.18h0.763v3.537H230.1z M234.165,25.678l-1.702-2.251v2.251H231.7v-3.537
			h0.715l1.648,2.18v-2.18h0.763v3.537H234.165z M237.473,25.736c-1.085,0-1.861-0.814-1.861-1.82v-0.007
			c0-1.006,0.788-1.83,1.87-1.83c1.083,0,1.862,0.814,1.862,1.818v0.012c0,1.004-0.788,1.827-1.87,1.827H237.473z M238.536,23.906
			c0-0.608-0.44-1.113-1.063-1.113c-0.622,0-1.054,0.496-1.054,1.104v0.012c0,0.608,0.441,1.113,1.064,1.113
			c0.622,0,1.053-0.495,1.053-1.103L238.536,23.906L238.536,23.906z M241.71,25.7h-0.683l-1.42-3.563h0.852l0.92,2.493l0.919-2.493
			h0.833L241.71,25.7z M245.887,25.678l-0.323-0.794h-1.485l-0.322,0.794h-0.789l1.507-3.563h0.712l1.508,3.563H245.887z
			 M244.82,23.048l-0.466,1.148h0.932L244.82,23.048z M248.757,25.736c-1.034,0-1.8-0.804-1.8-1.82v-0.007
			c0-1.006,0.753-1.83,1.832-1.83c0.664,0,1.06,0.222,1.386,0.547l-0.492,0.573c-0.271-0.248-0.546-0.4-0.897-0.4
			c-0.59,0-1.019,0.496-1.019,1.104v0.01c0,0.607,0.415,1.112,1.019,1.112c0.402,0,0.648-0.16,0.923-0.415l0.491,0.502
			C249.836,25.495,249.434,25.736,248.757,25.736z M250.948,25.678v-3.537h0.772v3.537H250.948z M254.409,25.736
			c-1.083,0-1.862-0.814-1.862-1.82v-0.007c0-1.006,0.789-1.83,1.871-1.83c1.083,0,1.862,0.814,1.862,1.82v0.01
			C256.28,24.913,255.491,25.736,254.409,25.736z M255.472,23.906c0-0.608-0.44-1.113-1.063-1.113s-1.054,0.496-1.054,1.104v0.012
			c0,0.608,0.44,1.113,1.063,1.113s1.054-0.495,1.054-1.103C255.472,23.919,255.472,23.906,255.472,23.906z M254.141,21.861
			l0.568-0.894l0.658,0.29l-0.642,0.607C254.725,21.864,254.141,21.861,254.141,21.861z M259.53,25.678l-1.698-2.251v2.251h-0.763
			v-3.537h0.712l1.647,2.18v-2.18h0.763v3.537H259.53z M227.21,29.624h-0.587v1.061h-0.772v-3.537h1.437
			c0.836,0,1.344,0.502,1.344,1.222v0.01C228.629,29.2,227.996,29.624,227.21,29.624L227.21,29.624z M227.85,28.386
			c0-0.347-0.24-0.537-0.63-0.537h-0.597v1.08h0.613c0.387,0,0.614-0.231,0.614-0.537C227.85,28.392,227.85,28.386,227.85,28.386z
			 M230.768,30.743c-0.945,0-1.52-0.53-1.52-1.572v-2.023h0.773v2.003c0,0.576,0.287,0.875,0.756,0.875
			c0.47,0,0.757-0.29,0.757-0.849v-2.026h0.773v1.997c0.003,1.068-0.594,1.595-1.54,1.595L230.768,30.743z M230.433,26.893L231,26
			l0.658,0.29l-0.642,0.607l-0.584-0.003L230.433,26.893z M234.868,30.685h-1.67v-3.537h1.631c0.719,0,1.16,0.36,1.16,0.913v0.01
			c0,0.399-0.211,0.62-0.464,0.762c0.406,0.158,0.658,0.396,0.658,0.868v0.01C236.183,30.364,235.663,30.685,234.868,30.685z
			 M235.218,28.193c0-0.232-0.181-0.363-0.507-0.363h-0.763v0.749h0.712c0.342,0,0.556-0.113,0.556-0.373l0.003-0.013H235.218z
			 M235.414,29.608c0-0.238-0.176-0.386-0.572-0.386h-0.894V30h0.92c0.341,0,0.546-0.122,0.546-0.386V29.608z M236.92,30.685v-3.537
			h0.773v2.83h1.753v0.707H236.92z M240.165,30.685v-3.537h0.773v3.537H240.165z M243.562,30.746c-1.034,0-1.8-0.804-1.8-1.82v-0.01
			c0-1.006,0.753-1.83,1.832-1.83c0.664,0,1.06,0.223,1.386,0.547l-0.492,0.57c-0.271-0.248-0.546-0.4-0.897-0.4
			c-0.594,0-1.019,0.496-1.019,1.104v0.01c0,0.607,0.415,1.112,1.019,1.112c0.402,0,0.648-0.16,0.923-0.415l0.491,0.502
			C244.641,30.506,244.239,30.746,243.562,30.746z M248.336,30.685l-0.323-0.794h-1.485l-0.322,0.794h-0.789l1.507-3.563h0.712
			l1.508,3.563H248.336z M247.269,28.058l-0.466,1.148h0.932L247.269,28.058z M210.377,21.723v-6.214c0-0.01,0-0.022-0.01-0.032
			v6.246H210.377z"/>
		<path fill="#FFFFFF" d="M221.422,17.33c-0.102-3.457-3.033-6.271-6.536-6.271h-5.559c-0.686,0-1.245,0.562-1.245,1.254v5.666
			c0.006,0.03,0.016,0.061,0.022,0.09c0.403,1.736,0.472,3.532,0.204,5.294c-0.054,0.353-0.12,0.7-0.204,1.042v7.258
			c0,0,1.84,0.708,2.229-0.264v-7.412c1.376,0.003,4.591,0.003,4.668,0.003c3.55-0.003,6.424-2.904,6.421-6.48
			C221.425,17.452,221.422,17.39,221.422,17.33L221.422,17.33z M218,20.45c-0.781,0.818-1.864,1.28-2.995,1.279l-4.668-0.003h-0.003
			v-8.407h4.556c2.3,0,4.221,1.827,4.288,4.075C219.216,18.53,218.791,19.633,218,20.45L218,20.45z"/>
		<path fill="#FFFFFF" d="M205.799,15.194c-0.177-0.234-0.364-0.459-0.562-0.675v0.039c0.198,0.218,0.383,0.443,0.562,0.675V15.194z
			"/>
		<path fill="#FFFFFF" d="M206.837,16.847c-0.206-0.405-0.436-0.797-0.69-1.174c-0.112-0.164-0.23-0.324-0.348-0.482v0.035
			c-0.334-0.44-0.704-0.851-1.105-1.231v3.354c0.668,1.195,1.018,2.541,1.015,3.91c0,4.274-3.355,7.79-7.608,8.127l0.054,0.11
			l0.642,1.315l0.287,0.592l0.051,0.106c1.042-0.165,2.053-0.489,2.998-0.959l0.265-0.135c0.217-0.116,0.435-0.241,0.642-0.37
			l0.051-0.032c1.595-1.014,2.888-2.439,3.742-4.126c0.581-1.147,0.933-2.395,1.038-3.676
			C208.026,20.362,207.668,18.506,206.837,16.847L206.837,16.847z M198.346,31.496l-0.98-2.017l-0.029-0.06l-0.14-0.29l-0.176-0.36
			l-3.282-6.882v4.212l1.08,2.178l0.213,0.44l0.109,0.225c0.01,0.023,0.019,0.049,0.025,0.074l0.067,0.139l0.125,0.257l1.031,2.126
			l0.013,0.025c0.005,0.008,0.012,0.016,0.019,0.023c0.067,0.006,0.137,0.016,0.204,0.022h1.699c0.022,0,0.045-0.01,0.06-0.029
			C198.384,31.579,198.346,31.496,198.346,31.496z M189.68,13.377l0.004-0.003l-0.59-1.216l-0.572-1.167
			c-0.006-0.016-0.016-0.029-0.03-0.039c-0.015-0.015-0.035-0.025-0.057-0.028c-0.01-0.004-0.019-0.007-0.032-0.007
			c-0.012,0-0.022,0.003-0.035,0.007c-0.021,0.006-0.041,0.017-0.057,0.032c-0.012,0.011-0.021,0.024-0.029,0.038l-9.978,20.48
			c-0.013,0.027-0.012,0.06,0.003,0.086c0.017,0.026,0.046,0.042,0.077,0.042h1.446c0.265-0.001,0.507-0.152,0.623-0.39l1.092-2.244
			c0.003-0.01,0.006-0.02,0.013-0.029l5.674-11.648c0.115-0.311,0.243-0.617,0.386-0.916c0.057-0.12,0.115-0.235,0.176-0.351
			c0.019-0.039,0.038-0.077,0.06-0.113l0.023-0.041c0.054-0.1,0.108-0.203,0.166-0.303l0.054-0.093
			c0.067-0.113,0.134-0.222,0.204-0.331l2.26,4.554v-4.474L189.68,13.377L189.68,13.377z"/>
		<path fill="#FFFFFF" d="M204.745,23.945v-0.023c-0.38,0.983-0.959,1.876-1.702,2.624c-0.144,0.143-0.293,0.281-0.447,0.412v0.032
			C203.553,26.168,204.291,25.122,204.745,23.945L204.745,23.945z"/>
		<path fill="#FFFFFF" d="M202.548,31.184v0.402c0.001,0.026,0.022,0.047,0.048,0.048h1.747c0.195,0,0.354-0.16,0.354-0.357v-1.499
			C204.037,30.328,203.315,30.801,202.548,31.184z M204.566,10.991h-1.887c-0.07,0-0.13,0.058-0.13,0.129v15.838
			c0.952-0.798,1.689-1.82,2.146-2.975l-0.001-12.863C204.694,11.049,204.637,10.992,204.566,10.991L204.566,10.991z"/>
		<path fill="#FFFFFF" d="M197.2,10.991h-5.83c-0.131-0.001-0.238,0.104-0.24,0.235v19.826c0.002,0.263,0.216,0.475,0.479,0.473
			h0.001l0.944,0.003l3.05,0.006l-1.025-2.112h-1.303v-16.29c0,0,3.946-0.025,4.148-0.025c1.854-0.004,3.656,0.614,5.118,1.753
			v-2.457C200.914,11.477,199.073,10.991,197.2,10.991z"/>
	</g>
	<path fill-rule="evenodd" clip-rule="evenodd" fill="#FFFFFF" d="M166.62,35.417h0.949v-29.4h-0.948L166.62,35.417z"/>
	<path fill-rule="evenodd" clip-rule="evenodd" fill="#FFFFFF" d="M53.173,22.973c0.207,0.318,0.494,0.462,0.898,0.472
		c0.55,0.014,0.9-0.53,0.9-0.53l9.112-11.755c0.752-0.79,1.494-0.152,1.494-0.152c0.72,0.758,0.183,1.451,0.183,1.451l-2.037,2.625
		v0.014c-0.361,0.374-0.38,0.961-0.044,1.357v0.004l2.05,2.617l6.458-8.272l-2.58-3.312L69.13,6.867
		c-0.42-0.606-1.354-0.747-1.354-0.747h-3.867c-1.025,0-1.584,0.714-1.584,0.714L51.495,20.83L53.173,22.973z M52.714,15.799
		l-2.59-3.345c-0.528-0.855,0.24-1.467,0.24-1.467c0.968-0.569,1.53,0.308,1.53,0.308l2.143,2.772l2.537-3.291l-2.925-3.79
		C52.95,5.979,51.886,6.12,51.886,6.12h-3.493c-1.119,0-1.6,0.7-1.6,0.7l-3.088,3.949l6.458,8.307L52.714,15.799L52.714,15.799z"/>
	<path fill-rule="evenodd" clip-rule="evenodd" fill="#FFFFFF" d="M62.699,18.65c0,0-0.299-0.464-0.873-0.455
		c-0.598,0.009-0.84,0.41-0.84,0.41l-9.203,11.904c-0.746,0.825-1.548,0.161-1.548,0.161c-0.721-0.758-0.13-1.46-0.13-1.46
		l2.064-2.67v-0.014c0.362-0.374,0.38-0.961,0.043-1.357v-0.005l-2.05-2.616l-6.479,8.365l3.613,4.604l5.676,0.015l11.416-14.704
		L62.699,18.65L62.699,18.65z M63.174,25.824l2.613,3.385c0.601,0.84-0.157,1.461-0.157,1.461c-1.004,0.679-1.618-0.335-1.618-0.335
		l-2.185-2.796l-2.538,3.291l3.66,4.717l5.633-0.015l3.612-4.663l-6.472-8.325C65.722,22.544,63.174,25.824,63.174,25.824z
		 M72.146,18.24c-1.442-0.003-2.613,1.162-2.62,2.603c0.006,1.442,1.178,2.607,2.62,2.604c1.442,0.003,2.614-1.162,2.62-2.604
		C74.759,19.402,73.588,18.237,72.146,18.24 M72.146,22.243c-0.767-0.007-1.384-0.633-1.378-1.4c0-0.772,0.618-1.4,1.378-1.4
		s1.378,0.628,1.378,1.4C73.524,21.616,72.906,22.243,72.146,22.243 M57.93,6.125c1.442,0.003,2.614-1.162,2.62-2.604
		c-0.006-1.442-1.178-2.607-2.62-2.604c-1.442-0.003-2.613,1.162-2.619,2.604C55.317,4.963,56.488,6.128,57.93,6.125 M57.93,2.121
		c0.76,0,1.377,0.628,1.377,1.4s-0.617,1.4-1.377,1.4c-0.767-0.007-1.383-0.633-1.378-1.4C56.552,2.749,57.172,2.121,57.93,2.121
		 M57.93,40.86c1.442,0.003,2.614-1.161,2.62-2.603c-0.006-1.442-1.178-2.606-2.62-2.603c-1.441-0.003-2.613,1.162-2.619,2.603
		C55.317,39.699,56.488,40.864,57.93,40.86 M57.93,36.857c0.76,0,1.377,0.628,1.377,1.4c0,0.772-0.617,1.4-1.377,1.4
		c-0.767-0.007-1.383-0.633-1.378-1.4C56.552,37.485,57.172,36.857,57.93,36.857 M46.296,20.834
		c-0.006-1.442-1.177-2.607-2.619-2.605c-1.442-0.002-2.614,1.163-2.62,2.605c0.006,1.442,1.178,2.607,2.62,2.604
		C45.119,23.441,46.291,22.276,46.296,20.834 M42.299,20.834c0-0.773,0.618-1.401,1.378-1.401c0.759,0,1.377,0.628,1.377,1.4
		s-0.618,1.4-1.377,1.4c-0.76,0-1.378-0.628-1.378-1.4"/>
	<g transform="translate(.495 2.985)">
		<defs>
			<filter id="Adobe_OpacityMaskFilter" filterUnits="userSpaceOnUse" x="0" y="0.52" width="30.095" height="34.646">
				<feColorMatrix  type="matrix" values="1 0 0 0 0  0 1 0 0 0  0 0 1 0 0  0 0 0 1 0"/>
			</filter>
		</defs>
		<mask maskUnits="userSpaceOnUse" x="0" y="0.52" width="30.095" height="34.646" id="b_2_">
			<g filter="url(#Adobe_OpacityMaskFilter)">
				<path id="a_2_" fill-rule="evenodd" clip-rule="evenodd" fill="#FFFFFF" d="M0,0.52h30.095v34.646H0V0.52z"/>
			</g>
		</mask>
		<path mask="url(#b_2_)" fill-rule="evenodd" clip-rule="evenodd" fill="#FFFFFF" d="M29.362,1.258v19.473
			c0,2.359-0.737,4.538-2.19,6.474c-1.184,1.579-2.844,3.008-4.938,4.249c-3.203,1.9-6.457,2.775-7.187,2.956
			c-0.726-0.18-3.955-1.046-7.156-2.939c-2.1-1.24-3.768-2.67-4.957-4.25c-1.46-1.941-2.202-4.126-2.202-6.491V1.258H29.362z
			 M30.095,0.52H0v20.21c0,11.093,15.04,14.436,15.04,14.436h0.015c0,0,15.04-3.343,15.04-14.435
			C30.095,20.731,30.095,0.52,30.095,0.52z"/>
	</g>
	<path fill-rule="evenodd" clip-rule="evenodd" fill="#FFFFFF" d="M19.187,9.974V8.118h-1.896V9.85h-0.74V8.118h-1.952V9.85h-0.74
		V8.118H11.93v1.857l0.941,1.628c0.033,0.057,0.05,0.121,0.05,0.187l0.008,8.499h0.91l-0.008-3.052c0-0.721,0.812-1.375,1.705-1.375
		c0.895,0,1.707,0.654,1.707,1.373l0.01,3.054h0.935l-0.003-3.222l-0.002-0.045v-1.598v-1.188v-0.514l-0.003-1.931
		c0-0.067,0.018-0.133,0.052-0.19l0.954-1.627L19.187,9.974z M12.19,20.488l-0.004-2.817l-0.336,0.204
		c-0.124,0.076-0.281,0.071-0.4-0.012l-0.406-0.28v0.036l-0.013,1.085c-0.001,0.113-0.053,0.219-0.141,0.289
		c0.042,0.014,0.082,0.035,0.117,0.063c0.493,0.398,0.53,0.968,0.424,1.432H12.19L12.19,20.488z"/>
	<path fill-rule="evenodd" clip-rule="evenodd" fill="#FFFFFF" d="M15.538,16.608c-0.568,0-0.967,0.407-0.967,0.627l0.01,3.054
		h1.932l-0.008-3.053C16.505,17.016,16.106,16.608,15.538,16.608"/>
	<path fill-rule="evenodd" clip-rule="evenodd" fill="#FFFFFF" d="M4.257,20.488c-0.116-0.274-0.196-0.562-0.237-0.857
		c-0.094-0.588-0.074-1.13-0.074-1.153c0.005-0.158,0.11-0.295,0.261-0.341l0.808-0.252l-0.912-0.65
		c-0.098-0.07-0.157-0.184-0.157-0.305v-1.032c0-0.14,0.077-0.267,0.199-0.331l0.357-0.187v-0.352l-0.325-0.132
		c-0.139-0.058-0.23-0.194-0.231-0.345l-0.001-1.242c0-0.205,0.163-0.371,0.366-0.373l1.142-0.01
		C5.433,12.62,5.427,12.205,5.5,11.86c0.1-0.466,0.363-0.971,0.488-1.197l-0.06-0.43C5.9,10.028,6.043,9.839,6.248,9.81
		c0.015-0.002,0.03-0.003,0.046-0.003h0.615c0.07,0,0.14,0.02,0.2,0.058l1.504,0.961h0.693c0.205,0.001,0.371,0.168,0.37,0.374
		c0,0.005,0,0.011,0,0.016L9.623,12.41c-0.004,0.099-0.047,0.192-0.12,0.259h0.46c0.1,0.001,0.196,0.043,0.265,0.116l0.21,0.22
		l0.16-0.124l0.266-0.566c0.061-0.13,0.192-0.213,0.336-0.213h0.982V11.89l-0.941-1.627c-0.033-0.057-0.05-0.121-0.05-0.187v-2.33
		c0-0.206,0.166-0.374,0.37-0.374h7.997c0.204,0,0.37,0.168,0.37,0.373v2.33c0.001,0.067-0.017,0.132-0.05,0.19l-0.955,1.627v0.21
		h0.974c0.143,0,0.273,0.082,0.335,0.213l0.267,0.566l0.159,0.123l0.21-0.22c0.069-0.073,0.166-0.114,0.266-0.114l0.46-0.001
		c-0.072-0.067-0.116-0.16-0.12-0.259l-0.052-1.194c-0.009-0.206,0.151-0.381,0.358-0.39c0.004,0,0.008,0,0.012,0h0.692l1.504-0.96
		c0.059-0.038,0.128-0.058,0.198-0.059h0.617c0.205,0.001,0.371,0.169,0.37,0.374c0,0.017-0.001,0.034-0.004,0.051l-0.061,0.431
		c0.126,0.226,0.388,0.731,0.488,1.197c0.074,0.345,0.067,0.76,0.047,1.065l1.142,0.01c0.204,0.003,0.368,0.17,0.367,0.374
		l-0.002,1.242c0,0.15-0.09,0.287-0.23,0.345l-0.326,0.132v0.352l0.357,0.187c0.122,0.065,0.199,0.192,0.199,0.33v1.033
		c0,0.12-0.058,0.234-0.156,0.304l-0.914,0.65l0.81,0.253c0.15,0.046,0.254,0.184,0.26,0.341c0,0.023,0.02,0.565-0.073,1.153
		c-0.042,0.295-0.121,0.583-0.237,0.857h1.346l0.017,0.002V6.084H2.916v14.404H4.257L4.257,20.488z"/>
	<path fill-rule="evenodd" clip-rule="evenodd" fill="#FFFFFF" d="M20.088,19.056c0.035-0.028,0.075-0.05,0.118-0.064
		c-0.089-0.069-0.141-0.175-0.143-0.288l-0.014-1.085c0-0.013,0-0.024,0.002-0.037l-0.406,0.281c-0.119,0.082-0.276,0.087-0.4,0.012
		l-0.319-0.193l0.003,2.805h0.735C19.559,20.023,19.596,19.454,20.088,19.056 M25.004,28.19c-0.205-0.001-0.371-0.168-0.37-0.373
		v-2.436c0-0.18-0.109-0.405-0.277-0.572c-0.201-0.2-0.476-0.308-0.76-0.297c-0.567,0.008-0.908,0.451-0.956,0.888v2.417
		c0.003,0.203-0.16,0.37-0.363,0.373c-0.002,0-0.005,0-0.007,0h-2.199c-0.204,0-0.37-0.166-0.37-0.37c0-0.001,0-0.002,0-0.003
		v-2.436c0-0.18-0.108-0.405-0.277-0.572c-0.201-0.2-0.476-0.308-0.759-0.297c-0.239,0.001-0.469,0.092-0.643,0.256l1.81,9.289
		c2.544-1.137,5.558-2.99,7.185-5.867C27.018,28.19,25.004,28.19,25.004,28.19z M19.122,34.288l-2.541-13.055h-2.065l-2.539,13.06
		c-0.004,0.018-0.008,0.035-0.014,0.052c1.764,0.73,3.197,1.1,3.596,1.227c0.406-0.128,1.83-0.496,3.582-1.218
		C19.133,34.332,19.127,34.31,19.122,34.288 M13.077,24.756c-0.173-0.155-0.396-0.242-0.628-0.244h-0.02
		c-0.362,0-0.602,0.162-0.74,0.299c-0.168,0.167-0.276,0.39-0.276,0.572v2.436c0.001,0.205-0.164,0.372-0.369,0.373h-0.001h-2.2
		c-0.205-0.001-0.372-0.168-0.371-0.373l0,0V25.4c-0.047-0.437-0.387-0.879-0.955-0.889h-0.02c-0.362,0-0.602,0.162-0.74,0.299
		C6.589,24.977,6.48,25.2,6.48,25.382v2.436c0.002,0.204-0.163,0.371-0.367,0.373c-0.001,0-0.002,0-0.003,0H4.104
		c1.624,2.867,4.627,4.719,7.167,5.856L13.077,24.756L13.077,24.756z"/>
	<path fill-rule="evenodd" clip-rule="evenodd" fill="#FFFFFF" d="M28.185,21.233h-10.85l0.532,2.737
		c0.238-0.129,0.506-0.2,0.787-0.205c0.487-0.008,0.949,0.175,1.29,0.514c0.312,0.308,0.498,0.72,0.498,1.102v2.064h1.46V25.38
		l0.001-0.034c0.073-0.88,0.799-1.563,1.682-1.582c0.494-0.008,0.95,0.175,1.292,0.514c0.312,0.308,0.497,0.72,0.497,1.102v2.064
		h2.022c0.538-1.191,0.813-2.485,0.806-3.792V21.23L28.185,21.233 M5.74,27.446v-2.063c0-0.383,0.186-0.795,0.498-1.104
		c0.344-0.338,0.809-0.522,1.291-0.512c0.895,0.02,1.627,0.722,1.684,1.616v2.063h1.46v-2.063c0-0.383,0.185-0.795,0.497-1.104
		c0.344-0.338,0.809-0.522,1.291-0.512c0.274,0.004,0.536,0.074,0.77,0.197l0.531-2.731H2.916v2.42c0,1.416,0.301,2.675,0.809,3.793
		C3.725,27.446,5.74,27.446,5.74,27.446z M6.61,19.72h0.601c0.045,0.077,0.074,0.162,0.084,0.25c0.002,0.05,0.005,0.1,0.01,0.152
		c-0.001,0.13-0.024,0.26-0.05,0.365H5.152c-0.303-0.208-0.455-1.036-0.467-1.717l0.92-0.287c0.155-0.05,0.26-0.194,0.26-0.357
		v-0.357c0-0.121-0.058-0.234-0.156-0.304l-1.022-0.728v-0.614l0.356-0.187c0.123-0.064,0.2-0.191,0.2-0.33v-0.829
		c0-0.152-0.092-0.288-0.232-0.346l-0.325-0.132v-0.62l0.97-0.01l0.46,0.76l0.004,1.062l-0.317,1.007
		c-0.064,0.194,0.041,0.403,0.235,0.467c0.038,0.013,0.078,0.019,0.118,0.019h0.28c0.182-0.001,0.337-0.134,0.365-0.314
		c0.027-0.165,0.115-0.64,0.198-0.855c0.064-0.167,0.328-0.523,0.494-0.724c0.117-0.141,0.115-0.346-0.005-0.485l-1.273-1.47
		c-0.024-0.222-0.069-0.748,0.01-1.12c0.085-0.404,0.364-0.918,0.463-1.082c0.045-0.074,0.063-0.161,0.051-0.247L6.72,10.553h0.083
		l1.505,0.961c0.059,0.038,0.128,0.058,0.198,0.058h0.412l-0.024,0.556l-0.485,0.178c-0.147,0.055-0.245,0.196-0.244,0.353
		l0.002,0.382c0.002,0.205,0.167,0.37,0.37,0.37l1.267,0.005l0.33,0.345c0.131,0.137,0.343,0.153,0.492,0.037
		c0,0,0.576-0.461,0.602-0.515l0.205-0.436h0.739v1.356c0,0-1.35,0.468-1.463,0.523c-0.088,0.044-0.136,0.465-0.121,0.567
		c0.015,0.101,0.01,0.142,0.155,0.25c0,0,0.394,0.311,0.514,0.355l0.393-0.378l0.52,0.035v1.257l-0.497,0.3l-1.553-1.07
		c-0.161-0.11-0.381-0.076-0.501,0.078l-0.243,0.313c-0.118,0.152-0.101,0.369,0.038,0.502l0.889,0.838l-0.009,0.682l-0.891,0.399
		c-0.134,0.06-0.22,0.193-0.22,0.34v0.153c0,0.206,0.166,0.373,0.37,0.373h1.072c0.185,0.231,0.113,0.559,0.035,0.767H8.189
		c-0.084-0.088-0.127-0.245-0.145-0.42c-0.001-0.048-0.004-0.096-0.009-0.144c-0.005-0.208,0.014-0.417,0.056-0.621l0.575-0.742
		c0.047-0.061,0.075-0.135,0.078-0.212l0.017-0.355c0.006-0.127-0.053-0.248-0.156-0.322c-0.103-0.074-0.237-0.089-0.354-0.04
		l-0.928,0.38c-0.121,0.05-0.207,0.161-0.226,0.291l-0.055,0.373l-0.538,0.164c-0.157,0.048-0.264,0.193-0.264,0.357v0.15
		C6.24,19.553,6.406,19.72,6.61,19.72 M24.485,19.72h-0.6c-0.046,0.077-0.075,0.162-0.086,0.25c0,0.05-0.004,0.1-0.009,0.152
		c0.002,0.13,0.025,0.26,0.05,0.365h2.103c0.304-0.208,0.455-1.036,0.468-1.717l-0.92-0.287c-0.156-0.049-0.262-0.194-0.261-0.357
		v-0.357c0-0.12,0.06-0.235,0.157-0.304l1.022-0.728v-0.614l-0.357-0.187c-0.123-0.064-0.2-0.191-0.2-0.33v-0.829
		c0-0.152,0.092-0.289,0.232-0.346l0.326-0.132v-0.62l-0.97-0.01l-0.461,0.76l-0.003,1.062l0.317,1.007
		c0.062,0.197-0.048,0.407-0.245,0.469c-0.035,0.011-0.072,0.017-0.109,0.017h-0.28c-0.182-0.001-0.337-0.134-0.365-0.314
		c-0.027-0.165-0.115-0.64-0.197-0.855c-0.064-0.167-0.328-0.523-0.495-0.724c-0.116-0.142-0.114-0.346,0.005-0.485l1.273-1.47
		c0.025-0.222,0.07-0.748-0.009-1.12c-0.085-0.404-0.365-0.918-0.464-1.082c-0.045-0.074-0.063-0.161-0.051-0.247l0.018-0.134
		h-0.081l-1.505,0.961c-0.059,0.038-0.128,0.058-0.199,0.058h-0.413l0.025,0.556l0.486,0.178c0.147,0.055,0.245,0.196,0.244,0.353
		l-0.002,0.382c-0.001,0.204-0.166,0.369-0.37,0.37l-1.267,0.005l-0.33,0.345c-0.13,0.137-0.344,0.153-0.493,0.037
		c0,0-0.576-0.461-0.602-0.515l-0.204-0.436h-0.74v1.356c0,0,1.352,0.468,1.463,0.523c0.088,0.044,0.137,0.465,0.122,0.567
		c-0.016,0.101-0.01,0.142-0.155,0.25c0,0-0.395,0.311-0.515,0.355l-0.392-0.378l-0.52,0.035v1.257l0.497,0.3l1.552-1.07
		c0.161-0.111,0.38-0.077,0.5,0.078l0.244,0.313c0.118,0.152,0.102,0.369-0.038,0.502l-0.889,0.838l0.01,0.682l0.89,0.399
		c0.134,0.06,0.22,0.194,0.22,0.34v0.153c0.001,0.205-0.165,0.372-0.37,0.373H20.47c-0.185,0.231-0.112,0.559-0.035,0.767h2.471
		c0.084-0.088,0.128-0.245,0.145-0.42c0.001-0.048,0.004-0.096,0.01-0.144c0.005-0.208-0.014-0.417-0.056-0.621l-0.576-0.742
		c-0.047-0.061-0.074-0.135-0.078-0.212l-0.017-0.355c-0.01-0.205,0.148-0.38,0.353-0.39c0.054-0.003,0.108,0.006,0.158,0.027
		l0.927,0.381c0.121,0.05,0.207,0.16,0.226,0.291l0.055,0.373l0.539,0.164c0.157,0.048,0.263,0.193,0.263,0.357v0.15
		C24.856,19.551,24.69,19.719,24.485,19.72L24.485,19.72 M82.688,16.415v-0.013c0-1.418,1.033-2.672,2.571-2.672
		c0.865,0,1.4,0.25,1.912,0.687l-0.373,0.441c-0.396-0.346-0.835-0.59-1.56-0.59c-1.136,0-1.949,0.967-1.949,2.118v0.016
		c0,1.231,0.783,2.145,2.028,2.145c0.587,0,1.13-0.228,1.48-0.515v-1.284h-1.56v-0.525h2.118v2.059
		c-0.567,0.507-1.3,0.788-2.06,0.79C83.685,19.072,82.688,17.892,82.688,16.415 M89.25,16.415v-0.013
		c0-1.424,1.063-2.672,2.623-2.672s2.608,1.232,2.608,2.656v0.016c0,1.423-1.063,2.67-2.622,2.67
		C90.299,19.072,89.25,17.84,89.25,16.415 M93.881,16.415v-0.013c0-1.174-0.85-2.134-2.022-2.134c-1.173,0-2.008,0.945-2.008,2.118
		v0.016c0,1.173,0.85,2.131,2.022,2.131C93.045,18.533,93.881,17.589,93.881,16.415 M96.553,13.818h2.183
		c0.587,0,1.048,0.17,1.34,0.458c0.214,0.222,0.33,0.495,0.33,0.826v0.015c0,0.672-0.41,1.018-0.812,1.196
		c0.608,0.184,1.098,0.537,1.098,1.246v0.015c0,0.885-0.74,1.41-1.86,1.41h-2.279V13.818z M99.82,15.183
		c0-0.509-0.402-0.84-1.134-0.84h-1.561v1.778h1.516c0.696,0,1.18-0.318,1.18-0.923L99.82,15.183L99.82,15.183z M98.744,16.637
		h-1.62v1.822h1.723c0.776,0,1.259-0.347,1.259-0.922v-0.014C100.106,16.962,99.638,16.637,98.744,16.637z M102.762,18.983h0.578
		V13.82h-0.578V18.983z M105.683,13.818h3.706v0.532h-3.128v1.763h2.8v0.531h-2.8v1.808h3.165v0.531h-3.743V13.818z M111.346,13.818
		h2.204c0.63,0,1.136,0.192,1.458,0.517c0.25,0.25,0.396,0.612,0.396,1.018v0.015c0,0.855-0.586,1.357-1.39,1.505l1.573,2.11h-0.71
		l-1.487-2.007h-1.466v2.007h-0.578V13.818z M113.499,16.453c0.77,0,1.319-0.4,1.319-1.063v-0.015c0-0.634-0.484-1.018-1.311-1.018
		h-1.583v2.096H113.499z M117.49,13.818h0.542l3.23,4.14v-4.14h0.565v5.165h-0.462l-3.311-4.235v4.235h-0.564L117.49,13.818z
		 M123.898,16.415v-0.013c0-1.424,1.063-2.672,2.622-2.672c1.561,0,2.609,1.232,2.609,2.656v0.016c0,1.423-1.063,2.67-2.623,2.67
		S123.898,17.84,123.898,16.415 M128.528,16.415v-0.013c0-1.174-0.85-2.134-2.022-2.134c-1.172,0-2.008,0.945-2.008,2.118v0.016
		c0,1.173,0.85,2.131,2.022,2.131C127.693,18.533,128.529,17.589,128.528,16.415 M133.869,13.818h1.78
		c1.61,0,2.724,1.115,2.724,2.568v0.015c0,1.453-1.113,2.582-2.724,2.582h-1.78V13.818z M134.447,14.358v4.086h1.202
		c1.296,0,2.124-0.885,2.124-2.029v-0.014c0-1.144-0.828-2.044-2.124-2.044L134.447,14.358L134.447,14.358z M140.213,13.818h3.706
		v0.532h-3.128v1.763h2.798v0.531h-2.798v1.808h3.165v0.531h-3.743L140.213,13.818z M148.564,13.818h0.579v4.626h2.887v0.54h-3.466
		L148.564,13.818z M155.582,13.782h0.543l2.337,5.201h-0.623l-0.6-1.364h-2.792l-0.608,1.364h-0.594L155.582,13.782z
		 M157.011,17.086l-1.166-2.625l-1.171,2.625H157.011z M82.578,25.269v-0.014c0-1.469,1.1-2.672,2.674-2.672
		c0.967,0,1.546,0.325,2.022,0.798l-0.718,0.833c-0.396-0.361-0.799-0.583-1.31-0.583c-0.866,0-1.488,0.723-1.488,1.609v0.015
		c0,0.884,0.608,1.622,1.488,1.622c0.585,0,0.944-0.235,1.346-0.605l0.718,0.73c-0.526,0.57-1.113,0.923-2.102,0.923
		C83.699,27.925,82.578,26.752,82.578,25.269 M88.242,27.837h1.128v-5.164h-1.128V27.837z M90.672,25.623v-2.95H91.8v2.922
		c0,0.84,0.418,1.274,1.106,1.274c0.689,0,1.106-0.42,1.106-1.238v-2.959h1.128v2.915c0,1.564-0.872,2.33-2.25,2.33
		C91.514,27.917,90.672,27.144,90.672,25.623 M96.423,22.672h2c1.612,0,2.725,1.114,2.725,2.568v0.014
		c0,1.453-1.113,2.582-2.725,2.582h-2C96.423,27.836,96.423,22.672,96.423,22.672z M98.423,26.811c0.923,0,1.546-0.627,1.546-1.542
		v-0.015c0-0.914-0.623-1.556-1.546-1.556h-0.871v3.113H98.423z M103.647,22.636h1.04l2.198,5.2h-1.18l-0.469-1.157h-2.167
		l-0.47,1.158h-1.15C101.449,27.837,103.647,22.636,103.647,22.636z M104.834,25.676L104.153,24l-0.681,1.675L104.834,25.676
		L104.834,25.676z M107.702,22.672h2c1.61,0,2.725,1.114,2.725,2.568v0.014c0,1.453-1.114,2.582-2.726,2.582h-2L107.702,22.672
		L107.702,22.672z M109.702,26.811c0.923,0,1.545-0.627,1.545-1.542v-0.015c0-0.914-0.622-1.556-1.546-1.556h-0.871v3.113H109.702
		L109.702,26.811z M115.702,22.672h2c1.612,0,2.725,1.114,2.725,2.568v0.014c0,1.453-1.113,2.582-2.725,2.582h-2
		C115.702,27.836,115.702,22.672,115.702,22.672z M117.702,26.811c0.923,0,1.545-0.627,1.545-1.542v-0.015
		c0-0.914-0.622-1.556-1.545-1.556h-0.872v3.113H117.702z M121.497,22.672h3.867v1.01h-2.746v1.05h2.417v1.01h-2.417v1.084h2.783
		v1.01h-3.904L121.497,22.672z M128.676,22.672h1.216l1.348,2.184l1.348-2.184h1.216v5.164h-1.121v-3.371l-1.443,2.206h-0.029
		l-1.43-2.184v3.35h-1.105L128.676,22.672z M135.149,22.672h3.867v1.01h-2.746v1.05h2.417v1.01h-2.417v1.084h2.783v1.01h-3.904
		V22.672z M137.295,20.961l0.96,0.42l-0.937,0.885h-0.85L137.295,20.961z M141.567,25.21l-1.715-2.538h1.319l1.076,1.675
		l1.085-1.675h1.282l-1.714,2.523l1.787,2.642h-1.319l-1.15-1.771l-1.157,1.77h-1.283L141.567,25.21z M145.552,27.837h1.128v-5.164
		h-1.128V27.837z M147.771,25.269v-0.014c0-1.469,1.099-2.672,2.674-2.672c0.967,0,1.546,0.325,2.022,0.798l-0.718,0.833
		c-0.396-0.361-0.8-0.583-1.311-0.583c-0.865,0-1.487,0.723-1.487,1.609v0.015c0,0.884,0.608,1.622,1.487,1.622
		c0.586,0,0.945-0.235,1.347-0.605l0.719,0.73c-0.528,0.57-1.114,0.923-2.103,0.923C148.891,27.925,147.771,26.752,147.771,25.269
		 M153.036,25.269v-0.014c0-1.469,1.15-2.672,2.732-2.672c1.583,0,2.718,1.188,2.718,2.657v0.015c0,1.468-1.15,2.67-2.732,2.67
		S153.036,26.737,153.036,25.269 M157.307,25.269v-0.014c0-0.886-0.646-1.624-1.553-1.624c-0.909,0-1.538,0.723-1.538,1.609v0.015
		c0,0.884,0.643,1.622,1.552,1.622S157.307,26.155,157.307,25.269"/>
</g>
</svg>
