<?xml version="1.0" encoding="UTF-8"?>
<svg width="1092px" height="114px" viewBox="0 0 1092 114" version="1.1" xmlns="http://www.w3.org/2000/svg" xmlns:xlink="http://www.w3.org/1999/xlink">
    <!-- Generator: Sketch 61 (89581) - https://sketch.com -->
    <title>Group 23</title>
    <desc>Created with Sketch.</desc>
    <defs>
        <polygon id="path-1" points="0 0 46.9787234 0 46.9787234 16.3404255 0 16.3404255"></polygon>
        <polygon id="path-3" points="0 0.422828296 34.6256533 0.422828296 34.6256533 48.3501887 0 48.3501887"></polygon>
        <polygon id="path-5" points="0.202172097 49.28 34.4758563 49.28 34.4758563 0.929811321 0.202172097 0.929811321"></polygon>
        <polygon id="path-7" points="5.775e-05 0.387886937 36.51879 0.387886937 36.51879 46.3519802 5.775e-05 46.3519802"></polygon>
        <polygon id="path-9" points="0.201666667 47.52 36.2376667 47.52 36.2376667 0.931764706 0.201666667 0.931764706"></polygon>
        <polygon id="path-11" points="0.0661313016 0.174377481 38.2618748 0.174377481 38.2618748 17.6496932 0.0661313016 17.6496932"></polygon>
        <polygon id="path-13" points="0 0.0759942857 38.3278832 0.0759942857 38.3278832 18.6770841 0 18.6770841"></polygon>
        <polygon id="path-15" points="0.592931368 0.246774051 12.0341103 0.246774051 12.0341103 12.5682918 0.592931368 12.5682918"></polygon>
        <polygon id="path-17" points="0.566712 0.12075907 17.884 0.12075907 17.884 21.4655777 0.566712 21.4655777"></polygon>
        <polygon id="path-19" points="0.399024 0.246774051 11.8408472 0.246774051 11.8408472 12.5682231 0.399024 12.5682231"></polygon>
        <polygon id="path-21" points="0 0.12075907 16.9842632 0.12075907 16.9842632 21.4655777 0 21.4655777"></polygon>
    </defs>
    <g id="Page-1" stroke="none" stroke-width="1" fill="none" fill-rule="evenodd">
        <g id="Alta-beneficiario-01" transform="translate(-96.000000, -145.000000)">
            <g id="Group-23" transform="translate(94.000000, 143.000000)">
                <g id="Group-21" transform="translate(1047.000000, 21.000000)" fill="#FFFFFF">
                    <g id="Group-12">
                        <path d="M31.3385049,0 C32.6893285,-1.84540054e-15 33.7843873,1.09505883 33.7843873,2.44588235 C33.7843873,2.56475482 33.7759072,2.68164665 33.7595189,2.79598588 L33.7843873,2.79529412 L33.7843873,5.59058824 L12.3299873,5.59058824 L12.3299873,2.79529412 L12.3548558,2.79598588 C12.3384674,2.68164665 12.3299873,2.56475482 12.3299873,2.44588235 C12.3299873,1.09505883 13.4250461,2.48142256e-16 14.7758697,0 L31.3385049,0 Z" id="Combined-Shape"></path>
                        <g id="Group-11" transform="translate(0.203587, 10.249412)">
                            <path d="M0,0.000133413899 L15.9426452,13.0531334 L30.1466452,13.0531334 L46.052,0.0301334139 L46.64,0.0301334139 L46.64,6.39927083 L32.0716452,18.3281334 L32.0718558,18.3775807 L32.0116452,18.3771334 L31.8996858,18.4696762 L31.8256452,18.3771334 L14.2636452,18.3771334 L14.1898322,18.4696762 L14.0776452,18.3771334 L14.0176622,18.3775807 L14.0176452,18.3281334 L0,6.85013341 L0,0.000133413899 Z" id="Combined-Shape"></path>
                            <path d="M46.64,0.0305031618 L46.64,5.35487291 L46.5159231,5.35377524 C46.597977,5.98702267 46.64,6.77901705 46.64,7.83111619 L46.64,28.7398541 C46.64,31.4522972 46.3606847,32.4358946 45.8361891,33.4275233 C45.3116934,34.4191519 44.5420173,35.1973879 43.5612957,35.7277167 C42.5805741,36.2580455 41.6077954,36.5404671 38.9251867,36.5404671 L7.71481327,36.5404671 C5.03220463,36.5404671 4.05942591,36.2580455 3.07870428,35.7277167 C2.09798266,35.1973879 1.32830659,34.4191519 0.803810923,33.4275233 C0.279315258,32.4358946 0,31.4522972 0,28.7398541 L0,7.83111619 C0,6.77901705 0.0420229678,5.98702267 0.124076918,5.35377524 L0,5.35487291 L0,0.0305031618 L46.64,0.0305031618 Z M38.9251867,5.35487291 L7.71481327,5.35487291 C6.71463404,5.35487291 6.09817209,5.39917207 5.75697945,5.46579217 C5.65700409,5.48531302 5.66709803,5.48154942 5.5620526,5.53835313 C5.49899502,5.57245174 5.48099211,5.59065487 5.44726855,5.65441374 C5.39108964,5.76062743 5.39481183,5.75042123 5.3755057,5.85150846 C5.30961836,6.19649564 5.26580645,6.81981353 5.26580645,7.83111619 L5.26580645,28.7398541 C5.26580645,29.7511568 5.30961836,30.3744747 5.3755057,30.7194619 C5.39481183,30.8205491 5.39108964,30.8103429 5.44726855,30.9165566 C5.48099211,30.9803154 5.49899502,30.9985186 5.5620526,31.0326172 C5.66709803,31.0894209 5.65700409,31.0856573 5.75697945,31.1051781 C6.09817209,31.1717982 6.71463404,31.2160974 7.71481327,31.2160974 L38.9251867,31.2160974 C39.925366,31.2160974 40.5418279,31.1717982 40.8830205,31.1051781 C40.9829959,31.0856573 40.972902,31.0894209 41.0779474,31.0326172 C41.141005,30.9985186 41.1590079,30.9803154 41.1927314,30.9165566 C41.2489104,30.8103429 41.2451882,30.8205491 41.2644943,30.7194619 C41.3303816,30.3744747 41.3741935,29.7511568 41.3741935,28.7398541 L41.3741935,7.83111619 C41.3741935,6.81981353 41.3303816,6.19649564 41.2644943,5.85150846 C41.2451882,5.75042123 41.2489104,5.76062743 41.1927314,5.65441374 C41.1590079,5.59065487 41.141005,5.57245174 41.0779474,5.53835313 C40.972902,5.48154942 40.9829959,5.48531302 40.8830205,5.46579217 C40.5418279,5.39917207 39.925366,5.35487291 38.9251867,5.35487291 Z" id="Combined-Shape" fill-rule="nonzero"></path>
                        </g>
                    </g>
                    <text id="Área-laboral" font-family="Metropolis-Bold, Metropolis" font-size="12.8" font-weight="bold" line-spacing="16">
                        <tspan x="9.0752" y="66.6">Área</tspan>
                        <tspan x="2.1824" y="82.6">laboral</tspan>
                    </text>
                </g>
                <g id="Group-15" transform="translate(398.000000, 41.000000)">
                    <g id="Group-5" transform="translate(0.800000, 0.000000)">
                        <ellipse id="Oval" stroke="#FFFFFF" stroke-width="6.16" cx="19.5612094" cy="18.92" rx="19.36" ry="18.92"></ellipse>
                        <polygon id="Fill-4" fill="#FFFFFF" points="16.7838301 10.1521951 16.7838301 16.6016229 10.3421618 16.6016229 10.3421618 22.1619218 16.7838301 22.1619218 16.7838301 28.6107317 22.3385887 28.6107317 22.3385887 22.1619218 28.780257 22.1619218 28.780257 16.6016229 22.3385887 16.6016229 22.3385887 10.1521951"></polygon>
                    </g>
                    <text id="Salud" font-family="Metropolis-Bold, Metropolis" font-size="12.8" font-weight="bold" line-spacing="16" fill="#FFFFFF">
                        <tspan x="1.5296" y="61">Salud</tspan>
                    </text>
                </g>
                <g id="Group-2" transform="translate(0.000000, 24.000000)">
                    <text id="Programas-sociales" font-family="Metropolis-Bold, Metropolis" font-size="12.8" font-weight="bold" line-spacing="16" fill="#FFFFFF">
                        <tspan x="2.16" y="63.4">Programas</tspan>
                        <tspan x="11.408" y="79.4">sociales</tspan>
                    </text>
                    <g id="Group-4" transform="translate(12.800000, 0.000000)">
                        <g id="Group" transform="translate(14.520770, 0.000000)">
                            <path d="M9.09048398,3.62830333e-15 C12.3872995,3.62830333e-15 15.0700023,2.71811213 15.0700023,6.05880105 C15.0700023,9.39881399 12.3872995,12.1169261 9.09048398,12.1169261 C5.79366846,12.1169261 3.11096563,9.39881399 3.11096563,6.05880105 C3.11096563,2.71811213 5.79366846,3.62830333e-15 9.09048398,3.62830333e-15" id="Fill-1" fill="#F0F0F0"></path>
                            <path d="M6.06032266,30.80126 L12.1206453,30.8431707 L12.1206453,24.5518328 C12.1206453,22.8740526 10.7611129,21.5099267 9.09048398,21.5099267 C7.41985504,21.5099267 6.06032266,22.8740526 6.06032266,24.5518328 L6.06032266,30.80126 Z M18.180968,36.9695697 L1.81415167e-15,36.8431616 L1.81415167e-15,24.5518328 C1.81415167e-15,19.5198441 4.07792378,15.4261144 9.09048398,15.4261144 C14.1030442,15.4261144 18.180968,19.5198441 18.180968,24.5518328 L18.180968,36.9695697 Z" id="Fill-3" fill="#FFFFFF"></path>
                        </g>
                        <g id="Group-6" transform="translate(0.222898, 31.659574)">
                            <mask id="mask-2" fill="white">
                                <use xlink:href="#path-1"></use>
                            </mask>
                            <g id="Clip-5"></g>
                            <path d="M41.7820897,5.39802635 L41.7820897,10.9423992 L5.19663369,10.9423992 L5.19663369,5.39802635 C5.19663369,2.41651646 2.86969661,0 0,0 L0,16.3404255 L46.9787234,16.3404255 L46.9787234,0 C44.1084494,0 41.7820897,2.41651646 41.7820897,5.39802635" id="Fill-4" fill="#FFFFFF" mask="url(#mask-2)"></path>
                        </g>
                    </g>
                </g>
                <path d="M49,49 C80.7227572,12.5674775 106.68739,5.41426445 126.893898,27.5403609 C147.100407,49.6664574 173.80244,51.1530038 207,32" id="Path-2" stroke="#00B140" stroke-width="3" stroke-linecap="round" stroke-linejoin="round" stroke-dasharray="2,10"></path>
                <path d="M259,9.84448821 C294.252927,4.36394257 318.792823,10.473037 332.619688,28.1717715 C346.446554,45.870506 366.573324,55.7801638 393,57.9007449" id="Path-3" stroke="#00B140" stroke-width="3" stroke-linecap="round" stroke-linejoin="round" stroke-dasharray="2,10"></path>
                <path d="M751,106 C780.407448,106 810.559068,105.820668 835.180102,69.619097 C851.594124,45.4847163 872.867423,32.2783506 899,30" id="Path-6" stroke="#00B140" stroke-width="3" stroke-linecap="round" stroke-linejoin="round" stroke-dasharray="2,10"></path>
                <path d="M945,30 C965.195232,32.5798692 979.399315,36.325431 987.612248,41.2366853 C988.585642,41.8187655 989.54727,42.4234539 990.497132,43.0507505 C1003.46856,51.617192 1021.96952,55.1569931 1046,53.6701538" id="Path-7" stroke="#00B140" stroke-width="3" stroke-linecap="round" stroke-linejoin="round" stroke-dasharray="2,10"></path>
                <path d="M597,55 C617.077875,60.0025569 629.039376,64.4381701 632.884502,68.3068397 C638.652192,74.109844 661.838999,107 704,107" id="Path-5" stroke="#00B140" stroke-width="3" stroke-linecap="round" stroke-linejoin="round" stroke-dasharray="2,10"></path>
                <path d="M445,54.5 C463.067745,45.223082 478.138057,40.5564153 490.210938,40.5 C502.283818,40.4435847 522.607385,43.5267219 551.181641,49.7494118" id="Path-4" stroke="#00B140" stroke-width="3" stroke-linecap="round" stroke-linejoin="round" stroke-dasharray="2,10"></path>
                <g id="Group-20" transform="translate(888.000000, 18.000000)">
                    <text id="Área-educativa" font-family="Metropolis-Bold, Metropolis" font-size="12.8" font-weight="bold" line-spacing="16" fill="#FFFFFF">
                        <tspan x="17.8752" y="69.8">Área</tspan>
                        <tspan x="1.7408" y="85.8">educativa</tspan>
                    </text>
                    <g id="Group-6" transform="translate(14.400000, 0.000000)">
                        <g id="Group-3" transform="translate(0.202172, 0.000000)">
                            <mask id="mask-4" fill="white">
                                <use xlink:href="#path-3"></use>
                            </mask>
                            <g id="Clip-2"></g>
                            <path d="M5.28,8.42478452 C5.28,6.93831104 6.48266667,5.72955632 7.96106667,5.72955632 L29.3456533,5.72955632 L29.3456533,32.5998789 L7.83493333,32.5998789 C6.94085333,32.5998789 6.0808,32.7514154 5.28,33.0297238 L5.28,8.42478452 Z M7.83493333,37.9066069 L34.6256533,37.9066069 L34.6256533,0.422828296 L7.96106667,0.422828296 C3.57162667,0.422828296 0,4.01253499 0,8.42478452 L0,40.4750633 C0,44.8177357 3.51472,48.3502476 7.83493333,48.3502476 L34.4279467,48.3502476 L34.4279467,43.0435196 L7.83493333,43.0435196 C6.42634667,43.0435196 5.28,41.89137 5.28,40.4750633 C5.28,39.0587565 6.42634667,37.9066069 7.83493333,37.9066069 L7.83493333,37.9066069 Z" id="Fill-1" fill="#FFFFFF" mask="url(#mask-4)"></path>
                        </g>
                        <mask id="mask-6" fill="white">
                            <use xlink:href="#path-5"></use>
                        </mask>
                        <g id="Clip-5"></g>
                        <polygon id="Fill-4" fill="#FFFFFF" mask="url(#mask-6)" points="9.46532999 14.8769811 25.2126984 14.8769811 25.2126984 10.2279245 9.46532999 10.2279245"></polygon>
                    </g>
                </g>
                <g id="Group-19" transform="translate(673.000000, 0.000000)">
                    <text id="Recuperación-de-docu" font-family="Metropolis-Bold, Metropolis" font-size="12.8" font-weight="bold" line-spacing="16" fill="#FFFFFF">
                        <tspan x="3.4464" y="13">Recuperación de</tspan>
                        <tspan x="17.1936" y="29">documentos</tspan>
                        <tspan x="10.8192" y="45">de identidad y</tspan>
                        <tspan x="5.3472" y="61">asesoría jurídica </tspan>
                    </text>
                    <g id="Group-8" transform="translate(36.000000, 69.600000)">
                        <g id="Group-3" transform="translate(0.201667, 0.000000)">
                            <mask id="mask-8" fill="white">
                                <use xlink:href="#path-7"></use>
                            </mask>
                            <g id="Clip-2"></g>
                            <path d="M31.3213478,41.2646808 L5.19755775,41.2646808 L5.19755775,16.8179681 L16.7388952,16.8179681 L16.7388952,5.4752994 L31.3213478,5.4752994 L31.3213478,41.2646808 Z M11.4801802,5.4752994 L11.5413952,5.4752994 L11.5413952,11.7305557 L5.19755775,11.7305557 L5.19755775,11.646896 L11.4801802,5.4752994 Z M31.5090352,0.387886937 L11.6742202,0.387886937 C10.1686777,0.387886937 8.72492775,0.974635174 7.66232775,2.01812 L1.67076525,7.90256041 C0.60123525,8.95452425 5.775e-05,10.3773039 5.775e-05,11.8616978 L5.775e-05,46.3520933 L36.5188477,46.3520933 L36.5188477,5.29102201 C36.5188477,2.58282278 34.2758377,0.387886937 31.5090352,0.387886937 L31.5090352,0.387886937 Z" id="Fill-1" fill="#FFFFFF" mask="url(#mask-8)"></path>
                        </g>
                        <polygon id="Fill-4" fill="#FFFFFF" points="9.44166667 20.8847374 9.44166667 26.6352626 9.44166667 27.0211765 26.0736667 27.0211765 26.0736667 26.6352626 26.0736667 20.8847374 26.0736667 20.4988235 9.44166667 20.4988235"></polygon>
                        <mask id="mask-10" fill="white">
                            <use xlink:href="#path-9"></use>
                        </mask>
                        <g id="Clip-7"></g>
                        <polygon id="Fill-6" fill="#FFFFFF" mask="url(#mask-10)" points="9.44166667 37.2705882 26.0736667 37.2705882 26.0736667 31.68 9.44166667 31.68"></polygon>
                    </g>
                </g>
                <g id="Group-18" transform="translate(547.000000, 20.000000)">
                    <text id="Apoyos-sociales" font-family="Metropolis-Bold, Metropolis" font-size="12.8" font-weight="bold" line-spacing="16" fill="#FFFFFF">
                        <tspan x="2.5952" y="66.6">Apoyos</tspan>
                        <tspan x="1.808" y="82.6">sociales</tspan>
                    </text>
                    <g id="Group-9" transform="translate(8.000000, 0.000000)">
                        <path d="M14.0297808,18.2108988 C14.0297808,21.0425406 16.3040721,23.3469388 19.100257,23.3469388 C21.8958709,23.3469388 24.1707332,21.0425406 24.1707332,18.2108988 C24.1707332,15.3786839 21.8958709,13.0742857 19.100257,13.0742857 C16.3040721,13.0742857 14.0297808,15.3786839 14.0297808,18.2108988" id="Fill-1" fill="#FFFFFF"></path>
                        <g id="Group-5" transform="translate(0.201209, 0.000000)">
                            <mask id="mask-12" fill="white">
                                <use xlink:href="#path-11"></use>
                            </mask>
                            <g id="Clip-4"></g>
                            <polygon id="Fill-3" fill="#FFFFFF" mask="url(#mask-12)" points="38.2618748 17.6454102 38.2618748 11.1493902 24.8186596 3.42232632 19.1673834 0.17401037 13.5154926 3.42232632 0.0661313016 11.1530613 0.0661313016 17.6496932 19.1673834 6.67064226"></polygon>
                        </g>
                        <g id="Group-8" transform="translate(0.201209, 27.082449)">
                            <mask id="mask-14" fill="white">
                                <use xlink:href="#path-13"></use>
                            </mask>
                            <g id="Clip-7"></g>
                            <path d="M21.9299017,13.3102065 L16.3984731,13.3102065 L16.3984731,7.95558612 C16.3984731,6.50690857 17.639357,5.32905551 19.1641874,5.32905551 C20.6890179,5.32905551 21.9299017,6.50690857 21.9299017,7.95558612 L21.9299017,13.3102065 Z M32.6399766,0.0759942857 L32.6399766,13.3102065 L27.4613303,13.3102065 L27.4613303,7.95558612 C27.4613303,3.61013714 23.7392935,0.0759942857 19.1641874,0.0759942857 C14.5890814,0.0759942857 10.8670446,3.61013714 10.8670446,7.95558612 L10.8670446,13.3102065 L5.68778362,13.3102065 L5.68778362,0.0759942857 L-0.000368761905,0.0759942857 L-0.000368761905,13.3102065 L-0.000368761905,18.6636596 L-0.000368761905,18.6770841 L38.328129,18.6770841 L38.328129,18.6636596 L38.328129,13.3102065 L38.328129,0.0759942857 L32.6399766,0.0759942857 Z" id="Fill-6" fill="#FFFFFF" mask="url(#mask-14)"></path>
                        </g>
                    </g>
                </g>
                <g id="Group-14" transform="translate(176.000000, 8.000000)">
                    <text id="Programa-individuali" font-family="Metropolis-Bold, Metropolis" font-size="12.8" font-weight="bold" line-spacing="16" fill="#FFFFFF">
                        <tspan x="26.1728" y="58.6">Programa</tspan>
                        <tspan x="9.1808" y="74.6">individualizado</tspan>
                        <tspan x="3.4144" y="90.6">de competencias</tspan>
                        <tspan x="32.208" y="106.6">sociales</tspan>
                    </text>
                    <g id="Group-17" transform="translate(32.800000, 0.000000)">
                        <path d="M24.702619,7.03255814 C28.0768893,7.03255814 30.822619,9.73696137 30.822619,13.0608014 C30.822619,16.3839689 28.0768893,19.0883721 24.702619,19.0883721 C21.3283488,19.0883721 18.582619,16.3839689 18.582619,13.0608014 C18.582619,9.73696137 21.3283488,7.03255814 24.702619,7.03255814" id="Fill-1" fill="#F0F0F0"></path>
                        <path d="M21.642619,37.159326 L27.762619,37.2003695 L27.762619,31.0392131 C27.762619,29.3961498 26.389699,28.0602506 24.702619,28.0602506 C23.015539,28.0602506 21.642619,29.3961498 21.642619,31.0392131 L21.642619,37.159326 Z M33.882619,43.2 L15.522619,43.0762076 L15.522619,31.0392131 C15.522619,26.1113471 19.640699,22.1023256 24.702619,22.1023256 C29.764539,22.1023256 33.882619,26.1113471 33.882619,31.0392131 L33.882619,43.2 Z" id="Fill-3" fill="#FFFFFF"></path>
                        <g id="Group-7" transform="translate(32.862619, 0.000000)">
                            <mask id="mask-16" fill="white">
                                <use xlink:href="#path-15"></use>
                            </mask>
                            <g id="Clip-6"></g>
                            <path d="M6.31352084,0.246774051 C9.46757558,0.246774051 12.0341103,3.01078091 12.0341103,6.40787662 C12.0341103,9.80428494 9.46757558,12.5682918 6.31352084,12.5682918 C3.15946611,12.5682918 0.592931368,9.80428494 0.592931368,6.40787662 C0.592931368,3.01078091 3.15946611,0.246774051 6.31352084,0.246774051" id="Fill-5" fill="#FFFFFF" mask="url(#mask-16)"></path>
                        </g>
                        <g id="Group-10" transform="translate(30.822619, 16.074419)">
                            <mask id="mask-18" fill="white">
                                <use xlink:href="#path-17"></use>
                            </mask>
                            <g id="Clip-9"></g>
                            <path d="M17.884272,9.16261953 C17.884272,4.1768707 13.766192,0.12075907 8.704272,0.12075907 C5.169632,0.12075907 2.100112,2.10193116 0.566712,4.99264744 C3.106512,6.69385674 4.958152,9.31264744 5.644272,12.35808 L5.644272,9.16261953 C5.644272,7.50092651 7.017192,6.14866605 8.704272,6.14866605 C10.391352,6.14866605 11.764272,7.50092651 11.764272,9.16261953 L11.764272,15.3961451 L5.941432,15.3559591 L5.941432,21.383866 L17.884272,21.4655777 L17.884272,9.16261953 Z" id="Fill-8" fill="#FFFFFF" mask="url(#mask-18)"></path>
                        </g>
                        <g id="Group-13" transform="translate(3.282619, 0.000000)">
                            <mask id="mask-20" fill="white">
                                <use xlink:href="#path-19"></use>
                            </mask>
                            <g id="Clip-12"></g>
                            <path d="M11.8408472,6.40780788 C11.8408472,9.80421621 9.27431242,12.5682231 6.11961347,12.5682231 C2.96555874,12.5682231 0.399024,9.80421621 0.399024,6.40780788 C0.399024,3.01071217 2.96555874,0.246705312 6.11961347,0.246705312 C9.27431242,0.246705312 11.8408472,3.01071217 11.8408472,6.40780788" id="Fill-11" fill="#FFFFFF" mask="url(#mask-20)"></path>
                        </g>
                        <g id="Group-16" transform="translate(0.222619, 16.074419)">
                            <mask id="mask-22" fill="white">
                                <use xlink:href="#path-21"></use>
                            </mask>
                            <g id="Clip-15"></g>
                            <path d="M-0.000266769231,9.16261953 C-0.000266769231,4.1768707 4.03861938,0.12075907 9.00319477,0.12075907 C12.4705278,0.12075907 15.4803517,2.10193116 16.9842632,4.99264744 C14.4933055,6.69385674 12.677274,9.31264744 12.0043486,12.35808 L12.0043486,9.16261953 C12.0043486,7.50092651 10.6578309,6.14866605 9.00319477,6.14866605 C7.34855862,6.14866605 6.00204092,7.50092651 6.00204092,9.16261953 L6.00204092,15.3961451 L11.7129032,15.3559591 L11.7129032,21.383866 L-0.000266769231,21.4655777 L-0.000266769231,9.16261953 Z" id="Fill-14" fill="#FFFFFF" mask="url(#mask-22)"></path>
                        </g>
                    </g>
                </g>
            </g>
        </g>
    </g>
</svg>