<?xml version="1.0" encoding="UTF-8"?>
<svg width="492px" height="48px" viewBox="0 0 492 48" version="1.1" xmlns="http://www.w3.org/2000/svg" xmlns:xlink="http://www.w3.org/1999/xlink">
    <!-- Generator: Sketch 61 (89581) - https://sketch.com -->
    <title>Group 25</title>
    <desc>Created with Sketch.</desc>
    <g id="Page-1" stroke="none" stroke-width="1" fill="none" fill-rule="evenodd">
        <g id="Group-25">
            <line x1="201.16" y1="6.26716981" x2="201.16" y2="39.5559375" id="Line" stroke="#898D8D" stroke-linecap="square" fill-rule="nonzero"></line>
            <g id="Group-24" transform="translate(0.000000, 0.000000)">
                <path d="M63.6325889,26.3221622 C63.8829384,26.700973 64.2297768,26.8722162 64.7174368,26.8851892 C65.3811238,26.9007568 65.8061964,26.2534054 65.8061964,26.2534054 L76.811144,12.2231351 C77.7199649,11.2812973 78.6157468,12.0428108 78.6157468,12.0428108 C79.4867545,12.947027 78.8374104,13.7747027 78.8374104,13.7747027 L76.3756402,16.9076757 L76.3756402,16.9232432 C76.1644078,17.1411892 76.0340174,17.4356757 76.0340174,17.7612973 C76.0340174,18.0596757 76.1435453,18.3321081 76.323484,18.5422703 L76.323484,18.5474595 L78.7995972,21.6713514 L86.6008533,11.7989189 L83.4832195,7.84605405 L82.9081979,7.10140541 C82.4022833,6.37751351 81.2717987,6.21016216 81.2717987,6.21016216 L76.6012155,6.21016216 C75.362507,6.21016216 74.6883887,7.06248649 74.6883887,7.06248649 L61.6063225,23.7638919 L63.6325889,26.3221622 Z" id="Fill-32" fill="#00B140"></path>
                <path d="M63.0780386,17.7605189 L59.9486697,13.7674378 C59.3123646,12.7477622 60.2407441,12.0173838 60.2407441,12.0173838 C61.4090418,11.3388973 62.0870718,12.3845189 62.0870718,12.3845189 L64.6766246,15.692627 L67.7407984,11.7657081 L64.2072193,7.24332973 C63.3635936,6.04203243 62.0779445,6.20938378 62.0779445,6.20938378 L57.858512,6.20938378 C56.5076677,6.20938378 55.9274305,7.04484324 55.9274305,7.04484324 L52.195658,11.756627 L59.9969141,21.670573 L63.0780386,17.7605189 Z" id="Fill-33" fill="#00B140"></path>
                <path d="M75.1384963,21.1634595 C75.1384963,21.1634595 74.7786189,20.6095135 74.0849421,20.6197479 C73.3625794,20.6302703 73.0718089,21.108973 73.0718089,21.108973 L61.9534217,35.3143784 C61.0524242,36.299027 60.0836237,35.5076757 60.0836237,35.5076757 C59.2139199,34.6021622 59.9271552,33.7641081 59.9271552,33.7641081 L62.4202192,30.5779459 L62.4215231,30.5610811 C62.6314516,30.3444324 62.761842,30.0486486 62.761842,29.723027 C62.761842,29.4259459 62.6523141,29.1522162 62.4723754,28.9433514 L62.4723754,28.9368649 L59.9962621,25.8142703 L52.1702319,35.796973 L56.5330938,41.2923243 L63.3903236,41.3091892 L77.1804096,23.7619459 L75.1384963,21.1634595 Z" id="Fill-34" fill="#00B140"></path>
                <path d="M75.7133875,29.7244541 L78.8688345,33.7642378 C79.5964128,34.7670486 78.6784646,35.5078054 78.6784646,35.5078054 C77.467138,36.3173189 76.7265207,35.1082378 76.7265207,35.1082378 L74.0848117,31.7702919 L71.0206379,35.6985081 L75.4408716,41.3261838 L82.2459452,41.3093189 L86.6088071,35.7452108 L78.7906003,25.8092108 L75.7133875,29.7244541 Z" id="Fill-35" fill="#00B140"></path>
                <path d="M86.5507834,20.6724324 C84.8061602,20.6724324 83.386209,22.067027 83.386209,23.7807568 C83.386209,25.4931892 84.8061602,26.8877838 86.5507834,26.8877838 C88.2954066,26.8877838 89.7153578,25.4931892 89.7153578,23.7807568 C89.7153578,22.067027 88.2954066,20.6724324 86.5507834,20.6724324 M86.5507834,25.4516757 C85.6328352,25.4516757 84.8870023,24.7018378 84.8870023,23.7807568 C84.8870023,22.8583784 85.6328352,22.1085405 86.5507834,22.1085405 C87.4687317,22.1085405 88.2145646,22.8583784 88.2145646,23.7807568 C88.2145646,24.7018378 87.4687317,25.4516757 86.5507834,25.4516757" id="Fill-36" fill="#00B140"></path>
                <path d="M69.3791535,6.21535135 C71.1237767,6.21535135 72.5437279,4.82075676 72.5437279,3.10702703 C72.5437279,1.39459459 71.1237767,-1.28785871e-14 69.3791535,-1.28785871e-14 C67.6345303,-1.28785871e-14 66.2145791,1.39459459 66.2145791,3.10702703 C66.2145791,4.82075676 67.6345303,6.21535135 69.3791535,6.21535135 M69.3791535,1.43740541 C70.2971017,1.43740541 71.0429347,2.18594595 71.0429347,3.10702703 C71.0429347,4.02940541 70.2971017,4.77924324 69.3791535,4.77924324 C68.4612052,4.77924324 67.7153723,4.02940541 67.7153723,3.10702703 C67.7153723,2.18594595 68.4612052,1.43740541 69.3791535,1.43740541" id="Fill-37" fill="#00B140"></path>
                <path d="M55.3259397,23.7688216 C55.3259397,22.0550919 53.9059885,20.6604973 52.1626692,20.6604973 C50.4167421,20.6604973 48.9967909,22.0550919 48.9967909,23.7688216 C48.9967909,25.4812541 50.4167421,26.8758486 52.1626692,26.8758486 C53.9059885,26.8758486 55.3259397,25.4812541 55.3259397,23.7688216 M50.4975842,23.7688216 C50.4975842,22.8477405 51.244721,22.0979027 52.1626692,22.0979027 C53.0793136,22.0979027 53.8264504,22.8477405 53.8264504,23.7688216 C53.8264504,24.6899027 53.0793136,25.4397405 52.1626692,25.4397405 C51.244721,25.4397405 50.4975842,24.6899027 50.4975842,23.7688216" id="Fill-38" fill="#00B140"></path>
                <path d="M35.4687896,3.96908108 L35.4687896,27.2075676 C35.4687896,30.0227027 34.5782234,32.6237838 32.8231689,34.9342703 C31.3927865,36.8179459 29.3860787,38.5238919 26.8578093,40.0041081 C22.9891269,42.2717838 19.0578571,43.3161081 18.1764182,43.5327568 C17.298891,43.3174054 13.4002188,42.2847568 9.53284026,40.0261622 C6.99544358,38.5446486 4.9809123,36.8374054 3.54401037,34.9524324 C1.77982861,32.6367568 0.885350641,30.0304865 0.885350641,27.2075676 L0.885350641,3.96908108 L35.4687896,3.96908108 Z M36.3528364,3.08951351 L4.97379915e-14,3.08951351 L4.97379915e-14,27.2075676 C4.97379915e-14,40.4464865 18.1685948,44.4343784 18.1685948,44.4343784 L18.1855455,44.4343784 C18.1855455,44.4343784 36.3528364,40.4464865 36.3528364,27.2075676 L36.3528364,3.08951351 Z" id="Fill-40" fill="#898D8D"></path>
                <path d="M22.5799619,10.8090811 L22.5799619,8.5932973 L20.2903069,8.5932973 L20.2903069,10.6611892 L19.395829,10.6611892 L19.395829,8.5932973 L17.0370671,8.5932973 L17.0370671,10.6611892 L16.1425891,10.6611892 L16.1425891,8.5932973 L13.8151209,8.5932973 L13.8151209,10.8103784 L14.9508211,12.7524324 C14.9899382,12.8211892 15.0108007,12.8977297 15.0108007,12.9755676 L15.0212319,23.1191351 L16.1217267,23.1191351 L16.1099915,19.4763243 C16.1099915,18.6162162 17.0931349,17.8365405 18.1714633,17.8365405 C19.2510956,17.8365405 20.2329352,18.6162162 20.2329352,19.475027 L20.2433664,23.1191351 L21.3738509,23.1191351 L21.3699392,19.2726486 C21.3686353,19.2557838 21.3673314,19.2376216 21.3673314,19.2194595 L21.3673314,17.3124324 C21.3673314,17.3020541 21.3673314,17.292973 21.3686353,17.2838919 L21.3673314,15.8944865 C21.3673314,15.8918919 21.3673314,15.8905946 21.3673314,15.888 L21.3673314,15.2821622 L21.3647236,12.9768649 C21.3647236,12.8977297 21.3855861,12.8185946 21.427311,12.7498378 L22.5799619,10.8090811 Z" id="Fill-41" fill="#898D8D"></path>
                <path d="M14.1262324,23.3557622 L14.1236246,19.9944649 L13.7168066,20.2370595 C13.5668577,20.3278703 13.3790955,20.3213838 13.2343622,20.2227892 L12.7427905,19.8893838 C12.7440944,19.9036541 12.7453983,19.9179243 12.7440944,19.9321946 L12.7284476,21.2268973 C12.7258398,21.3631135 12.6619485,21.4889514 12.5563323,21.5719784 C12.6071845,21.5875459 12.6554289,21.6134919 12.6984578,21.6472216 C13.2943418,22.1220324 13.3386745,22.8018162 13.209588,23.3557622 L14.1262324,23.3557622 Z" id="Fill-42" fill="#898D8D"></path>
                <path d="M18.1715937,18.7253189 C17.4857404,18.7253189 17.0045999,19.2118054 17.0045999,19.4751568 L17.016335,23.1192649 L19.3503227,23.1192649 L19.3398915,19.4764541 C19.3398915,19.2118054 18.8574471,18.7253189 18.1715937,18.7253189" id="Fill-43" fill="#898D8D"></path>
                <path d="M4.54436532,23.3557622 C4.41788666,23.0755459 4.32270169,22.7343568 4.25881041,22.3334919 C4.14537078,21.6316541 4.16884105,20.9856 4.16884105,20.9583568 C4.17666447,20.7702486 4.30314313,20.6054919 4.48438575,20.5497081 L5.46231356,20.2500324 L4.35790709,19.4729514 C4.24055575,19.388627 4.16884105,19.2537081 4.16884105,19.1097081 L4.16884105,17.8772757 C4.16884105,17.7112216 4.26272212,17.5594378 4.41006324,17.4828973 L4.84165538,17.2597622 L4.84165538,16.8407351 L4.44787645,16.6811676 C4.27967287,16.6150054 4.16884105,16.4515459 4.16884105,16.2712216 L4.16753714,14.7884108 C4.16753714,14.5445189 4.36573051,14.3460324 4.60956051,14.3434378 L5.99039458,14.3304649 C5.9656204,13.9672216 5.95779698,13.4703568 6.04646244,13.0591135 C6.16772548,12.5038703 6.48457409,11.900627 6.63582693,11.6307892 L6.56280832,11.1170595 C6.54455367,10.9899243 6.58236688,10.8614919 6.66712062,10.7628973 C6.75317827,10.6668973 6.87704912,10.6098162 7.00613559,10.6098162 L7.74936072,10.6098162 C7.83411447,10.6098162 7.91756431,10.6344649 7.98927901,10.6798703 L9.80692083,11.8266811 L10.6427231,11.8266811 C10.7652901,11.8266811 10.8813375,11.8746811 10.9660913,11.9628973 C11.050845,12.0511135 11.0951777,12.1691676 11.0899621,12.2911135 L11.0273747,13.7155459 C11.0208552,13.8361946 10.9673952,13.9464649 10.8813375,14.0256 L11.4368005,14.0268973 C11.5580636,14.0268973 11.674111,14.0761946 11.7588647,14.1631135 L12.0118221,14.4251676 L12.2047998,14.278573 L12.526864,13.6013838 C12.6011866,13.4470054 12.7589589,13.3484108 12.9310742,13.3484108 L14.1176266,13.3484108 L14.1176266,13.0967351 L12.9819264,11.1546811 C12.9415054,11.0859243 12.920643,11.0093838 12.920643,10.9302486 L12.920643,8.14884324 C12.920643,7.90365405 13.1214441,7.70516757 13.3691859,7.70516757 L16.1425891,7.70516757 L17.0370671,7.70516757 L19.395829,7.70516757 L20.2903069,7.70516757 L23.0272009,7.70516757 C23.2736387,7.70516757 23.4744399,7.90365405 23.4744399,8.14884324 L23.4744399,10.9302486 C23.4744399,11.0106811 23.4522735,11.0885189 23.4118525,11.1572757 L22.2592016,13.0980324 L22.2592016,13.3484108 L23.4366267,13.3484108 C23.608742,13.3484108 23.7665143,13.4470054 23.8395329,13.6013838 L24.162901,14.278573 L24.3545749,14.4251676 L24.6088361,14.1631135 C24.6935899,14.0761946 24.8083334,14.0268973 24.9295964,14.0268973 L25.4850594,14.0256 C25.4003057,13.9464649 25.3455417,13.8361946 25.3403261,13.7155459 L25.2777387,12.2911135 C25.2712192,12.1691676 25.3168559,12.0511135 25.4003057,11.9628973 C25.4850594,11.8746811 25.6011069,11.8266811 25.7236738,11.8266811 L26.56078,11.8266811 L28.3784218,10.6798703 C28.4501365,10.6344649 28.5322825,10.6098162 28.6170362,10.6098162 L29.3615653,10.6098162 C29.4906517,10.6098162 29.6145226,10.6668973 29.6992763,10.7628973 C29.7840301,10.8614919 29.8218433,10.9899243 29.8035886,11.1170595 L29.73057,11.6307892 C29.8831268,11.900627 30.1999754,12.5038703 30.3199345,13.0591135 C30.4086,13.4703568 30.4020805,13.9672216 30.3773063,14.3304649 L31.7568364,14.3434378 C32.0019703,14.3460324 32.2001637,14.5445189 32.2001637,14.7884108 L32.1975559,16.2712216 C32.1975559,16.4515459 32.088028,16.6150054 31.9185205,16.6811676 L31.5260455,16.8407351 L31.5260455,17.2597622 L31.9563337,17.4828973 C32.1049787,17.5594378 32.1975559,17.7112216 32.1975559,17.8772757 L32.1975559,19.1097081 C32.1975559,19.2537081 32.1271451,19.388627 32.0084899,19.4729514 L30.9053873,20.2500324 L31.8833151,20.5497081 C32.0632538,20.6054919 32.1897325,20.7702486 32.1975559,20.9583568 C32.1975559,20.9856 32.2210262,21.6316541 32.1088905,22.3334919 C32.0449992,22.7343568 31.9498142,23.0755459 31.8220316,23.3557622 L33.4493035,23.3557622 C33.455823,23.3557622 33.4623425,23.3570595 33.470166,23.3570595 L33.470166,6.16657297 L2.92491688,6.16657297 L2.92491688,23.3557622 L4.54436532,23.3557622 Z" id="Fill-44" fill="#898D8D"></path>
                <path d="M23.6687215,21.6473514 C23.7117503,21.6136216 23.7599948,21.588973 23.810847,21.5708108 C23.7052308,21.4890811 23.6413395,21.3632432 23.6387317,21.227027 L23.621781,19.9323243 C23.621781,19.9180541 23.621781,19.9037838 23.6230849,19.8895135 L23.1328171,20.2229189 C22.9893877,20.3215135 22.8003216,20.3267027 22.6503727,20.2371892 L22.2644172,20.0075676 L22.2683289,23.3558919 L23.1562874,23.3558919 C23.0298087,22.8019459 23.0728375,22.1221622 23.6687215,21.6473514" id="Fill-45" fill="#898D8D"></path>
                <path d="M29.606308,32.5476324 C29.3598702,32.5476324 29.159069,32.3491459 29.159069,32.1026595 L29.159069,29.1967135 C29.159069,28.9800649 29.0286786,28.7115243 28.8252697,28.5130378 C28.6557622,28.3469838 28.359776,28.1472 27.9073214,28.1575784 C27.2214681,28.1692541 26.8094345,28.6959568 26.7533666,29.2187676 L26.7533666,32.1026595 C26.7533666,32.2207135 26.7051222,32.3335784 26.6216723,32.4179027 C26.5382225,32.5009297 26.4247829,32.5476324 26.3061276,32.5476324 L23.6487718,32.5476324 C23.4010301,32.5476324 23.2015328,32.3491459 23.2015328,32.1026595 L23.2015328,29.1967135 C23.2015328,28.9800649 23.0698385,28.7115243 22.8677335,28.5130378 C22.698226,28.3469838 22.4009359,28.1472 21.9497852,28.1575784 C21.6498874,28.1627676 21.3812832,28.2704432 21.1739625,28.4637405 L23.3580013,39.5478486 C26.4326063,38.1934703 30.0731055,35.9815784 32.0393924,32.5476324 L29.606308,32.5476324 Z" id="Fill-46" fill="#898D8D"></path>
                <path d="M19.430904,24.2454486 L16.93784,24.2454486 L13.8710584,39.8311784 C13.8658428,39.8519351 13.8606272,39.8739892 13.8528038,39.8934486 C15.9846864,40.7639351 17.7149666,41.2063135 18.197411,41.3568 C18.6876788,41.2037189 20.4075279,40.7639351 22.5237636,39.9025297 C22.5146363,39.8778811 22.5068129,39.8519351 22.5015973,39.8246919 L19.430904,24.2454486 Z" id="Fill-47" fill="#898D8D"></path>
                <path d="M15.1996059,28.4493405 C14.9935891,28.2664216 14.7302006,28.1639351 14.43943,28.1587459 C14.4329105,28.1587459 14.4237832,28.1587459 14.4159598,28.1587459 C13.979152,28.1587459 13.6896854,28.3507459 13.5227857,28.5155027 C13.3193767,28.7139892 13.1889864,28.9812324 13.1889864,29.1978811 L13.1889864,32.1051243 C13.1889864,32.3503135 12.9881852,32.5500973 12.7417474,32.5500973 L10.0843915,32.5500973 C9.96573631,32.5500973 9.85099278,32.5033946 9.76884684,32.4203676 C9.685397,32.3360432 9.63715256,32.2231784 9.63715256,32.1051243 L9.63715256,29.2199351 C9.5797808,28.6971243 9.16905112,28.1704216 8.48319775,28.1587459 C8.47537433,28.1587459 8.46755091,28.1587459 8.45842358,28.1587459 C8.02161583,28.1587459 7.7321492,28.3507459 7.56524952,28.5155027 C7.36184053,28.7139892 7.23145016,28.9812324 7.23145016,29.1978811 L7.23145016,32.1051243 C7.23145016,32.3503135 7.03064898,32.5500973 6.78421117,32.5500973 L4.36025412,32.5500973 C6.32132535,35.9723676 9.95008946,38.1816649 13.0168711,39.5386378 L15.1996059,28.4493405 Z" id="Fill-48" fill="#898D8D"></path>
                <path d="M33.4491731,24.2450595 L20.3410288,24.2450595 L20.9851572,27.5116541 C21.27332,27.358573 21.5966881,27.2729514 21.9357031,27.2677622 C22.5237636,27.2573838 23.0818344,27.4753297 23.4951719,27.8800865 C23.8720001,28.2472216 24.0962716,28.7401946 24.0962716,29.1955459 L24.0962716,31.6578162 L25.8591494,31.6578162 L25.8591494,29.1955459 C25.8591494,29.182573 25.8591494,29.1683027 25.8604533,29.1540324 C25.9582461,28.0954378 26.8331655,27.284627 27.8919354,27.2677622 C28.4878194,27.2573838 29.0393706,27.4753297 29.4527081,27.8800865 C29.8295363,28.2472216 30.0538078,28.7401946 30.0538078,29.1955459 L30.0538078,31.6578162 L32.4960195,31.6578162 C33.1075503,30.3241946 33.4700356,28.8219243 33.4700356,27.1328432 L33.4700356,24.2437622 C33.4622121,24.2437622 33.4556926,24.2450595 33.4491731,24.2450595" id="Fill-49" fill="#898D8D"></path>
                <path d="M6.33723297,31.6596324 L6.33723297,29.1986595 C6.33723297,28.7407135 6.56150442,28.2490378 6.93702869,27.8806054 C7.35036618,27.4771459 7.90582917,27.2604973 8.49780147,27.2682811 C9.55657131,27.2864432 10.4314907,28.0972541 10.5292835,29.1558486 C10.5305874,29.1701189 10.5318913,29.1843892 10.5318913,29.1986595 L10.5318913,31.6596324 L12.2947692,31.6596324 L12.2947692,29.1986595 C12.2947692,28.7407135 12.5190406,28.2490378 12.8945649,27.8806054 C13.3079024,27.4771459 13.8633654,27.2604973 14.4553377,27.2682811 C14.7852253,27.2747676 15.1033778,27.3564973 15.385021,27.5043892 L16.0265417,24.2455784 L2.92622078,24.2455784 L2.92622078,27.1320649 C2.92622078,28.8224432 3.29000992,30.3247135 3.90154078,31.6596324 L6.33723297,31.6596324 Z" id="Fill-50" fill="#898D8D"></path>
                <path d="M7.38830978,22.4392216 L8.11328026,22.4392216 C8.16934812,22.5287351 8.20064181,22.6312216 8.21498475,22.7376 C8.21759256,22.7972757 8.22150427,22.8582486 8.22671989,22.9192216 C8.22541598,23.0748973 8.198034,23.2292757 8.16543641,23.3564108 L5.62673582,23.3564108 C5.26033887,23.1073297 5.07648844,22.1174919 5.0608416,21.3040865 L6.17176759,20.9628973 C6.35952973,20.9045189 6.48731229,20.7319784 6.48731229,20.5373838 L6.48731229,20.1118703 C6.48731229,19.966573 6.41690149,19.8316541 6.29824625,19.748627 L5.06475331,18.8794378 L5.06475331,18.1477622 L5.49504154,17.924627 C5.64238267,17.8480865 5.73495983,17.6950054 5.73495983,17.5302486 L5.73495983,16.5417081 C5.73495983,16.3587892 5.62412801,16.196627 5.45592443,16.1278703 L5.0634494,15.9708973 L5.0621455,15.2288432 L6.23435497,15.2184649 L6.79112186,16.126573 L6.79503358,17.3927351 L6.41168588,18.5940324 C6.36996096,18.7302486 6.39343122,18.8768432 6.47818497,18.9923027 C6.56163481,19.1064649 6.69724079,19.1739243 6.8393663,19.1739243 L7.17707737,19.1739243 C7.3961332,19.1739243 7.58259144,19.0156541 7.61779684,18.8003027 C7.65039443,18.6031135 7.75731454,18.0348973 7.85641122,17.7793297 C7.93334154,17.5808432 8.25279796,17.1540324 8.45359914,16.9153297 C8.59442074,16.7479784 8.59181293,16.5027892 8.44838352,16.3367351 L6.91108101,14.5814919 C6.88109122,14.3168432 6.82632727,13.6902486 6.92151224,13.246573 C7.02582454,12.7639784 7.3622317,12.1503568 7.48219085,11.9544649 C7.53695481,11.8662486 7.55781727,11.7624649 7.54347432,11.6586811 L7.52130796,11.4991135 L7.62040464,11.4991135 L9.43804646,12.6472216 C9.50976117,12.6913297 9.5919071,12.7159784 9.67796475,12.7159784 L10.176056,12.7159784 L10.1460662,13.3801946 L9.56061341,13.5916541 C9.3819786,13.6552216 9.26462726,13.8238703 9.26462726,14.0119784 L9.26853898,14.468627 C9.26984288,14.7138162 9.46934015,14.9110054 9.71447406,14.9110054 L11.2452571,14.9161946 L11.6455555,15.3287351 C11.8033279,15.4921946 12.058893,15.5103568 12.2388317,15.3728432 C12.2388317,15.3728432 12.9338124,14.8214919 12.9651061,14.7579243 L13.2128478,14.2377081 L14.1060219,14.2377081 L14.1060219,15.2833297 L14.1060219,15.8567351 C14.1060219,15.8567351 12.4735344,16.4132757 12.3379284,16.4794378 C12.2323122,16.532627 12.1736365,17.0346811 12.1931951,17.156627 C12.2114497,17.2772757 12.2049302,17.3252757 12.3809572,17.4550054 C12.3809572,17.4550054 12.8555782,17.8260324 13.0003115,17.8779243 L13.4749325,17.4277622 L14.1034141,17.4692757 L14.1021102,18.9702486 L13.5023144,19.3270054 L11.6273008,18.0504649 C11.4330192,17.9181405 11.1670228,17.9583568 11.0222895,18.1438703 L10.7289112,18.5174919 C10.5867857,18.6991135 10.6063442,18.958573 10.7745478,19.1168432 L11.8476606,20.1170595 L11.8372293,20.9304649 L10.7602049,21.406573 C10.5998247,21.476627 10.4955124,21.6374919 10.4955124,21.812627 L10.4955124,21.9942486 C10.4955124,22.2407351 10.6950097,22.4392216 10.9427514,22.4392216 L12.2375278,22.4392216 C12.4617992,22.7155459 12.3731338,23.1073297 12.2792527,23.3564108 L9.29461705,23.3564108 C9.19291256,23.2500324 9.14075641,23.0632216 9.11989395,22.8530595 C9.11859005,22.7972757 9.11467833,22.7388973 9.10946272,22.6818162 C9.1016393,22.3990054 9.1381486,22.1071135 9.17596181,21.9410595 L9.87094251,21.0563027 C9.92831427,20.9823568 9.96091186,20.8954378 9.96482357,20.8033297 L9.98568603,20.3791135 C9.99350946,20.2260324 9.92179475,20.0820324 9.79661999,19.9938162 C9.67144523,19.9068973 9.51106507,19.8874378 9.37024347,19.9458162 L8.24888625,20.4011676 C8.10284903,20.4608432 7.99853673,20.5918703 7.97637037,20.7475459 L7.90987128,21.1925189 L7.25922331,21.3884108 C7.07015727,21.4441946 6.94107079,21.6180324 6.94107079,21.8139243 L6.94107079,21.9942486 C6.94107079,22.2407351 7.14187197,22.4392216 7.38830978,22.4392216" id="Fill-51" fill="#898D8D"></path>
                <path d="M28.9791303,22.4392216 L28.2541598,22.4392216 C28.198092,22.5287351 28.1667983,22.6312216 28.1511514,22.7376 C28.1498475,22.7972757 28.1459358,22.8582486 28.1407202,22.9192216 C28.1420241,23.0748973 28.1694061,23.2292757 28.2006998,23.3564108 L30.7407043,23.3564108 C31.1071012,23.1073297 31.2896477,22.1174919 31.3065985,21.3040865 L30.1956725,20.9628973 C30.0079103,20.9045189 29.8788239,20.7319784 29.8788239,20.5373838 L29.8788239,20.1118703 C29.8788239,19.966573 29.9505386,19.8316541 30.0678899,19.748627 L31.3026868,18.8794378 L31.3026868,18.1477622 L30.8723985,17.924627 C30.7250574,17.8480865 30.6311763,17.6950054 30.6311763,17.5302486 L30.6311763,16.5417081 C30.6311763,16.3587892 30.7433121,16.196627 30.9102117,16.1278703 L31.3039907,15.9708973 L31.3039907,15.2288432 L30.1330851,15.2184649 L29.5763182,16.126573 L29.5724065,17.3927351 L29.9544503,18.5940324 C29.9974791,18.7302486 29.9727049,18.8768432 29.8892551,18.9923027 C29.8045014,19.1064649 29.6701993,19.1739243 29.5280738,19.1739243 L29.1903627,19.1739243 C28.9713069,19.1739243 28.7848486,19.0156541 28.7483393,18.8003027 C28.7157417,18.6031135 28.6101255,18.0348973 28.5097249,17.7793297 C28.4327946,17.5808432 28.1146421,17.1540324 27.9138409,16.9153297 C27.7730193,16.7479784 27.7743232,16.5027892 27.9190566,16.3367351 L29.4563591,14.5814919 C29.4863489,14.3168432 29.5411128,13.6902486 29.4459278,13.246573 C29.3416155,12.7639784 29.0052084,12.1503568 28.8852492,11.9544649 C28.8304853,11.8662486 28.8096228,11.7624649 28.8239658,11.6586811 L28.8461321,11.4991135 L28.7470354,11.4991135 L26.9293936,12.6472216 C26.8576789,12.6913297 26.7742291,12.7159784 26.6894753,12.7159784 L26.1913841,12.7159784 L26.2213739,13.3801946 L26.8068267,13.5916541 C26.9841576,13.6552216 27.1028128,13.8238703 27.1015089,14.0119784 L27.0989011,14.468627 C27.0975972,14.7138162 26.8980999,14.9110054 26.652966,14.9110054 L25.122183,14.9161946 L24.7218846,15.3287351 C24.5641122,15.4921946 24.3085471,15.5103568 24.1286084,15.3728432 C24.1286084,15.3728432 23.4323238,14.8214919 23.402334,14.7579243 L23.1532884,14.2377081 L22.2614182,14.2377081 L22.2614182,15.2833297 L22.2614182,15.8567351 C22.2614182,15.8567351 23.8939057,16.4132757 24.0282078,16.4794378 C24.1351279,16.532627 24.1938036,17.0346811 24.174245,17.156627 C24.1559904,17.2772757 24.1625099,17.3252757 23.9864829,17.4550054 C23.9864829,17.4550054 23.5118619,17.8260324 23.3658247,17.8779243 L22.8925076,17.4277622 L22.264026,17.4692757 L22.2653299,18.9702486 L22.8651256,19.3270054 L24.7401392,18.0504649 C24.9344209,17.9181405 25.2004172,17.9583568 25.3438467,18.1438703 L25.6385289,18.5174919 C25.7806544,18.6991135 25.7610959,18.958573 25.5915884,19.1168432 L24.5197795,20.1170595 L24.5302107,20.9304649 L25.6072352,21.406573 C25.7676154,21.476627 25.8719277,21.6374919 25.8719277,21.812627 L25.8719277,21.9942486 C25.8719277,22.2407351 25.6711265,22.4392216 25.4246887,22.4392216 L24.1299123,22.4392216 C23.9056408,22.7155459 23.9943063,23.1073297 24.0881874,23.3564108 L27.072823,23.3564108 C27.1745275,23.2500324 27.2266837,23.0632216 27.2475461,22.8530595 C27.24885,22.7972757 27.2527617,22.7388973 27.2579774,22.6818162 C27.2658008,22.3990054 27.2292915,22.1071135 27.1914783,21.9410595 L26.4964976,21.0563027 C26.4391258,20.9823568 26.4065282,20.8954378 26.4013126,20.8033297 L26.381754,20.3791135 C26.3739306,20.2260324 26.4456453,20.0820324 26.5708201,19.9938162 C26.6959948,19.9068973 26.856375,19.8874378 26.9971966,19.9458162 L28.1185538,20.4011676 C28.264591,20.4608432 28.3689033,20.5918703 28.3910697,20.7475459 L28.4575688,21.1925189 L29.1082168,21.3884108 C29.2972828,21.4441946 29.4263693,21.6180324 29.4263693,21.8139243 L29.4263693,21.9942486 C29.4263693,22.2407351 29.2255681,22.4392216 28.9791303,22.4392216" id="Fill-52" fill="#898D8D"></path>
                <path d="M99.2848378,18.4959568 L99.2848378,18.4790919 C99.2848378,16.7887135 100.532674,15.2916324 102.390736,15.2916324 C103.435163,15.2916324 104.0819,15.5913081 104.69995,16.110227 L104.248799,16.638227 C103.770267,16.2256865 103.240882,15.9337946 102.364658,15.9337946 C100.992952,15.9337946 100.011112,17.0870919 100.011112,18.4609297 L100.011112,18.4790919 C100.011112,19.9489297 100.957746,21.0399568 102.461147,21.0399568 C103.169167,21.0399568 103.823727,20.7675243 104.248799,20.4237405 L104.248799,18.8916324 L102.364658,18.8916324 L102.364658,18.2663351 L104.921614,18.2663351 L104.921614,20.7234162 C104.346592,21.2332541 103.479496,21.6652541 102.435069,21.6652541 C100.488341,21.6652541 99.2848378,20.2563892 99.2848378,18.4959568" id="Fill-53" fill="#898D8D"></path>
                <path d="M107.211399,18.4959568 L107.211399,18.4790919 C107.211399,16.7796324 108.49444,15.2916324 110.379885,15.2916324 C112.264026,15.2916324 113.530117,16.7614703 113.530117,18.4609297 L113.530117,18.4790919 C113.530117,20.1785514 112.247075,21.6652541 110.362934,21.6652541 C108.47749,21.6652541 107.211399,20.1954162 107.211399,18.4959568 M112.805146,18.4959568 L112.805146,18.4790919 C112.805146,17.0793081 111.77767,15.9337946 110.362934,15.9337946 C108.946895,15.9337946 107.937673,17.0611459 107.937673,18.4609297 L107.937673,18.4790919 C107.937673,19.8788757 108.963846,21.0230919 110.379885,21.0230919 C111.795925,21.0230919 112.805146,19.8970378 112.805146,18.4959568" id="Fill-54" fill="#898D8D"></path>
                <path d="M116.033873,15.3964541 L118.670366,15.3964541 C119.377082,15.3964541 119.936456,15.6001297 120.289814,15.9426162 C120.546683,16.2072649 120.687505,16.5328865 120.687505,16.9285622 L120.687505,16.9467243 C120.687505,17.7471568 120.192022,18.1609946 119.705665,18.3724541 C120.441067,18.5929946 121.033039,19.0159135 121.033039,19.8604541 L121.033039,19.8786162 C121.033039,20.9346162 120.139865,21.5599135 118.785109,21.5599135 L116.033873,21.5599135 L116.033873,15.3964541 Z M119.979485,17.0258595 C119.979485,16.4187243 119.493129,16.0217514 118.609082,16.0217514 L116.723638,16.0217514 L116.723638,18.1441297 L118.555622,18.1441297 C119.39664,18.1441297 119.979485,17.7653189 119.979485,17.0427243 L119.979485,17.0258595 Z M118.679493,18.7603459 L116.723638,18.7603459 L116.723638,20.9346162 L118.803364,20.9346162 C119.740871,20.9346162 120.32502,20.5207784 120.32502,19.8345081 L120.32502,19.8163459 C120.32502,19.1482378 119.759126,18.7603459 118.679493,18.7603459 L118.679493,18.7603459 Z" id="Fill-55" fill="#898D8D"></path>
                <polygon id="Fill-56" fill="#898D8D" points="123.532493 21.5604324 124.231385 21.5604324 124.231385 15.396973 123.532493 15.396973"></polygon>
                <polygon id="Fill-57" fill="#898D8D" points="127.061638 15.3964541 131.53794 15.3964541 131.53794 16.0308324 127.760531 16.0308324 127.760531 18.1350486 131.140249 18.1350486 131.140249 18.769427 127.760531 18.769427 127.760531 20.9255351 131.582273 20.9255351 131.582273 21.5599135 127.061638 21.5599135"></polygon>
                <path d="M133.902048,15.3964541 L136.564619,15.3964541 C137.326099,15.3964541 137.93763,15.6260757 138.326193,16.0126703 C138.627395,16.3123459 138.803422,16.7443459 138.803422,17.2282378 L138.803422,17.2464 C138.803422,18.2660757 138.095402,18.865427 137.12269,19.0418595 L139.025086,21.5599135 L138.167117,21.5599135 L136.371642,19.1638054 L134.60094,19.1638054 L134.60094,21.5599135 L133.902048,21.5599135 L133.902048,15.3964541 Z M136.503336,18.5398054 C137.431715,18.5398054 138.095402,18.0649946 138.095402,17.2723459 L138.095402,17.2541838 C138.095402,16.4978595 137.512557,16.0399135 136.511159,16.0399135 L134.60094,16.0399135 L134.60094,18.5398054 L136.503336,18.5398054 Z" id="Fill-58" fill="#898D8D"></path>
                <polygon id="Fill-59" fill="#898D8D" points="141.323738 15.3964541 141.978297 15.3964541 145.880881 20.3365622 145.880881 15.3964541 146.562823 15.3964541 146.562823 21.5599135 146.004752 21.5599135 142.004375 16.5069405 142.004375 21.5599135 141.323738 21.5599135"></polygon>
                <path d="M149.06371,18.4959568 L149.06371,18.4790919 C149.06371,16.7796324 150.346751,15.2916324 152.232196,15.2916324 C154.116337,15.2916324 155.382428,16.7614703 155.382428,18.4609297 L155.382428,18.4790919 C155.382428,20.1785514 154.099386,21.6652541 152.215246,21.6652541 C150.329801,21.6652541 149.06371,20.1954162 149.06371,18.4959568 M154.657457,18.4959568 L154.657457,18.4790919 C154.657457,17.0793081 153.629981,15.9337946 152.215246,15.9337946 C150.799206,15.9337946 149.789985,17.0611459 149.789985,18.4609297 L149.789985,18.4790919 C149.789985,19.8788757 150.816157,21.0230919 152.232196,21.0230919 C153.648236,21.0230919 154.657457,19.8970378 154.657457,18.4959568" id="Fill-60" fill="#898D8D"></path>
                <path d="M161.10826,15.3964541 L163.258398,15.3964541 C165.205126,15.3964541 166.549451,16.7261838 166.549451,18.4606703 L166.549451,18.4788324 C166.549451,20.2133189 165.205126,21.5599135 163.258398,21.5599135 L161.10826,21.5599135 L161.10826,15.3964541 Z M161.807153,16.0399135 L161.807153,20.9164541 L163.258398,20.9164541 C164.824386,20.9164541 165.82448,19.8604541 165.82448,18.4956973 L165.82448,18.4788324 C165.82448,17.1140757 164.824386,16.0399135 163.258398,16.0399135 L161.807153,16.0399135 Z" id="Fill-61" fill="#898D8D"></path>
                <polygon id="Fill-62" fill="#898D8D" points="168.771303 15.3964541 173.247604 15.3964541 173.247604 16.0308324 169.470195 16.0308324 169.470195 18.1350486 172.849913 18.1350486 172.849913 18.769427 169.470195 18.769427 169.470195 20.9255351 173.293241 20.9255351 173.293241 21.5599135 168.771303 21.5599135"></polygon>
                <polygon id="Fill-63" fill="#898D8D" points="178.859997 15.3964541 179.557585 15.3964541 179.557585 20.9164541 183.045528 20.9164541 183.045528 21.5599135 178.859997 21.5599135"></polygon>
                <path d="M187.336545,15.3528649 L187.991104,15.3528649 L190.814056,21.5604324 L190.063008,21.5604324 L189.336733,19.931027 L185.964838,19.931027 L185.23074,21.5604324 L184.513593,21.5604324 L187.336545,15.3528649 Z M189.061609,19.2979459 L187.654697,16.1636757 L186.239962,19.2979459 L189.061609,19.2979459 Z" id="Fill-64" fill="#898D8D"></path>
                <path d="M99.1524915,29.0617946 L99.1524915,29.0449297 C99.1524915,27.2922811 100.479866,25.8574703 102.382261,25.8574703 C103.550559,25.8574703 104.249451,26.2453622 104.824473,26.8083892 L103.957377,27.8034162 C103.478844,27.3714162 102.992488,27.1080649 102.373134,27.1080649 C101.328707,27.1080649 100.577658,27.9694703 100.577658,29.0267676 L100.577658,29.0449297 C100.577658,30.1009297 101.311756,30.9804973 102.373134,30.9804973 C103.081154,30.9804973 103.515353,30.6989838 104.00171,30.2592 L104.868806,31.1309838 C104.232501,31.8094703 103.524481,32.2310919 102.328801,32.2310919 C100.505944,32.2310919 99.1524915,30.8313081 99.1524915,29.0617946" id="Fill-65" fill="#898D8D"></path>
                <polygon id="Fill-66" fill="#898D8D" points="105.993683 32.1243243 107.356263 32.1243243 107.356263 25.9621622 105.993683 25.9621622"></polygon>
                <path d="M108.92851,29.484973 L108.92851,25.9628108 L110.291089,25.9628108 L110.291089,29.4499459 C110.291089,30.4527568 110.7957,30.9716757 111.627591,30.9716757 C112.459481,30.9716757 112.962788,30.4709189 112.962788,29.4927568 L112.962788,25.9628108 L114.326671,25.9628108 L114.326671,29.4408649 C114.326671,31.3076757 113.273117,32.2222703 111.609336,32.2222703 C109.946859,32.2222703 108.92851,31.2972973 108.92851,29.484973" id="Fill-67" fill="#898D8D"></path>
                <path d="M115.87597,25.9624216 L118.292103,25.9624216 C120.238832,25.9624216 121.583156,27.2921514 121.583156,29.0266378 L121.583156,29.0448 C121.583156,30.7779892 120.238832,32.1245838 118.292103,32.1245838 L115.87597,32.1245838 L115.87597,25.9624216 Z M118.292103,30.9025297 C119.406941,30.9025297 120.159294,30.1526919 120.159294,29.0616649 L120.159294,29.0448 C120.159294,27.9524757 119.406941,27.1870703 118.292103,27.1870703 L117.238549,27.1870703 L117.238549,30.9025297 L118.292103,30.9025297 Z" id="Fill-68" fill="#898D8D"></path>
                <path d="M124.602085,25.9187027 L125.859048,25.9187027 L128.513796,32.1262703 L127.088629,32.1262703 L126.522735,30.7433514 L123.903192,30.7433514 L123.337298,32.1262703 L121.947337,32.1262703 L124.602085,25.9187027 Z M126.036379,29.5459459 L125.213616,27.5468108 L124.389548,29.5459459 L126.036379,29.5459459 Z" id="Fill-69" fill="#898D8D"></path>
                <path d="M129.500069,25.9624216 L131.916202,25.9624216 C133.861627,25.9624216 135.207255,27.2921514 135.207255,29.0266378 L135.207255,29.0448 C135.207255,30.7779892 133.861627,32.1245838 131.916202,32.1245838 L129.500069,32.1245838 L129.500069,25.9624216 Z M131.916202,30.9025297 C133.03104,30.9025297 133.783393,30.1526919 133.783393,29.0616649 L133.783393,29.0448 C133.783393,27.9524757 133.03104,27.1870703 131.916202,27.1870703 L130.862648,27.1870703 L130.862648,30.9025297 L131.916202,30.9025297 Z" id="Fill-70" fill="#898D8D"></path>
                <path d="M139.16343,25.9624216 L141.579563,25.9624216 C143.526292,25.9624216 144.870617,27.2921514 144.870617,29.0266378 L144.870617,29.0448 C144.870617,30.7779892 143.526292,32.1245838 141.579563,32.1245838 L139.16343,32.1245838 L139.16343,25.9624216 Z M141.579563,30.9025297 C142.694401,30.9025297 143.446754,30.1526919 143.446754,29.0616649 L143.446754,29.0448 C143.446754,27.9524757 142.694401,27.1870703 141.579563,27.1870703 L140.526009,27.1870703 L140.526009,30.9025297 L141.579563,30.9025297 Z" id="Fill-71" fill="#898D8D"></path>
                <polygon id="Fill-72" fill="#898D8D" points="146.163698 25.9624216 150.835585 25.9624216 150.835585 27.1689081 147.51715 27.1689081 147.51715 28.4195027 150.437894 28.4195027 150.437894 29.6259892 147.51715 29.6259892 147.51715 30.9193946 150.879918 30.9193946 150.879918 32.1245838 146.163698 32.1245838"></polygon>
                <polygon id="Fill-73" fill="#898D8D" points="154.835831 25.9624216 156.304027 25.9624216 157.932603 28.5686919 159.561178 25.9624216 161.029374 25.9624216 161.029374 32.1245838 159.675922 32.1245838 159.675922 28.1016649 157.932603 30.7351784 157.897397 30.7351784 156.172333 28.1289081 156.172333 32.1245838 154.835831 32.1245838"></polygon>
                <path d="M162.65469,25.9624216 L167.326577,25.9624216 L167.326577,27.1689081 L164.008142,27.1689081 L164.008142,28.4195027 L166.927583,28.4195027 L166.927583,29.6259892 L164.008142,29.6259892 L164.008142,30.9193946 L167.37091,30.9193946 L167.37091,32.1245838 L162.65469,32.1245838 L162.65469,25.9624216 Z M165.246851,23.9204757 L166.406021,24.4225297 L165.274233,25.4785297 L164.246757,25.4785297 L165.246851,23.9204757 Z" id="Fill-74" fill="#898D8D"></path>
                <polygon id="Fill-75" fill="#898D8D" points="170.406267 28.9921297 168.335668 25.9629405 169.927735 25.9629405 171.229031 27.9620757 172.53815 25.9629405 174.087188 25.9629405 172.016589 28.9739676 174.175853 32.1264 172.582483 32.1264 171.193825 30.0131027 169.79604 32.1264 168.247003 32.1264"></polygon>
                <polygon id="Fill-76" fill="#898D8D" points="175.220541 32.1243243 176.58312 32.1243243 176.58312 25.9621622 175.220541 25.9621622"></polygon>
                <path d="M177.901106,29.0617946 L177.901106,29.0449297 C177.901106,27.2922811 179.22848,25.8574703 181.13218,25.8574703 C182.299173,25.8574703 182.99937,26.2453622 183.574391,26.8083892 L182.705991,27.8034162 C182.227459,27.3714162 181.741103,27.1080649 181.121748,27.1080649 C180.077321,27.1080649 179.326273,27.9694703 179.326273,29.0267676 L179.326273,29.0449297 C179.326273,30.1009297 180.060371,30.9804973 181.121748,30.9804973 C181.829768,30.9804973 182.263968,30.6989838 182.750324,30.2592 L183.61742,31.1309838 C182.981115,31.8094703 182.273095,32.2310919 181.07872,32.2310919 C179.254558,32.2310919 177.901106,30.8313081 177.901106,29.0617946" id="Fill-77" fill="#898D8D"></path>
                <path d="M184.260897,29.0617946 L184.260897,29.0449297 C184.260897,27.2922811 185.649554,25.8574703 187.561077,25.8574703 C189.473904,25.8574703 190.843003,27.2741189 190.843003,29.0267676 L190.843003,29.0449297 C190.843003,30.7962811 189.455649,32.2310919 187.544126,32.2310919 C185.632603,32.2310919 184.260897,30.8144432 184.260897,29.0617946 M189.420444,29.0617946 L189.420444,29.0449297 C189.420444,27.9876324 188.640709,27.1080649 187.544126,27.1080649 C186.446239,27.1080649 185.686063,27.9694703 185.686063,29.0267676 L185.686063,29.0449297 C185.686063,30.1009297 186.46319,30.9804973 187.561077,30.9804973 C188.658964,30.9804973 189.420444,30.1190919 189.420444,29.0617946" id="Fill-78" fill="#898D8D"></path>
                <path d="M69.3835867,41.3278703 C67.6389635,41.3278703 66.2190124,42.7224649 66.2190124,44.4361946 C66.2190124,46.148627 67.6389635,47.5432216 69.3835867,47.5432216 C71.12821,47.5432216 72.5468572,46.148627 72.5468572,44.4361946 C72.5468572,42.7224649 71.12821,41.3278703 69.3835867,41.3278703 M69.3835867,46.1058162 C68.4656385,46.1058162 67.7198056,45.3572757 67.7198056,44.4361946 C67.7198056,43.5138162 68.4656385,42.7639784 69.3835867,42.7639784 C70.3002311,42.7639784 71.0473679,43.5138162 71.0473679,44.4361946 C71.0473679,45.3572757 70.3002311,46.1058162 69.3835867,46.1058162" id="Fill-39" fill="#00B140"></path>
            </g>
            <path d="M213.997,22.59 C215.356,22.59 216.31,21.888 216.31,20.637 L216.31,20.619 C216.31,19.521 215.59,19.062 214.312,18.729 C213.223,18.45 212.953,18.315 212.953,17.901 L212.953,17.883 C212.953,17.577 213.232,17.334 213.763,17.334 C214.294,17.334 214.843,17.568 215.401,17.955 L216.121,16.911 C215.482,16.398 214.699,16.11 213.781,16.11 C212.494,16.11 211.576,16.866 211.576,18.009 L211.576,18.027 C211.576,19.278 212.395,19.629 213.664,19.953 C214.717,20.223 214.933,20.403 214.933,20.754 L214.933,20.772 C214.933,21.141 214.591,21.366 214.024,21.366 C213.304,21.366 212.71,21.069 212.143,20.601 L211.324,21.582 C212.08,22.257 213.043,22.59 213.997,22.59 Z M218.965,22.5 L218.965,16.2 L217.579,16.2 L217.579,22.5 L218.965,22.5 Z M222.781,22.59 C224.14,22.59 225.094,21.888 225.094,20.637 L225.094,20.619 C225.094,19.521 224.374,19.062 223.096,18.729 C222.007,18.45 221.737,18.315 221.737,17.901 L221.737,17.883 C221.737,17.577 222.016,17.334 222.547,17.334 C223.078,17.334 223.627,17.568 224.185,17.955 L224.905,16.911 C224.266,16.398 223.483,16.11 222.565,16.11 C221.278,16.11 220.36,16.866 220.36,18.009 L220.36,18.027 C220.36,19.278 221.179,19.629 222.448,19.953 C223.501,20.223 223.717,20.403 223.717,20.754 L223.717,20.772 C223.717,21.141 223.375,21.366 222.808,21.366 C222.088,21.366 221.494,21.069 220.927,20.601 L220.108,21.582 C220.864,22.257 221.827,22.59 222.781,22.59 Z M229.018,22.5 L229.018,17.478 L230.935,17.478 L230.935,16.2 L225.715,16.2 L225.715,17.478 L227.632,17.478 L227.632,22.5 L229.018,22.5 Z M236.794,22.5 L236.794,21.267 L233.374,21.267 L233.374,19.944 L236.344,19.944 L236.344,18.711 L233.374,18.711 L233.374,17.433 L236.749,17.433 L236.749,16.2 L231.997,16.2 L231.997,22.5 L236.794,22.5 Z M239.386,22.5 L239.386,18.414 L241.141,21.078 L241.177,21.078 L242.95,18.387 L242.95,22.5 L244.327,22.5 L244.327,16.2 L242.833,16.2 L241.177,18.864 L239.521,16.2 L238.027,16.2 L238.027,22.5 L239.386,22.5 Z M246.712,22.5 L247.288,21.087 L249.952,21.087 L250.528,22.5 L251.977,22.5 L249.277,16.155 L247.999,16.155 L245.299,22.5 L246.712,22.5 Z M249.457,19.863 L247.783,19.863 L248.62,17.82 L249.457,19.863 Z M258.106,22.5 C260.086,22.5 261.454,21.123 261.454,19.35 L261.454,19.332 C261.454,17.559 260.086,16.2 258.106,16.2 L255.649,16.2 L255.649,22.5 L258.106,22.5 Z M258.106,21.249 L257.035,21.249 L257.035,17.451 L258.106,17.451 C259.24,17.451 260.005,18.234 260.005,19.35 L260.005,19.368 C260.005,20.484 259.24,21.249 258.106,21.249 Z M267.484,22.5 L267.484,21.267 L264.064,21.267 L264.064,19.944 L267.034,19.944 L267.034,18.711 L264.064,18.711 L264.064,17.433 L267.439,17.433 L267.439,16.2 L262.687,16.2 L262.687,22.5 L267.484,22.5 Z M272.866,22.5 L272.866,16.2 L271.48,16.2 L271.48,22.5 L272.866,22.5 Z M275.809,22.5 L275.809,18.495 L278.86,22.5 L280.039,22.5 L280.039,16.2 L278.671,16.2 L278.671,20.079 L275.719,16.2 L274.441,16.2 L274.441,22.5 L275.809,22.5 Z M282.937,22.5 L282.937,20.061 L285.943,20.061 L285.943,18.801 L282.937,18.801 L282.937,17.46 L286.348,17.46 L286.348,16.2 L281.551,16.2 L281.551,22.5 L282.937,22.5 Z M290.515,22.608 C292.459,22.608 293.872,21.141 293.872,19.35 L293.872,19.332 C293.872,17.541 292.477,16.092 290.533,16.092 C288.589,16.092 287.176,17.559 287.176,19.35 L287.176,19.368 C287.176,21.159 288.571,22.608 290.515,22.608 Z M290.533,21.33 C289.417,21.33 288.625,20.43 288.625,19.35 L288.625,19.332 C288.625,18.252 289.399,17.37 290.515,17.37 C291.631,17.37 292.423,18.27 292.423,19.35 L292.423,19.368 C292.423,20.448 291.649,21.33 290.533,21.33 Z M296.491,22.5 L296.491,20.484 L297.58,20.484 L298.93,22.5 L300.55,22.5 L299.011,20.25 C299.812,19.953 300.361,19.314 300.361,18.297 L300.361,18.279 C300.361,17.685 300.172,17.19 299.821,16.839 C299.407,16.425 298.786,16.2 297.985,16.2 L295.105,16.2 L295.105,22.5 L296.491,22.5 Z M297.895,19.26 L296.491,19.26 L296.491,17.451 L297.868,17.451 C298.543,17.451 298.957,17.757 298.957,18.351 L298.957,18.369 C298.957,18.9 298.57,19.26 297.895,19.26 Z M302.971,22.5 L302.971,18.414 L304.726,21.078 L304.762,21.078 L306.535,18.387 L306.535,22.5 L307.912,22.5 L307.912,16.2 L306.418,16.2 L304.762,18.864 L303.106,16.2 L301.612,16.2 L301.612,22.5 L302.971,22.5 Z M310.297,22.5 L310.873,21.087 L313.537,21.087 L314.113,22.5 L315.562,22.5 L312.862,16.155 L311.584,16.155 L308.884,22.5 L310.297,22.5 Z M313.042,19.863 L311.368,19.863 L312.205,17.82 L313.042,19.863 Z M319.081,22.608 C320.296,22.608 321.016,22.176 321.664,21.483 L320.782,20.592 C320.287,21.042 319.846,21.33 319.126,21.33 C318.046,21.33 317.299,20.43 317.299,19.35 L317.299,19.332 C317.299,18.252 318.064,17.37 319.126,17.37 C319.756,17.37 320.251,17.64 320.737,18.081 L321.619,17.064 C321.034,16.488 320.323,16.092 319.135,16.092 C317.2,16.092 315.85,17.559 315.85,19.35 L315.85,19.368 C315.85,21.177 317.227,22.608 319.081,22.608 Z M324.22,22.5 L324.22,16.2 L322.834,16.2 L322.834,22.5 L324.22,22.5 Z M329.35,15.615 L330.574,14.715 L329.395,14.202 L328.306,15.615 L329.35,15.615 Z M328.855,22.608 C330.799,22.608 332.212,21.141 332.212,19.35 L332.212,19.332 C332.212,17.541 330.817,16.092 328.873,16.092 C326.929,16.092 325.516,17.559 325.516,19.35 L325.516,19.368 C325.516,21.159 326.911,22.608 328.855,22.608 Z M328.873,21.33 C327.757,21.33 326.965,20.43 326.965,19.35 L326.965,19.332 C326.965,18.252 327.739,17.37 328.855,17.37 C329.971,17.37 330.763,18.27 330.763,19.35 L330.763,19.368 C330.763,20.448 329.989,21.33 328.873,21.33 Z M334.813,22.5 L334.813,18.495 L337.864,22.5 L339.043,22.5 L339.043,16.2 L337.675,16.2 L337.675,20.079 L334.723,16.2 L333.445,16.2 L333.445,22.5 L334.813,22.5 Z M346.414,22.5 L346.414,19.989 L348.835,16.2 L347.26,16.2 L345.73,18.729 L344.227,16.2 L342.607,16.2 L345.028,20.016 L345.028,22.5 L346.414,22.5 Z M354.64,22.59 C355.999,22.59 356.953,21.888 356.953,20.637 L356.953,20.619 C356.953,19.521 356.233,19.062 354.955,18.729 C353.866,18.45 353.596,18.315 353.596,17.901 L353.596,17.883 C353.596,17.577 353.875,17.334 354.406,17.334 C354.937,17.334 355.486,17.568 356.044,17.955 L356.764,16.911 C356.125,16.398 355.342,16.11 354.424,16.11 C353.137,16.11 352.219,16.866 352.219,18.009 L352.219,18.027 C352.219,19.278 353.038,19.629 354.307,19.953 C355.36,20.223 355.576,20.403 355.576,20.754 L355.576,20.772 C355.576,21.141 355.234,21.366 354.667,21.366 C353.947,21.366 353.353,21.069 352.786,20.601 L351.967,21.582 C352.723,22.257 353.686,22.59 354.64,22.59 Z M362.956,22.5 L362.956,21.267 L359.536,21.267 L359.536,19.944 L362.506,19.944 L362.506,18.711 L359.536,18.711 L359.536,17.433 L362.911,17.433 L362.911,16.2 L358.159,16.2 L358.159,22.5 L362.956,22.5 Z M367.222,22.608 C368.374,22.608 369.265,22.158 369.913,21.609 L369.913,18.873 L367.177,18.873 L367.177,20.07 L368.572,20.07 L368.572,20.97 C368.221,21.222 367.771,21.348 367.267,21.348 C366.151,21.348 365.359,20.502 365.359,19.35 L365.359,19.332 C365.359,18.261 366.16,17.37 367.168,17.37 C367.897,17.37 368.329,17.604 368.815,18.009 L369.688,16.956 C369.031,16.398 368.347,16.092 367.213,16.092 C365.305,16.092 363.91,17.559 363.91,19.35 L363.91,19.368 C363.91,21.231 365.26,22.608 367.222,22.608 Z M373.873,22.599 C375.565,22.599 376.636,21.663 376.636,19.755 L376.636,16.2 L375.25,16.2 L375.25,19.809 C375.25,20.808 374.737,21.321 373.891,21.321 C373.045,21.321 372.532,20.79 372.532,19.764 L372.532,16.2 L371.146,16.2 L371.146,19.8 C371.146,21.654 372.181,22.599 373.873,22.599 Z M379.498,22.5 L379.498,16.2 L378.112,16.2 L378.112,22.5 L379.498,22.5 Z M382.432,22.5 L382.432,18.414 L384.187,21.078 L384.223,21.078 L385.996,18.387 L385.996,22.5 L387.373,22.5 L387.373,16.2 L385.879,16.2 L384.223,18.864 L382.567,16.2 L381.073,16.2 L381.073,22.5 L382.432,22.5 Z M390.334,22.5 L390.334,16.2 L388.948,16.2 L388.948,22.5 L390.334,22.5 Z M396.706,22.5 L396.706,21.267 L393.286,21.267 L393.286,19.944 L396.256,19.944 L396.256,18.711 L393.286,18.711 L393.286,17.433 L396.661,17.433 L396.661,16.2 L391.909,16.2 L391.909,22.5 L396.706,22.5 Z M399.307,22.5 L399.307,18.495 L402.358,22.5 L403.537,22.5 L403.537,16.2 L402.169,16.2 L402.169,20.079 L399.217,16.2 L397.939,16.2 L397.939,22.5 L399.307,22.5 Z M407.902,22.5 L407.902,17.478 L409.819,17.478 L409.819,16.2 L404.599,16.2 L404.599,17.478 L406.516,17.478 L406.516,22.5 L407.902,22.5 Z M413.671,22.608 C415.615,22.608 417.028,21.141 417.028,19.35 L417.028,19.332 C417.028,17.541 415.633,16.092 413.689,16.092 C411.745,16.092 410.332,17.559 410.332,19.35 L410.332,19.368 C410.332,21.159 411.727,22.608 413.671,22.608 Z M413.689,21.33 C412.573,21.33 411.781,20.43 411.781,19.35 L411.781,19.332 C411.781,18.252 412.555,17.37 413.671,17.37 C414.787,17.37 415.579,18.27 415.579,19.35 L415.579,19.368 C415.579,20.448 414.805,21.33 413.689,21.33 Z M423.418,22.5 C425.398,22.5 426.766,21.123 426.766,19.35 L426.766,19.332 C426.766,17.559 425.398,16.2 423.418,16.2 L420.961,16.2 L420.961,22.5 L423.418,22.5 Z M423.418,21.249 L422.347,21.249 L422.347,17.451 L423.418,17.451 C424.552,17.451 425.317,18.234 425.317,19.35 L425.317,19.368 C425.317,20.484 424.552,21.249 423.418,21.249 Z M432.796,22.5 L432.796,21.267 L429.376,21.267 L429.376,19.944 L432.346,19.944 L432.346,18.711 L429.376,18.711 L429.376,17.433 L432.751,17.433 L432.751,16.2 L427.999,16.2 L427.999,22.5 L432.796,22.5 Z M438.556,22.5 L438.556,21.24 L435.415,21.24 L435.415,16.2 L434.029,16.2 L434.029,22.5 L438.556,22.5 Z M443.749,22.5 L443.749,16.2 L442.363,16.2 L442.363,22.5 L443.749,22.5 Z M446.692,22.5 L446.692,18.495 L449.743,22.5 L450.922,22.5 L450.922,16.2 L449.554,16.2 L449.554,20.079 L446.602,16.2 L445.324,16.2 L445.324,22.5 L446.692,22.5 Z M454.675,22.59 C456.034,22.59 456.988,21.888 456.988,20.637 L456.988,20.619 C456.988,19.521 456.268,19.062 454.99,18.729 C453.901,18.45 453.631,18.315 453.631,17.901 L453.631,17.883 C453.631,17.577 453.91,17.334 454.441,17.334 C454.972,17.334 455.521,17.568 456.079,17.955 L456.799,16.911 C456.16,16.398 455.377,16.11 454.459,16.11 C453.172,16.11 452.254,16.866 452.254,18.009 L452.254,18.027 C452.254,19.278 453.073,19.629 454.342,19.953 C455.395,20.223 455.611,20.403 455.611,20.754 L455.611,20.772 C455.611,21.141 455.269,21.366 454.702,21.366 C453.982,21.366 453.388,21.069 452.821,20.601 L452.002,21.582 C452.758,22.257 453.721,22.59 454.675,22.59 Z M460.912,22.5 L460.912,17.478 L462.829,17.478 L462.829,16.2 L457.609,16.2 L457.609,17.478 L459.526,17.478 L459.526,22.5 L460.912,22.5 Z M465.34,22.5 L465.34,16.2 L463.954,16.2 L463.954,22.5 L465.34,22.5 Z M469.768,22.5 L469.768,17.478 L471.685,17.478 L471.685,16.2 L466.465,16.2 L466.465,17.478 L468.382,17.478 L468.382,22.5 L469.768,22.5 Z M475.375,22.599 C477.067,22.599 478.138,21.663 478.138,19.755 L478.138,16.2 L476.752,16.2 L476.752,19.809 C476.752,20.808 476.239,21.321 475.393,21.321 C474.547,21.321 474.034,20.79 474.034,19.764 L474.034,16.2 L472.648,16.2 L472.648,19.8 C472.648,21.654 473.683,22.599 475.375,22.599 Z M482.404,22.5 L482.404,17.478 L484.321,17.478 L484.321,16.2 L479.101,16.2 L479.101,17.478 L481.018,17.478 L481.018,22.5 L482.404,22.5 Z M488.173,22.608 C490.117,22.608 491.53,21.141 491.53,19.35 L491.53,19.332 C491.53,17.541 490.135,16.092 488.191,16.092 C486.247,16.092 484.834,17.559 484.834,19.35 L484.834,19.368 C484.834,21.159 486.229,22.608 488.173,22.608 Z M488.191,21.33 C487.075,21.33 486.283,20.43 486.283,19.35 L486.283,19.332 C486.283,18.252 487.057,17.37 488.173,17.37 C489.289,17.37 490.081,18.27 490.081,19.35 L490.081,19.368 C490.081,20.448 489.307,21.33 488.191,21.33 Z M214.213,33 C216.193,33 217.561,31.623 217.561,29.85 L217.561,29.832 C217.561,28.059 216.193,26.7 214.213,26.7 L211.756,26.7 L211.756,33 L214.213,33 Z M214.213,31.749 L213.142,31.749 L213.142,27.951 L214.213,27.951 C215.347,27.951 216.112,28.734 216.112,29.85 L216.112,29.868 C216.112,30.984 215.347,31.749 214.213,31.749 Z M223.591,33 L223.591,31.767 L220.171,31.767 L220.171,30.444 L223.141,30.444 L223.141,29.211 L220.171,29.211 L220.171,27.933 L223.546,27.933 L223.546,26.7 L218.794,26.7 L218.794,33 L223.591,33 Z M228.91,33 L228.91,30.984 L229.999,30.984 L231.349,33 L232.969,33 L231.43,30.75 C232.231,30.453 232.78,29.814 232.78,28.797 L232.78,28.779 C232.78,28.185 232.591,27.69 232.24,27.339 C231.826,26.925 231.205,26.7 230.404,26.7 L227.524,26.7 L227.524,33 L228.91,33 Z M230.314,29.76 L228.91,29.76 L228.91,27.951 L230.287,27.951 C230.962,27.951 231.376,28.257 231.376,28.851 L231.376,28.869 C231.376,29.4 230.989,29.76 230.314,29.76 Z M238.828,33 L238.828,31.767 L235.408,31.767 L235.408,30.444 L238.378,30.444 L238.378,29.211 L235.408,29.211 L235.408,27.933 L238.783,27.933 L238.783,26.7 L234.031,26.7 L234.031,33 L238.828,33 Z M241.51,33 L241.51,26.7 L240.124,26.7 L240.124,33 L241.51,33 Z M244.453,33 L244.453,28.995 L247.504,33 L248.683,33 L248.683,26.7 L247.315,26.7 L247.315,30.579 L244.363,26.7 L243.085,26.7 L243.085,33 L244.453,33 Z M252.436,33.09 C253.795,33.09 254.749,32.388 254.749,31.137 L254.749,31.119 C254.749,30.021 254.029,29.562 252.751,29.229 C251.662,28.95 251.392,28.815 251.392,28.401 L251.392,28.383 C251.392,28.077 251.671,27.834 252.202,27.834 C252.733,27.834 253.282,28.068 253.84,28.455 L254.56,27.411 C253.921,26.898 253.138,26.61 252.22,26.61 C250.933,26.61 250.015,27.366 250.015,28.509 L250.015,28.527 C250.015,29.778 250.834,30.129 252.103,30.453 C253.156,30.723 253.372,30.903 253.372,31.254 L253.372,31.272 C253.372,31.641 253.03,31.866 252.463,31.866 C251.743,31.866 251.149,31.569 250.582,31.101 L249.763,32.082 C250.519,32.757 251.482,33.09 252.436,33.09 Z M260.752,33 L260.752,31.767 L257.332,31.767 L257.332,30.444 L260.302,30.444 L260.302,29.211 L257.332,29.211 L257.332,27.933 L260.707,27.933 L260.707,26.7 L255.955,26.7 L255.955,33 L260.752,33 Z M263.371,33 L263.371,30.984 L264.46,30.984 L265.81,33 L267.43,33 L265.891,30.75 C266.692,30.453 267.241,29.814 267.241,28.797 L267.241,28.779 C267.241,28.185 267.052,27.69 266.701,27.339 C266.287,26.925 265.666,26.7 264.865,26.7 L261.985,26.7 L261.985,33 L263.371,33 Z M264.775,29.76 L263.371,29.76 L263.371,27.951 L264.748,27.951 C265.423,27.951 265.837,28.257 265.837,28.851 L265.837,28.869 C265.837,29.4 265.45,29.76 264.775,29.76 Z M271.444,33.108 C272.659,33.108 273.379,32.676 274.027,31.983 L273.145,31.092 C272.65,31.542 272.209,31.83 271.489,31.83 C270.409,31.83 269.662,30.93 269.662,29.85 L269.662,29.832 C269.662,28.752 270.427,27.87 271.489,27.87 C272.119,27.87 272.614,28.14 273.1,28.581 L273.982,27.564 C273.397,26.988 272.686,26.592 271.498,26.592 C269.563,26.592 268.213,28.059 268.213,29.85 L268.213,29.868 C268.213,31.677 269.59,33.108 271.444,33.108 Z M276.583,33 L276.583,26.7 L275.197,26.7 L275.197,33 L276.583,33 Z M281.713,26.115 L282.937,25.215 L281.758,24.702 L280.669,26.115 L281.713,26.115 Z M281.218,33.108 C283.162,33.108 284.575,31.641 284.575,29.85 L284.575,29.832 C284.575,28.041 283.18,26.592 281.236,26.592 C279.292,26.592 277.879,28.059 277.879,29.85 L277.879,29.868 C277.879,31.659 279.274,33.108 281.218,33.108 Z M281.236,31.83 C280.12,31.83 279.328,30.93 279.328,29.85 L279.328,29.832 C279.328,28.752 280.102,27.87 281.218,27.87 C282.334,27.87 283.126,28.77 283.126,29.85 L283.126,29.868 C283.126,30.948 282.352,31.83 281.236,31.83 Z M287.176,33 L287.176,28.995 L290.227,33 L291.406,33 L291.406,26.7 L290.038,26.7 L290.038,30.579 L287.086,26.7 L285.808,26.7 L285.808,33 L287.176,33 Z M297.859,33.09 C299.218,33.09 300.172,32.388 300.172,31.137 L300.172,31.119 C300.172,30.021 299.452,29.562 298.174,29.229 C297.085,28.95 296.815,28.815 296.815,28.401 L296.815,28.383 C296.815,28.077 297.094,27.834 297.625,27.834 C298.156,27.834 298.705,28.068 299.263,28.455 L299.983,27.411 C299.344,26.898 298.561,26.61 297.643,26.61 C296.356,26.61 295.438,27.366 295.438,28.509 L295.438,28.527 C295.438,29.778 296.257,30.129 297.526,30.453 C298.579,30.723 298.795,30.903 298.795,31.254 L298.795,31.272 C298.795,31.641 298.453,31.866 297.886,31.866 C297.166,31.866 296.572,31.569 296.005,31.101 L295.186,32.082 C295.942,32.757 296.905,33.09 297.859,33.09 Z M304.438,33.108 C306.382,33.108 307.795,31.641 307.795,29.85 L307.795,29.832 C307.795,28.041 306.4,26.592 304.456,26.592 C302.512,26.592 301.099,28.059 301.099,29.85 L301.099,29.868 C301.099,31.659 302.494,33.108 304.438,33.108 Z M304.456,31.83 C303.34,31.83 302.548,30.93 302.548,29.85 L302.548,29.832 C302.548,28.752 303.322,27.87 304.438,27.87 C305.554,27.87 306.346,28.77 306.346,29.85 L306.346,29.868 C306.346,30.948 305.572,31.83 304.456,31.83 Z M311.98,33.108 C313.195,33.108 313.915,32.676 314.563,31.983 L313.681,31.092 C313.186,31.542 312.745,31.83 312.025,31.83 C310.945,31.83 310.198,30.93 310.198,29.85 L310.198,29.832 C310.198,28.752 310.963,27.87 312.025,27.87 C312.655,27.87 313.15,28.14 313.636,28.581 L314.518,27.564 C313.933,26.988 313.222,26.592 312.034,26.592 C310.099,26.592 308.749,28.059 308.749,29.85 L308.749,29.868 C308.749,31.677 310.126,33.108 311.98,33.108 Z M317.119,33 L317.119,26.7 L315.733,26.7 L315.733,33 L317.119,33 Z M319.567,33 L320.143,31.587 L322.807,31.587 L323.383,33 L324.832,33 L322.132,26.655 L320.854,26.655 L318.154,33 L319.567,33 Z M322.312,30.363 L320.638,30.363 L321.475,28.32 L322.312,30.363 Z M330.331,33 L330.331,31.74 L327.19,31.74 L327.19,26.7 L325.804,26.7 L325.804,33 L330.331,33 Z M336.532,33 C338.512,33 339.88,31.623 339.88,29.85 L339.88,29.832 C339.88,28.059 338.512,26.7 336.532,26.7 L334.075,26.7 L334.075,33 L336.532,33 Z M336.532,31.749 L335.461,31.749 L335.461,27.951 L336.532,27.951 C337.666,27.951 338.431,28.734 338.431,29.85 L338.431,29.868 C338.431,30.984 337.666,31.749 336.532,31.749 Z M345.91,33 L345.91,31.767 L342.49,31.767 L342.49,30.444 L345.46,30.444 L345.46,29.211 L342.49,29.211 L342.49,27.933 L345.865,27.933 L345.865,26.7 L341.113,26.7 L341.113,33 L345.91,33 Z M354.37,33 L354.37,31.74 L351.229,31.74 L351.229,26.7 L349.843,26.7 L349.843,33 L354.37,33 Z M356.287,33 L356.863,31.587 L359.527,31.587 L360.103,33 L361.552,33 L358.852,26.655 L357.574,26.655 L354.874,33 L356.287,33 Z M359.032,30.363 L357.358,30.363 L358.195,28.32 L359.032,30.363 Z M368.176,33.108 C369.391,33.108 370.111,32.676 370.759,31.983 L369.877,31.092 C369.382,31.542 368.941,31.83 368.221,31.83 C367.141,31.83 366.394,30.93 366.394,29.85 L366.394,29.832 C366.394,28.752 367.159,27.87 368.221,27.87 C368.851,27.87 369.346,28.14 369.832,28.581 L370.714,27.564 C370.129,26.988 369.418,26.592 368.23,26.592 C366.295,26.592 364.945,28.059 364.945,29.85 L364.945,29.868 C364.945,31.677 366.322,33.108 368.176,33.108 Z M373.315,33 L373.315,26.7 L371.929,26.7 L371.929,33 L373.315,33 Z M377.518,33.099 C379.21,33.099 380.281,32.163 380.281,30.255 L380.281,26.7 L378.895,26.7 L378.895,30.309 C378.895,31.308 378.382,31.821 377.536,31.821 C376.69,31.821 376.177,31.29 376.177,30.264 L376.177,26.7 L374.791,26.7 L374.791,30.3 C374.791,32.154 375.826,33.099 377.518,33.099 Z M384.151,33 C386.131,33 387.499,31.623 387.499,29.85 L387.499,29.832 C387.499,28.059 386.131,26.7 384.151,26.7 L381.694,26.7 L381.694,33 L384.151,33 Z M384.151,31.749 L383.08,31.749 L383.08,27.951 L384.151,27.951 C385.285,27.951 386.05,28.734 386.05,29.85 L386.05,29.868 C386.05,30.984 385.285,31.749 384.151,31.749 Z M389.155,33 L389.731,31.587 L392.395,31.587 L392.971,33 L394.42,33 L391.72,26.655 L390.442,26.655 L387.742,33 L389.155,33 Z M391.9,30.363 L390.226,30.363 L391.063,28.32 L391.9,30.363 Z M397.849,33 C399.829,33 401.197,31.623 401.197,29.85 L401.197,29.832 C401.197,28.059 399.829,26.7 397.849,26.7 L395.392,26.7 L395.392,33 L397.849,33 Z M397.849,31.749 L396.778,31.749 L396.778,27.951 L397.849,27.951 C398.983,27.951 399.748,28.734 399.748,29.85 L399.748,29.868 C399.748,30.984 398.983,31.749 397.849,31.749 Z M407.587,33 C409.567,33 410.935,31.623 410.935,29.85 L410.935,29.832 C410.935,28.059 409.567,26.7 407.587,26.7 L405.13,26.7 L405.13,33 L407.587,33 Z M407.587,31.749 L406.516,31.749 L406.516,27.951 L407.587,27.951 C408.721,27.951 409.486,28.734 409.486,29.85 L409.486,29.868 C409.486,30.984 408.721,31.749 407.587,31.749 Z M416.965,33 L416.965,31.767 L413.545,31.767 L413.545,30.444 L416.515,30.444 L416.515,29.211 L413.545,29.211 L413.545,27.933 L416.92,27.933 L416.92,26.7 L412.168,26.7 L412.168,33 L416.965,33 Z M422.257,33 L422.257,28.914 L424.012,31.578 L424.048,31.578 L425.821,28.887 L425.821,33 L427.198,33 L427.198,26.7 L425.704,26.7 L424.048,29.364 L422.392,26.7 L420.898,26.7 L420.898,33 L422.257,33 Z M431.59,26.205 L432.814,25.305 L431.635,24.792 L430.546,26.205 L431.59,26.205 Z M433.507,33 L433.507,31.767 L430.087,31.767 L430.087,30.444 L433.057,30.444 L433.057,29.211 L430.087,29.211 L430.087,27.933 L433.462,27.933 L433.462,26.7 L428.71,26.7 L428.71,33 L433.507,33 Z M435.838,33 L437.26,30.84 L438.673,33 L440.293,33 L438.097,29.778 L440.203,26.7 L438.628,26.7 L437.287,28.743 L435.973,26.7 L434.353,26.7 L436.459,29.796 L434.263,33 L435.838,33 Z M442.777,33 L442.777,26.7 L441.391,26.7 L441.391,33 L442.777,33 Z M447.304,33.108 C448.519,33.108 449.239,32.676 449.887,31.983 L449.005,31.092 C448.51,31.542 448.069,31.83 447.349,31.83 C446.269,31.83 445.522,30.93 445.522,29.85 L445.522,29.832 C445.522,28.752 446.287,27.87 447.349,27.87 C447.979,27.87 448.474,28.14 448.96,28.581 L449.842,27.564 C449.257,26.988 448.546,26.592 447.358,26.592 C445.423,26.592 444.073,28.059 444.073,29.85 L444.073,29.868 C444.073,31.677 445.45,33.108 447.304,33.108 Z M453.874,33.108 C455.818,33.108 457.231,31.641 457.231,29.85 L457.231,29.832 C457.231,28.041 455.836,26.592 453.892,26.592 C451.948,26.592 450.535,28.059 450.535,29.85 L450.535,29.868 C450.535,31.659 451.93,33.108 453.874,33.108 Z M453.892,31.83 C452.776,31.83 451.984,30.93 451.984,29.85 L451.984,29.832 C451.984,28.752 452.758,27.87 453.874,27.87 C454.99,27.87 455.782,28.77 455.782,29.85 L455.782,29.868 C455.782,30.948 455.008,31.83 453.892,31.83 Z" id="SISTEMADEINFORMACINYSEGUIMIENTODELINSTITUTODEREINSERCINSOCIALDELACIUDADDEMXICO" fill="#898D8D" fill-rule="nonzero"></path>
        </g>
    </g>
</svg>