<?xml version="1.0" encoding="utf-8"?>
<!-- Generator: Adobe Illustrator 23.0.2, SVG Export Plug-In . SVG Version: 6.00 Build 0)  -->
<svg version="1.1" id="Capa_1" xmlns="http://www.w3.org/2000/svg" xmlns:xlink="http://www.w3.org/1999/xlink" x="0px" y="0px"
	 width="363px" height="49.524px" viewBox="0 0 363 49.524" enable-background="new 0 0 363 49.524" xml:space="preserve">
<g>
	<path fill="none" stroke="#898D8D" stroke-linecap="square" d="M210.125,6.528v34.676"/>
	<path fill-rule="evenodd" clip-rule="evenodd" fill="#00B140" d="M66.284,27.419c0.26,0.395,0.622,0.573,1.13,0.586
		c0.691,0.017,1.134-0.658,1.134-0.658l11.464-14.615c0.946-0.98,1.88-0.187,1.88-0.187c0.907,0.941,0.23,1.804,0.23,1.804
		l-2.564,3.263v0.016c-0.452,0.463-0.476,1.196-0.054,1.687v0.005l2.579,3.254l8.126-10.283l-3.247-4.118l-0.6-0.776
		c-0.526-0.754-1.704-0.928-1.704-0.928h-4.865C79.032,6.466,78.307,6.79,77.8,7.357L64.173,24.754L66.284,27.419L66.284,27.419z
		 M65.706,18.5l-3.26-4.159c-0.662-1.062,0.305-1.823,0.305-1.823c1.217-0.707,1.923,0.383,1.923,0.383l2.697,3.445l3.192-4.09
		l-3.68-4.71c-0.88-1.252-2.218-1.078-2.218-1.078h-4.396c-1.407,0-2.011,0.87-2.011,0.87l-3.888,4.908l8.127,10.328l3.21-4.073
		L65.706,18.5z"/>
	<path fill-rule="evenodd" clip-rule="evenodd" fill="#00B140" d="M78.27,22.045c0,0-0.376-0.577-1.098-0.566
		c-0.753,0.01-1.056,0.51-1.056,0.51L64.535,36.786c-0.939,1.025-1.948,0.201-1.948,0.201c-0.906-0.943-0.163-1.816-0.163-1.816
		l2.597-3.319l0.001-0.018c0.45-0.464,0.473-1.194,0.053-1.685v-0.006l-2.579-3.253l-8.152,10.399l4.545,5.724l7.143,0.017
		l14.364-18.278L78.27,22.045L78.27,22.045z M78.868,30.963l3.287,4.208c0.758,1.045-0.198,1.816-0.198,1.816
		c-1.262,0.844-2.034-0.416-2.034-0.416l-2.751-3.477l-3.192,4.092l4.604,5.862l7.089-0.017l4.545-5.796l-8.144-10.35
		C82.074,26.885,78.868,30.963,78.868,30.963z M90.157,21.534c-1.817,0-3.296,1.452-3.296,3.238c0,1.783,1.479,3.236,3.296,3.236
		s3.296-1.453,3.296-3.236C93.453,22.986,91.974,21.534,90.157,21.534 M90.157,26.512c-0.958-0.003-1.734-0.782-1.733-1.74
		c0-0.961,0.777-1.742,1.733-1.742s1.733,0.78,1.733,1.742C91.89,25.732,91.113,26.512,90.157,26.512 M72.27,6.474
		c1.817,0,3.296-1.452,3.296-3.238C75.566,1.453,74.087,0,72.27,0s-3.296,1.453-3.296,3.236C68.974,5.022,70.453,6.474,72.27,6.474
		 M72.27,1.497c0.956,0,1.733,0.78,1.733,1.74s-0.777,1.741-1.733,1.741c-0.959-0.003-1.735-0.783-1.733-1.742
		C70.537,2.277,71.314,1.497,72.27,1.497 M57.631,24.76c0-1.786-1.479-3.239-3.295-3.239c-1.819,0-3.298,1.453-3.298,3.238
		c0,1.784,1.48,3.237,3.298,3.237c1.816,0,3.295-1.453,3.295-3.237 M52.601,24.759c0-0.96,0.779-1.74,1.735-1.74
		c0.958,0.004,1.733,0.782,1.733,1.74c0,0.96-0.778,1.74-1.733,1.74C53.377,26.496,52.602,25.718,52.601,24.759"/>
	<path fill-rule="evenodd" clip-rule="evenodd" fill="#898D8D" d="M36.947,4.134v24.207c0,2.933-0.928,5.642-2.756,8.049
		c-1.49,1.962-3.58,3.74-6.214,5.28c-4.03,2.363-8.125,3.45-9.043,3.677c-0.914-0.225-4.975-1.3-9.004-3.653
		c-2.643-1.543-4.742-3.322-6.238-5.285c-1.838-2.412-2.77-5.127-2.77-8.068V4.134H36.947z M37.867,3.218H0v25.123
		c0,13.79,18.926,17.945,18.926,17.945h0.017c0,0,18.925-4.154,18.925-17.945L37.867,3.218L37.867,3.218z"/>
	<path fill-rule="evenodd" clip-rule="evenodd" fill="#898D8D" d="M23.52,11.26V8.95h-2.384v2.154h-0.932V8.951h-2.457v2.154h-0.932
		V8.951h-2.424v2.31l1.183,2.023c0.04,0.071,0.062,0.151,0.062,0.232l0.011,10.566h1.146l-0.012-3.794
		c0-0.896,1.024-1.708,2.148-1.708s2.147,0.812,2.147,1.706l0.01,3.796h1.178l-0.004-4.006c-0.001-0.019-0.002-0.037-0.002-0.056
		v-1.986l0.001-0.03l-0.001-1.447v-0.638l-0.003-2.401c0-0.083,0.022-0.165,0.065-0.237l1.2-2.022L23.52,11.26z M14.715,24.329
		l-0.003-3.501l-0.424,0.252c-0.156,0.094-0.352,0.088-0.502-0.015l-0.512-0.347c0.001,0.015,0.002,0.03,0.001,0.045l-0.016,1.348
		c-0.003,0.141-0.069,0.273-0.18,0.36c0.054,0.017,0.105,0.043,0.149,0.078c0.62,0.495,0.666,1.203,0.532,1.78
		C13.76,24.329,14.715,24.329,14.715,24.329z"/>
	<path fill-rule="evenodd" clip-rule="evenodd" fill="#898D8D" d="M18.929,19.506c-0.715,0-1.216,0.506-1.216,0.78l0.012,3.797
		h2.432l-0.011-3.795C20.146,20.012,19.643,19.506,18.929,19.506"/>
	<path fill-rule="evenodd" clip-rule="evenodd" fill="#898D8D" d="M4.734,24.329c-0.146-0.34-0.246-0.698-0.298-1.065
		c-0.118-0.731-0.093-1.404-0.093-1.432c0.008-0.197,0.14-0.367,0.328-0.426l1.019-0.312l-1.15-0.81
		c-0.123-0.087-0.196-0.228-0.197-0.378v-1.284c0-0.173,0.097-0.33,0.25-0.41l0.45-0.233v-0.437l-0.41-0.166
		c-0.175-0.07-0.29-0.239-0.29-0.427l-0.002-1.544c0-0.254,0.207-0.461,0.46-0.464l1.439-0.013
		c-0.026-0.379-0.034-0.896,0.058-1.325c0.127-0.578,0.457-1.207,0.614-1.488L6.836,11.58c-0.035-0.254,0.142-0.488,0.396-0.524
		c0.022-0.003,0.044-0.005,0.066-0.004h0.774c0.089,0,0.175,0.026,0.25,0.073l1.894,1.194h0.87c0.256-0.001,0.465,0.205,0.466,0.462
		c0,0.007,0,0.015,0,0.022l-0.065,1.484c-0.006,0.123-0.061,0.239-0.152,0.323l0.578,0.001c0.127,0,0.248,0.052,0.336,0.142
		l0.263,0.273l0.201-0.152l0.336-0.706c0.078-0.161,0.241-0.263,0.42-0.263h1.237v-0.263l-1.183-2.023
		c-0.042-0.071-0.064-0.151-0.064-0.233V8.488c0-0.255,0.21-0.462,0.467-0.462h10.06c0.257,0,0.467,0.207,0.467,0.462v2.898
		c-0.001,0.083-0.023,0.165-0.066,0.236l-1.2,2.022v0.26h1.226c0.18,0,0.344,0.103,0.42,0.264l0.337,0.706l0.2,0.152l0.264-0.273
		c0.088-0.091,0.208-0.142,0.334-0.142l0.579-0.001c-0.09-0.084-0.144-0.2-0.15-0.323l-0.066-1.484
		c-0.012-0.255,0.185-0.471,0.439-0.483c0.008,0,0.016-0.001,0.025-0.001h0.872l1.894-1.194c0.074-0.047,0.16-0.073,0.248-0.073
		h0.776c0.256,0,0.464,0.207,0.464,0.464c0,0.022-0.001,0.043-0.004,0.064l-0.076,0.535c0.16,0.281,0.49,0.91,0.614,1.488
		c0.093,0.429,0.086,0.946,0.06,1.325l1.437,0.013c0.255,0.003,0.462,0.21,0.462,0.464l-0.003,1.544c0,0.188-0.115,0.358-0.29,0.427
		l-0.41,0.166v0.437l0.449,0.232c0.155,0.08,0.251,0.238,0.251,0.411v1.284c0,0.15-0.073,0.29-0.197,0.378l-1.149,0.81l1.019,0.312
		c0.187,0.058,0.319,0.23,0.327,0.426c0,0.028,0.025,0.701-0.092,1.432c-0.052,0.367-0.153,0.725-0.3,1.065h1.696l0.022,0.001V6.424
		H3.047v17.905H4.734z"/>
	<path fill-rule="evenodd" clip-rule="evenodd" fill="#898D8D" d="M24.655,22.55c0.045-0.034,0.095-0.061,0.148-0.08
		c-0.111-0.086-0.178-0.218-0.18-0.359l-0.017-1.348l0.001-0.045l-0.51,0.348c-0.151,0.102-0.347,0.108-0.503,0.014l-0.402-0.239
		l0.004,3.488h0.925c-0.132-0.577-0.087-1.285,0.534-1.78 M30.84,33.904c-0.257,0.001-0.465-0.207-0.466-0.464l0,0v-3.027
		c0-0.225-0.136-0.505-0.348-0.712c-0.254-0.25-0.6-0.384-0.956-0.37c-0.714,0.012-1.144,0.56-1.202,1.105v3.004
		c-0.002,0.256-0.21,0.463-0.466,0.464h-2.768c-0.256,0.001-0.465-0.206-0.466-0.462c0-0.001,0-0.001,0-0.002v-3.027
		c0-0.225-0.137-0.505-0.347-0.712c-0.254-0.25-0.601-0.384-0.957-0.37c-0.3,0.001-0.588,0.115-0.808,0.319l2.275,11.546
		c3.203-1.411,6.995-3.715,9.043-7.292H30.84z M20.24,25.256h-2.596L14.449,41.49c-0.005,0.021-0.01,0.044-0.019,0.065
		c2.22,0.906,4.023,1.367,4.526,1.524c0.51-0.16,2.302-0.618,4.506-1.515c-0.01-0.026-0.018-0.053-0.023-0.08l-3.198-16.23
		L20.24,25.256z M15.833,29.635c-0.219-0.193-0.5-0.301-0.792-0.303h-0.024c-0.455,0-0.757,0.2-0.93,0.372
		c-0.213,0.206-0.348,0.485-0.348,0.71v3.029c0,0.255-0.21,0.463-0.466,0.463h-2.768c-0.256,0.002-0.464-0.204-0.466-0.46
		c0-0.001,0-0.002,0-0.003v-3.006c-0.06-0.544-0.488-1.093-1.202-1.105H8.81c-0.455,0-0.757,0.2-0.93,0.372
		c-0.212,0.206-0.348,0.485-0.348,0.71v3.029c0,0.255-0.21,0.463-0.466,0.463H4.542c2.043,3.565,5.823,5.867,9.017,7.28
		C13.559,41.186,15.833,29.635,15.833,29.635z"/>
	<path fill-rule="evenodd" clip-rule="evenodd" fill="#898D8D" d="M34.843,25.255H21.189l0.67,3.403
		c0.3-0.16,0.638-0.249,0.99-0.254c0.605-0.014,1.191,0.215,1.625,0.638c0.393,0.382,0.626,0.896,0.626,1.37v2.565h1.837v-2.565
		l0.001-0.043c0.1-1.1,1.012-1.947,2.116-1.965c0.62-0.01,1.195,0.216,1.626,0.638c0.392,0.382,0.626,0.896,0.626,1.37v2.565h2.544
		c0.677-1.479,1.024-3.088,1.015-4.714v-3.01L34.843,25.255 M6.601,32.979v-2.564c0-0.477,0.234-0.989,0.625-1.373
		c0.43-0.42,1.01-0.646,1.626-0.638c1.121,0.02,2.041,0.893,2.119,2.011v2.564h1.836v-2.564c0-0.477,0.234-0.989,0.625-1.373
		c0.43-0.42,1.009-0.646,1.626-0.638c0.343,0.007,0.675,0.092,0.968,0.246l0.668-3.394H3.048v3.007c0,1.76,0.38,3.325,1.016,4.716
		H6.601z M7.696,23.374h0.755c0.059,0.093,0.091,0.2,0.106,0.311l0.012,0.19c-0.003,0.154-0.024,0.306-0.063,0.455H5.86
		c-0.381-0.26-0.573-1.29-0.59-2.138l1.158-0.356c0.195-0.06,0.328-0.239,0.329-0.443V20.95c0.001-0.151-0.073-0.293-0.197-0.379
		l-1.285-0.905v-0.762l0.448-0.233c0.153-0.08,0.25-0.239,0.25-0.41v-1.03c0-0.19-0.116-0.36-0.29-0.431l-0.41-0.164v-0.773
		l1.22-0.01l0.58,0.946l0.004,1.318l-0.4,1.252c-0.076,0.247,0.063,0.508,0.309,0.583c0.044,0.014,0.09,0.021,0.137,0.021h0.352
		c0.228,0.001,0.423-0.165,0.46-0.39c0.033-0.205,0.145-0.797,0.248-1.063c0.08-0.207,0.413-0.651,0.622-0.9
		c0.147-0.175,0.144-0.431-0.006-0.603L7.2,15.19c-0.031-0.276-0.088-0.928,0.01-1.39c0.11-0.503,0.46-1.142,0.585-1.346
		c0.057-0.092,0.08-0.202,0.064-0.309l-0.023-0.166h0.103l1.893,1.196c0.075,0.046,0.16,0.072,0.25,0.072h0.52l-0.032,0.692
		l-0.61,0.22c-0.185,0.066-0.308,0.242-0.308,0.438l0.004,0.475c0.001,0.256,0.209,0.461,0.464,0.461l1.595,0.006l0.417,0.43
		c0.164,0.17,0.43,0.189,0.618,0.045c0,0,0.724-0.574,0.756-0.64l0.258-0.542h0.93v1.686c0,0-1.7,0.58-1.841,0.65
		c-0.11,0.054-0.171,0.577-0.15,0.704c0.018,0.126,0.011,0.176,0.195,0.311c0,0,0.494,0.387,0.645,0.44l0.494-0.468l0.655,0.043
		l-0.001,1.564l-0.625,0.371l-1.953-1.33c-0.203-0.138-0.478-0.095-0.63,0.098l-0.306,0.39c-0.147,0.189-0.127,0.459,0.047,0.623
		l1.118,1.042l-0.01,0.848L11.21,22.3c-0.167,0.074-0.275,0.239-0.276,0.422v0.19c0,0.256,0.208,0.463,0.466,0.463h1.348
		c0.234,0.288,0.142,0.696,0.044,0.956H9.68c-0.105-0.111-0.16-0.306-0.181-0.525c-0.002-0.059-0.005-0.119-0.011-0.178
		c-0.008-0.295,0.03-0.599,0.07-0.772l0.723-0.921c0.06-0.076,0.094-0.168,0.098-0.264l0.022-0.442
		c0.011-0.257-0.189-0.474-0.446-0.485c-0.067-0.003-0.133,0.009-0.195,0.034l-1.168,0.474c-0.152,0.061-0.26,0.199-0.284,0.361
		l-0.07,0.464l-0.677,0.204c-0.197,0.058-0.332,0.238-0.332,0.443v0.188c0,0.256,0.21,0.463,0.466,0.463 M30.187,23.374h-0.756
		c-0.057,0.095-0.093,0.201-0.107,0.311c-0.001,0.063-0.005,0.127-0.01,0.19c0,0.161,0.03,0.322,0.062,0.455h2.646
		c0.381-0.26,0.571-1.29,0.589-2.138l-1.157-0.356c-0.195-0.06-0.328-0.239-0.33-0.443V20.95c0-0.151,0.074-0.292,0.197-0.379
		l1.286-0.905v-0.762l-0.448-0.233c-0.154-0.079-0.251-0.237-0.252-0.41v-1.03c0-0.19,0.117-0.36,0.291-0.431l0.41-0.164v-0.773
		l-1.22-0.01l-0.58,0.946l-0.003,1.318l0.398,1.252c0.045,0.141,0.019,0.295-0.068,0.415c-0.089,0.119-0.229,0.189-0.377,0.189
		h-0.351c-0.228,0-0.422-0.165-0.46-0.39c-0.035-0.205-0.145-0.797-0.25-1.063c-0.08-0.207-0.41-0.651-0.62-0.9
		c-0.147-0.175-0.145-0.431,0.005-0.603l1.602-1.828c0.03-0.276,0.088-0.928-0.011-1.39c-0.109-0.503-0.46-1.142-0.584-1.346
		c-0.057-0.092-0.08-0.202-0.064-0.309l0.023-0.166h-0.103l-1.894,1.196c-0.075,0.047-0.162,0.071-0.25,0.072h-0.518l0.03,0.692
		l0.61,0.22c0.185,0.066,0.309,0.241,0.308,0.438l-0.003,0.475c-0.002,0.255-0.209,0.461-0.464,0.461l-1.595,0.006l-0.417,0.43
		c-0.165,0.17-0.43,0.189-0.618,0.045c0,0-0.725-0.574-0.757-0.64l-0.259-0.542h-0.929v1.686c0,0,1.7,0.58,1.84,0.65
		c0.112,0.054,0.173,0.577,0.153,0.704c-0.02,0.126-0.013,0.176-0.196,0.311c0,0-0.494,0.387-0.647,0.44l-0.493-0.468l-0.654,0.043
		l0.001,1.564l0.625,0.371l1.953-1.33c0.203-0.138,0.478-0.096,0.629,0.098l0.307,0.39c0.148,0.188,0.127,0.459-0.05,0.623
		l-1.116,1.042l0.011,0.848l1.122,0.496c0.167,0.072,0.276,0.24,0.276,0.422v0.19c0,0.256-0.21,0.463-0.466,0.463h-1.349
		c-0.233,0.288-0.14,0.696-0.043,0.956H28.2c0.106-0.111,0.16-0.306,0.182-0.525c0.001-0.058,0.005-0.119,0.01-0.178
		c0.006-0.259-0.017-0.518-0.069-0.772L27.6,21.934c-0.06-0.076-0.095-0.168-0.1-0.264l-0.02-0.442
		c-0.011-0.257,0.189-0.474,0.446-0.485c0.067-0.003,0.133,0.009,0.195,0.034l1.168,0.474c0.152,0.062,0.26,0.199,0.284,0.361
		l0.07,0.464l0.677,0.204c0.197,0.058,0.331,0.239,0.331,0.443v0.188c0,0.256-0.209,0.463-0.465,0.463 M103.422,19.267v-0.018
		c0-1.76,1.3-3.32,3.235-3.32c1.088,0,1.762,0.312,2.405,0.852l-0.47,0.55c-0.498-0.43-1.05-0.733-1.962-0.733
		c-1.429,0-2.452,1.201-2.452,2.632v0.02c0,1.53,0.986,2.667,2.552,2.667c0.738,0,1.42-0.284,1.862-0.642v-1.596h-1.962v-0.652
		h2.663v2.56c-0.715,0.631-1.636,0.98-2.59,0.981C104.675,22.568,103.422,21.1,103.422,19.267 M111.679,19.267v-0.018
		c0-1.77,1.336-3.32,3.3-3.32c1.963,0,3.282,1.53,3.282,3.301v0.02c0,1.77-1.337,3.318-3.3,3.318
		C112.997,22.568,111.679,21.037,111.679,19.267 M117.505,19.267v-0.018c0-1.458-1.07-2.651-2.544-2.651
		c-1.475,0-2.526,1.174-2.526,2.632v0.02c0,1.457,1.069,2.65,2.544,2.65S117.505,20.726,117.505,19.267 M120.869,16.038h2.746
		c0.736,0,1.319,0.212,1.687,0.569c0.267,0.276,0.414,0.615,0.414,1.027v0.019c0,0.834-0.516,1.265-1.023,1.485
		c0.766,0.23,1.383,0.67,1.383,1.55v0.019c0,1.1-0.93,1.751-2.342,1.751h-2.865C120.869,22.458,120.869,16.038,120.869,16.038z
		 M124.979,17.735c0-0.632-0.507-1.046-1.428-1.046h-1.964V18.9h1.908c0.876,0,1.484-0.394,1.484-1.147V17.735z M123.624,19.542
		h-2.037v2.265h2.167c0.976,0,1.585-0.431,1.585-1.146v-0.019C125.339,19.946,124.749,19.542,123.624,19.542z M128.68,22.459h0.728
		v-6.42h-0.728V22.459z M132.356,16.038h4.663v0.66h-3.935v2.193h3.52v0.66h-3.52v2.246h3.98v0.661h-4.708L132.356,16.038z
		 M139.481,16.038h2.774c0.793,0,1.43,0.24,1.835,0.642c0.314,0.312,0.497,0.762,0.497,1.266v0.019c0,1.062-0.738,1.686-1.75,1.87
		l1.98,2.623h-0.893l-1.87-2.496h-1.845v2.496h-0.728V16.038z M142.191,19.312c0.967,0,1.658-0.494,1.658-1.32v-0.019
		c0-0.788-0.607-1.265-1.65-1.265h-1.99v2.604C140.209,19.312,142.191,19.312,142.191,19.312z M147.212,16.038h0.682l4.065,5.146
		v-5.146h0.71v6.42h-0.58l-4.168-5.263v5.263h-0.709L147.212,16.038z M155.275,19.267v-0.018c0-1.77,1.336-3.32,3.3-3.32
		c1.963,0,3.282,1.53,3.282,3.301v0.02c0,1.77-1.337,3.318-3.3,3.318S155.275,21.037,155.275,19.267 M161.102,19.267v-0.018
		c0-1.458-1.07-2.651-2.544-2.651c-1.475,0-2.527,1.174-2.527,2.632v0.02c0,1.457,1.07,2.65,2.544,2.65
		C160.05,21.9,161.102,20.726,161.102,19.267 M167.821,16.038h2.24c2.028,0,3.428,1.385,3.428,3.192v0.019
		c0,1.807-1.4,3.21-3.428,3.21h-2.24V16.038z M168.549,16.708v5.08h1.512c1.631,0,2.673-1.1,2.673-2.522v-0.017
		c0-1.422-1.042-2.54-2.673-2.54L168.549,16.708L168.549,16.708z M175.803,16.038h4.663v0.66h-3.935v2.193h3.521v0.66h-3.52v2.246
		h3.982v0.661h-4.71L175.803,16.038z M186.312,16.038h0.727v5.75h3.633v0.67h-4.36V16.038z M195.142,15.993h0.682l2.94,6.466h-0.782
		l-0.756-1.698h-3.513l-0.764,1.698h-0.747L195.142,15.993L195.142,15.993z M196.939,20.102l-1.465-3.265L194,20.102h2.94H196.939z
		 M103.284,30.273v-0.018c0-1.826,1.383-3.32,3.364-3.32c1.217,0,1.945,0.404,2.544,0.99l-0.903,1.037
		c-0.499-0.45-1.005-0.724-1.65-0.724c-1.088,0-1.87,0.897-1.87,1.998v0.02c0,1.1,0.764,2.015,1.87,2.015
		c0.737,0,1.19-0.293,1.696-0.751l0.903,0.908c-0.662,0.707-1.4,1.146-2.645,1.146C104.693,33.574,103.283,32.116,103.284,30.273
		 M110.41,33.463h1.42v-6.42h-1.42V33.463z M113.467,30.714v-3.67h1.42v3.633c0,1.045,0.525,1.585,1.392,1.585
		c0.866,0,1.39-0.521,1.39-1.54v-3.677h1.421v3.623c0,1.944-1.097,2.897-2.83,2.897C114.528,33.565,113.467,32.601,113.467,30.714
		 M120.704,27.044h2.517c2.028,0,3.428,1.385,3.428,3.192v0.019c0,1.805-1.4,3.208-3.428,3.208h-2.517
		C120.704,33.463,120.704,27.044,120.704,27.044z M123.221,32.19c1.161,0,1.945-0.78,1.945-1.917v-0.018
		c0-1.138-0.784-1.935-1.945-1.935h-1.098v3.87H123.221z M129.794,26.999h1.31l2.765,6.466h-1.485l-0.59-1.44h-2.728l-0.59,1.44
		h-1.448L129.794,26.999L129.794,26.999z M131.288,30.777l-0.857-2.082l-0.859,2.082H131.288L131.288,30.777z M134.896,27.044h2.517
		c2.026,0,3.428,1.385,3.428,3.192v0.019c0,1.805-1.402,3.208-3.428,3.208h-2.517C134.896,33.463,134.896,27.044,134.896,27.044z
		 M137.413,32.19c1.161,0,1.945-0.78,1.945-1.917v-0.018c0-1.138-0.784-1.935-1.945-1.935h-1.098v3.87H137.413z M144.962,27.044
		h2.517c2.028,0,3.428,1.385,3.428,3.192v0.019c0,1.805-1.4,3.208-3.428,3.208h-2.517C144.962,33.463,144.962,27.044,144.962,27.044
		z M147.479,32.19c1.161,0,1.945-0.78,1.945-1.917v-0.018c0-1.138-0.784-1.935-1.945-1.935h-1.098v3.87H147.479z M152.254,27.044
		h4.866v1.257h-3.456v1.303h3.042v1.256h-3.042v1.348h3.503v1.255h-4.913L152.254,27.044z M161.287,27.044h1.53l1.696,2.715
		l1.697-2.715h1.529v6.42h-1.41v-4.191l-1.816,2.743h-0.037L162.68,29.3v4.162h-1.393L161.287,27.044z M169.432,27.044h4.867v1.257
		h-3.457v1.303h3.04v1.256h-3.04v1.348h3.503v1.255h-4.913L169.432,27.044L169.432,27.044z M172.132,24.917l1.208,0.523l-1.18,1.1
		h-1.07L172.132,24.917z M177.507,30.2l-2.157-3.155h1.658l1.356,2.082l1.363-2.082h1.614l-2.157,3.136l2.25,3.284h-1.66
		l-1.447-2.201l-1.456,2.201h-1.614L177.507,30.2z M182.521,33.463h1.42v-6.42h-1.42V33.463z M185.314,30.273v-0.018
		c0-1.826,1.382-3.32,3.365-3.32c1.216,0,1.945,0.404,2.544,0.99l-0.904,1.037c-0.499-0.45-1.005-0.724-1.65-0.724
		c-1.088,0-1.87,0.897-1.87,1.998v0.02c0,1.1,0.764,2.015,1.87,2.015c0.737,0,1.19-0.293,1.696-0.751l0.903,0.908
		c-0.663,0.707-1.4,1.146-2.644,1.146C186.724,33.574,185.314,32.116,185.314,30.273 M191.938,30.273v-0.018
		c0-1.826,1.447-3.32,3.438-3.32c1.993,0,3.419,1.476,3.419,3.301v0.02c0,1.823-1.445,3.318-3.437,3.318
		C193.368,33.574,191.938,32.098,191.938,30.273 M197.313,30.273v-0.018c0-1.101-0.812-2.017-1.955-2.017s-1.935,0.897-1.935,1.998
		v0.02c0,1.1,0.81,2.015,1.953,2.015C196.52,32.271,197.313,31.374,197.313,30.273"/>
	<path fill-rule="evenodd" clip-rule="evenodd" fill="#00B140" d="M72.275,43.05c-1.818,0-3.297,1.453-3.297,3.238
		c0,1.783,1.48,3.236,3.297,3.236c1.817,0,3.295-1.453,3.295-3.236C75.57,44.503,74.092,43.05,72.275,43.05 M72.275,48.027
		c-0.957,0-1.734-0.78-1.734-1.74s0.777-1.741,1.734-1.741c0.959,0.004,1.734,0.783,1.733,1.742
		C74.008,47.248,73.229,48.027,72.275,48.027"/>
</g>
<g>
	<path fill="#898D8D" d="M219.946,16.498h2.658c1.552,0,2.49,0.92,2.49,2.249v0.019c0,1.505-1.171,2.286-2.63,2.286h-1.087v1.952
		h-1.432v-6.506H219.946z M222.512,19.778c0.715,0,1.134-0.427,1.134-0.985v-0.019c0-0.641-0.446-0.985-1.162-0.985h-1.105v1.989
		H222.512z"/>
	<path fill="#898D8D" d="M226.158,16.498h1.432v5.204h3.243v1.301h-4.675V16.498z"/>
	<path fill="#898D8D" d="M234.146,16.451h1.319l2.788,6.551h-1.496l-0.595-1.459h-2.751l-0.595,1.459h-1.459L234.146,16.451z
		 M235.651,20.28l-0.864-2.109l-0.864,2.109H235.651z"/>
	<path fill="#898D8D" d="M239.939,17.817h-1.979v-1.32h5.39v1.32h-1.979v5.185h-1.432L239.939,17.817L239.939,17.817z"/>
	<path fill="#898D8D" d="M245.845,16.451h1.319l2.788,6.551h-1.496l-0.595-1.459h-2.751l-0.595,1.459h-1.459L245.845,16.451z
		 M247.351,20.28l-0.864-2.109l-0.864,2.109H247.351z"/>
	<path fill="#898D8D" d="M250.961,16.498h4.953v1.301h-3.521v1.384h3.104v1.301h-3.104v2.518h-1.432V16.498z"/>
	<path fill="#898D8D" d="M256.773,19.769V19.75c0-1.849,1.459-3.364,3.467-3.364c2.007,0,3.447,1.496,3.447,3.345v0.019
		c0,1.849-1.459,3.364-3.466,3.364C258.214,23.114,256.773,21.618,256.773,19.769z M262.191,19.769V19.75
		c0-1.115-0.817-2.044-1.97-2.044s-1.952,0.911-1.952,2.026v0.019c0,1.115,0.818,2.044,1.971,2.044S262.191,20.884,262.191,19.769z"
		/>
	<path fill="#898D8D" d="M264.967,16.498h2.974c0.827,0,1.469,0.232,1.896,0.66c0.363,0.363,0.558,0.874,0.558,1.487v0.019
		c0,1.05-0.566,1.71-1.394,2.017l1.589,2.323h-1.673l-1.394-2.082h-0.019h-1.105v2.082h-1.432L264.967,16.498L264.967,16.498z
		 M267.848,19.657c0.697,0,1.097-0.372,1.097-0.92v-0.019c0-0.613-0.428-0.93-1.124-0.93h-1.422v1.868L267.848,19.657
		L267.848,19.657z"/>
	<path fill="#898D8D" d="M271.69,16.498h1.543l1.71,2.75l1.71-2.75h1.542v6.505h-1.422v-4.247l-1.83,2.778h-0.037l-1.812-2.75v4.219
		h-1.403L271.69,16.498L271.69,16.498z"/>
	<path fill="#898D8D" d="M281.993,16.451h1.319l2.788,6.551h-1.496l-0.595-1.459h-2.751l-0.595,1.459h-1.459L281.993,16.451z
		 M283.499,20.28l-0.864-2.109l-0.864,2.109H283.499z"/>
	<path fill="#898D8D" d="M289.899,16.498h2.537c2.045,0,3.457,1.403,3.457,3.234v0.019c0,1.831-1.412,3.252-3.457,3.252h-2.537
		V16.498z M292.437,21.711c1.171,0,1.961-0.79,1.961-1.942V19.75c0-1.152-0.79-1.961-1.961-1.961h-1.105v3.922
		C291.332,21.711,292.437,21.711,292.437,21.711z"/>
	<path fill="#898D8D" d="M297.237,16.498h1.431v6.505h-1.431V16.498z"/>
	<path fill="#898D8D" d="M300.009,19.769V19.75c0-1.849,1.44-3.364,3.411-3.364c1.171,0,1.877,0.316,2.555,0.892l-0.901,1.087
		c-0.501-0.418-0.947-0.66-1.7-0.66c-1.041,0-1.868,0.92-1.868,2.026v0.019c0,1.189,0.818,2.063,1.971,2.063
		c0.521,0,0.984-0.13,1.347-0.39v-0.929h-1.439v-1.236h2.824v2.825c-0.669,0.567-1.589,1.031-2.778,1.031
		C301.403,23.114,300.009,21.692,300.009,19.769z"/>
	<path fill="#898D8D" d="M307.653,16.498h1.431v6.505h-1.431V16.498z"/>
	<path fill="#898D8D" d="M312.228,17.817h-1.979v-1.32h5.39v1.32h-1.979v5.185h-1.432V17.817z"/>
	<path fill="#898D8D" d="M318.133,16.451h1.319l2.788,6.551h-1.496l-0.595-1.459h-2.751l-0.595,1.459h-1.459L318.133,16.451z
		 M319.639,20.28l-0.864-2.109l-0.864,2.109H319.639z"/>
	<path fill="#898D8D" d="M323.249,16.498h1.432v5.204h3.243v1.301h-4.675L323.249,16.498L323.249,16.498z"/>
	<path fill="#898D8D" d="M331.796,16.498h2.658c1.552,0,2.49,0.92,2.49,2.249v0.019c0,1.505-1.171,2.286-2.63,2.286h-1.087v1.952
		h-1.432v-6.506H331.796z M334.361,19.778c0.715,0,1.134-0.427,1.134-0.985v-0.019c0-0.641-0.446-0.985-1.162-0.985h-1.105v1.989
		H334.361z"/>
	<path fill="#898D8D" d="M339.587,16.451h1.319l2.788,6.551h-1.496l-0.595-1.459h-2.751l-0.595,1.459h-1.459L339.587,16.451z
		 M341.093,20.28l-0.864-2.109l-0.864,2.109H341.093z"/>
	<path fill="#898D8D" d="M344.703,16.498h2.974c0.827,0,1.469,0.232,1.896,0.66c0.363,0.363,0.558,0.874,0.558,1.487v0.019
		c0,1.05-0.566,1.71-1.394,2.017l1.589,2.323h-1.673l-1.394-2.082h-0.019h-1.105v2.082h-1.432L344.703,16.498L344.703,16.498z
		 M347.584,19.657c0.697,0,1.097-0.372,1.097-0.92v-0.019c0-0.613-0.428-0.93-1.124-0.93h-1.422v1.868L347.584,19.657
		L347.584,19.657z"/>
	<path fill="#898D8D" d="M353.657,16.451h1.319l2.788,6.551h-1.496l-0.595-1.459h-2.751l-0.595,1.459h-1.459L353.657,16.451z
		 M355.163,20.28l-0.864-2.109l-0.864,2.109H355.163z"/>
	<path fill="#898D8D" d="M220.012,27.657h1.431v6.505h-1.431V27.657z"/>
	<path fill="#898D8D" d="M223.071,27.657h1.32l3.048,4.005v-4.005h1.412v6.505h-1.218l-3.149-4.135v4.135h-1.413L223.071,27.657
		L223.071,27.657z"/>
	<path fill="#898D8D" d="M230.13,30.929V30.91c0-1.85,1.44-3.364,3.411-3.364c1.171,0,1.877,0.315,2.555,0.892l-0.901,1.088
		c-0.501-0.418-0.947-0.66-1.7-0.66c-1.041,0-1.868,0.92-1.868,2.025v0.02c0,1.189,0.818,2.062,1.971,2.062
		c0.521,0,0.984-0.13,1.347-0.391v-0.929h-1.439v-1.236h2.824v2.825c-0.669,0.566-1.589,1.031-2.778,1.031
		C231.524,34.273,230.13,32.852,230.13,30.929z"/>
	<path fill="#898D8D" d="M237.709,27.657h2.974c0.827,0,1.469,0.232,1.896,0.66c0.363,0.362,0.558,0.873,0.558,1.486v0.019
		c0,1.05-0.566,1.71-1.394,2.017l1.589,2.323h-1.673l-1.394-2.082h-0.019h-1.105v2.082h-1.432V27.657z M240.59,30.816
		c0.697,0,1.097-0.371,1.097-0.92v-0.019c0-0.613-0.428-0.929-1.124-0.929h-1.422v1.867L240.59,30.816L240.59,30.816z"/>
	<path fill="#898D8D" d="M244.433,27.657h4.907v1.273h-3.485v1.319h3.066v1.273h-3.066v1.365h3.531v1.273h-4.953V27.657z"/>
	<path fill="#898D8D" d="M250.219,33.214l0.845-1.013c0.586,0.483,1.199,0.79,1.942,0.79c0.586,0,0.938-0.232,0.938-0.613v-0.019
		c0-0.362-0.223-0.548-1.31-0.827c-1.311-0.334-2.156-0.697-2.156-1.988v-0.019c0-1.181,0.948-1.961,2.276-1.961
		c0.948,0,1.757,0.297,2.416,0.827l-0.743,1.078c-0.576-0.4-1.143-0.642-1.691-0.642c-0.548,0-0.836,0.251-0.836,0.566v0.02
		c0,0.427,0.278,0.566,1.403,0.854c1.319,0.344,2.062,0.817,2.062,1.951v0.019c0,1.292-0.984,2.017-2.388,2.017
		C251.993,34.255,250.999,33.911,250.219,33.214z"/>
	<path fill="#898D8D" d="M256.328,30.929V30.91c0-1.85,1.459-3.364,3.467-3.364c2.007,0,3.447,1.496,3.447,3.345v0.02
		c0,1.849-1.459,3.363-3.466,3.363C257.769,34.273,256.328,32.777,256.328,30.929z M261.746,30.929V30.91
		c0-1.115-0.817-2.045-1.97-2.045s-1.952,0.911-1.952,2.025v0.02c0,1.114,0.818,2.044,1.971,2.044S261.746,32.043,261.746,30.929z"
		/>
	<path fill="#898D8D" d="M267.312,27.657h2.537c2.045,0,3.457,1.403,3.457,3.233v0.02c0,1.83-1.412,3.252-3.457,3.252h-2.537V27.657
		z M269.849,32.87c1.171,0,1.961-0.79,1.961-1.941V30.91c0-1.152-0.79-1.961-1.961-1.961h-1.105v3.921H269.849z"/>
	<path fill="#898D8D" d="M274.584,27.657h4.907v1.273h-3.485v1.319h3.066v1.273h-3.066v1.365h3.531v1.273h-4.953L274.584,27.657
		L274.584,27.657z"/>
	<path fill="#898D8D" d="M280.815,27.657h1.432v5.204h3.243v1.301h-4.675L280.815,27.657L280.815,27.657z"/>
	<path fill="#898D8D" d="M289.362,27.657h2.658c1.552,0,2.49,0.92,2.49,2.249v0.019c0,1.505-1.171,2.286-2.63,2.286h-1.087v1.951
		h-1.432v-6.505H289.362z M291.928,30.938c0.715,0,1.134-0.428,1.134-0.985v-0.019c0-0.641-0.446-0.984-1.162-0.984h-1.105v1.988
		C290.795,30.938,291.928,30.938,291.928,30.938z"/>
	<path fill="#898D8D" d="M295.64,27.657h1.431v6.505h-1.431V27.657z"/>
	<path fill="#898D8D" d="M298.699,27.657h2.658c1.552,0,2.49,0.92,2.49,2.249v0.019c0,1.505-1.171,2.286-2.63,2.286h-1.087v1.951
		h-1.432v-6.505H298.699z M301.265,30.938c0.715,0,1.134-0.428,1.134-0.985v-0.019c0-0.641-0.446-0.984-1.162-0.984h-1.105v1.988
		C300.132,30.938,301.265,30.938,301.265,30.938z"/>
	<path fill="#898D8D" d="M304.623,30.929V30.91c0-1.85,1.395-3.364,3.393-3.364c1.227,0,1.96,0.409,2.564,1.004l-0.911,1.05
		c-0.502-0.455-1.013-0.734-1.663-0.734c-1.097,0-1.887,0.911-1.887,2.025v0.02c0,1.114,0.771,2.044,1.887,2.044
		c0.743,0,1.199-0.298,1.71-0.762l0.91,0.92c-0.669,0.715-1.412,1.161-2.667,1.161C306.045,34.273,304.623,32.796,304.623,30.929z"
		/>
</g>
</svg>
