<?xml version="1.0" encoding="UTF-8"?>
<svg width="361px" height="50px" viewBox="0 0 361 50" version="1.1" xmlns="http://www.w3.org/2000/svg" xmlns:xlink="http://www.w3.org/1999/xlink">
    <!-- Generator: Sketch 56 (81588) - https://sketch.com -->
    <title>Group 4</title>
    <desc>Created with Sketch.</desc>
    <g id="Page-1" stroke="none" stroke-width="1" fill="none" fill-rule="evenodd">
        <g id="PC-PI-01" transform="translate(-47.000000, -452.000000)">
            <g id="Group-4" transform="translate(47.000000, 452.000000)">
                <g id="Group">
                    <path d="M210.125,6.52830189 L210.125,41.2041016" id="Line" stroke="#898D8D" stroke-linecap="square" fill-rule="nonzero"></path>
                    <g id="Group-24">
                        <path d="M66.2839468,27.4189189 C66.5447275,27.8135135 66.9060175,27.9918919 67.4139967,28.0054054 C68.1053373,28.0216216 68.5481213,27.3472973 68.5481213,27.3472973 L80.0116084,12.7324324 C80.9582968,11.7513514 81.8914029,12.5445946 81.8914029,12.5445946 C82.7987026,13.4864865 82.1223025,14.3486486 82.1223025,14.3486486 L79.5579585,17.6121622 L79.5579585,17.6283784 C79.3379248,17.8554054 79.2021015,18.1621622 79.2021015,18.5013514 C79.2021015,18.8121622 79.316193,19.0959459 79.5036292,19.3148649 L79.5036292,19.3202703 L82.0829138,22.5743243 L90.2092222,12.2905405 L86.961687,8.17297297 L86.3627062,7.3972973 C85.8357118,6.64324324 84.6581237,6.46891892 84.6581237,6.46891892 L79.7929328,6.46891892 C78.5026114,6.46891892 77.8004049,7.35675676 77.8004049,7.35675676 L64.1732526,24.7540541 L66.2839468,27.4189189 Z" id="Fill-32" fill="#00B140"></path>
                        <path d="M65.7062902,18.5005405 L62.4465309,14.3410811 C61.7837132,13.2789189 62.7507751,12.5181081 62.7507751,12.5181081 C63.9677519,11.8113514 64.6740331,12.9005405 64.6740331,12.9005405 L67.371484,16.3464865 L70.5633317,12.2559459 L66.8825201,7.54513514 C66.0037433,6.29378378 64.6645255,6.46810811 64.6645255,6.46810811 L60.2692833,6.46810811 C58.8621538,6.46810811 58.2577401,7.33837838 58.2577401,7.33837838 L54.3704771,12.2464865 L62.4967855,22.5735135 L65.7062902,18.5005405 Z" id="Fill-33" fill="#00B140"></path>
                        <path d="M78.269267,22.0452703 C78.269267,22.0452703 77.8943947,21.4682432 77.1718147,21.478904 C76.4193536,21.4898649 76.1164676,21.9885135 76.1164676,21.9885135 L64.5348142,36.7858108 C63.5962752,37.8114865 62.587108,36.9871622 62.587108,36.9871622 C61.6811666,36.0439189 62.42412,35.1709459 62.42412,35.1709459 L65.0210617,31.852027 L65.0224199,31.8344595 C65.2410954,31.6087838 65.3769187,31.3006757 65.3769187,30.9614865 C65.3769187,30.652027 65.2628272,30.3668919 65.075391,30.1493243 L65.075391,30.1425676 L62.4961064,26.8898649 L54.3439915,37.2885135 L58.8886394,43.0128378 L66.0315871,43.0304054 L80.39626,24.752027 L78.269267,22.0452703 Z" id="Fill-34" fill="#00B140"></path>
                        <path d="M78.8681119,30.962973 L82.155036,35.1710811 C82.91293,36.2156757 81.9567339,36.9872973 81.9567339,36.9872973 C80.6949354,37.8305405 79.923459,36.5710811 79.923459,36.5710811 L77.1716788,33.0940541 L73.9798311,37.1859459 L78.5842412,43.0481081 L85.6728596,43.0305405 L90.2175074,37.2345946 L82.073542,26.8845946 L78.8681119,30.962973 Z" id="Fill-35" fill="#00B140"></path>
                        <path d="M90.1570661,21.5337838 C88.3397502,21.5337838 86.8606344,22.9864865 86.8606344,24.7716216 C86.8606344,26.5554054 88.3397502,28.0081081 90.1570661,28.0081081 C91.9743819,28.0081081 93.4534977,26.5554054 93.4534977,24.7716216 C93.4534977,22.9864865 91.9743819,21.5337838 90.1570661,21.5337838 M90.1570661,26.5121622 C89.20087,26.5121622 88.4239607,25.7310811 88.4239607,24.7716216 C88.4239607,23.8108108 89.20087,23.0297297 90.1570661,23.0297297 C91.1132621,23.0297297 91.8901715,23.8108108 91.8901715,24.7716216 C91.8901715,25.7310811 91.1132621,26.5121622 90.1570661,26.5121622" id="Fill-36" fill="#00B140"></path>
                        <path d="M72.2699515,6.47432432 C74.0872674,6.47432432 75.5663832,5.02162162 75.5663832,3.23648649 C75.5663832,1.4527027 74.0872674,-1.28785871e-14 72.2699515,-1.28785871e-14 C70.4526357,-1.28785871e-14 68.9735199,1.4527027 68.9735199,3.23648649 C68.9735199,5.02162162 70.4526357,6.47432432 72.2699515,6.47432432 M72.2699515,1.4972973 C73.2261476,1.4972973 74.0030569,2.27702703 74.0030569,3.23648649 C74.0030569,4.1972973 73.2261476,4.97837838 72.2699515,4.97837838 C71.3137555,4.97837838 70.5368461,4.1972973 70.5368461,3.23648649 C70.5368461,2.27702703 71.3137555,1.4972973 72.2699515,1.4972973" id="Fill-37" fill="#00B140"></path>
                        <path d="M57.6311872,24.7591892 C57.6311872,22.9740541 56.1520714,21.5213514 54.3361138,21.5213514 C52.5174397,21.5213514 51.0383239,22.9740541 51.0383239,24.7591892 C51.0383239,26.542973 52.5174397,27.9956757 54.3361138,27.9956757 C56.1520714,27.9956757 57.6311872,26.542973 57.6311872,24.7591892 M52.6016502,24.7591892 C52.6016502,23.7997297 53.3799177,23.0186486 54.3361138,23.0186486 C55.2909516,23.0186486 56.0692192,23.7997297 56.0692192,24.7591892 C56.0692192,25.7186486 55.2909516,26.4997297 54.3361138,26.4997297 C53.3799177,26.4997297 52.6016502,25.7186486 52.6016502,24.7591892" id="Fill-38" fill="#00B140"></path>
                        <path d="M36.9466558,4.13445946 L36.9466558,28.3412162 C36.9466558,31.2736486 36.0189827,33.9831081 34.190801,36.3898649 C32.7008193,38.352027 30.6104986,40.1290541 27.9768847,41.6709459 C23.9470072,44.0331081 19.8519345,45.1209459 18.9337689,45.3466216 C18.0196781,45.1222973 13.9585612,44.0466216 9.93004194,41.6939189 C7.2869204,40.1506757 5.18845031,38.3722973 3.69167747,36.4087838 C1.85398813,33.9966216 0.922240252,31.2817568 0.922240252,28.3412162 L0.922240252,4.13445946 L36.9466558,4.13445946 Z M37.8675379,3.21824324 L4.97379915e-14,3.21824324 L4.97379915e-14,28.3412162 C4.97379915e-14,42.1317568 18.9256195,46.2858108 18.9256195,46.2858108 L18.9432766,46.2858108 C18.9432766,46.2858108 37.8675379,42.1317568 37.8675379,28.3412162 L37.8675379,3.21824324 Z" id="Fill-40" fill="#898D8D"></path>
                        <path d="M23.5207936,11.2594595 L23.5207936,8.95135135 L21.1357364,8.95135135 L21.1357364,11.1054054 L20.2039885,11.1054054 L20.2039885,8.95135135 L17.7469449,8.95135135 L17.7469449,11.1054054 L16.815197,11.1054054 L16.815197,8.95135135 L14.390751,8.95135135 L14.390751,11.2608108 L15.573772,13.2837838 C15.614519,13.3554054 15.6362507,13.4351351 15.6362507,13.5162162 L15.6471166,24.0824324 L16.7934653,24.0824324 L16.7812412,20.2878378 C16.7812412,19.3918919 17.8053489,18.5797297 18.9286076,18.5797297 C20.0532246,18.5797297 21.0759741,19.3918919 21.0759741,20.2864865 L21.08684,24.0824324 L22.2644281,24.0824324 L22.2603534,20.0756757 C22.2589951,20.0581081 22.2576369,20.0391892 22.2576369,20.0202703 L22.2576369,18.0337838 C22.2576369,18.022973 22.2576369,18.0135135 22.2589951,18.0040541 L22.2576369,16.5567568 C22.2576369,16.5540541 22.2576369,16.5527027 22.2576369,16.55 L22.2576369,15.9189189 L22.2549204,13.5175676 C22.2549204,13.4351351 22.2766522,13.3527027 22.3201156,13.2810811 L23.5207936,11.2594595 Z" id="Fill-41" fill="#898D8D"></path>
                        <path d="M14.7148254,24.3289189 L14.7121089,20.8275676 L14.2883402,21.0802703 C14.1321434,21.1748649 13.9365578,21.1681081 13.785794,21.0654054 L13.2737401,20.7181081 C13.2750983,20.732973 13.2764566,20.7478378 13.2750983,20.7627027 L13.2587995,22.1113514 C13.2560831,22.2532432 13.1895297,22.3843243 13.0795128,22.4708108 C13.1324839,22.487027 13.1827385,22.5140541 13.2275602,22.5491892 C13.8482727,23.0437838 13.8944526,23.7518919 13.7599875,24.3289189 L14.7148254,24.3289189 Z" id="Fill-42" fill="#898D8D"></path>
                        <path d="M18.9287435,19.5055405 C18.2143129,19.5055405 17.7131249,20.0122973 17.7131249,20.2866216 L17.725349,24.0825676 L20.1565862,24.0825676 L20.1457203,20.287973 C20.1457203,20.0122973 19.6431741,19.5055405 18.9287435,19.5055405" id="Fill-43" fill="#898D8D"></path>
                        <path d="M4.73371388,24.3289189 C4.60196527,24.037027 4.50281426,23.6816216 4.43626084,23.2640541 C4.31809456,22.532973 4.34254276,21.86 4.34254276,21.8316216 C4.35069216,21.6356757 4.48244076,21.4640541 4.67123516,21.4059459 L5.68990996,21.0937838 L4.53948655,20.2843243 C4.41724558,20.1964865 4.34254276,20.0559459 4.34254276,19.9059459 L4.34254276,18.6221622 C4.34254276,18.4491892 4.44033554,18.2910811 4.59381587,18.2113514 L5.04339102,17.9789189 L5.04339102,17.5424324 L4.63320463,17.3762162 C4.45799257,17.3072973 4.34254276,17.137027 4.34254276,16.9491892 L4.34118452,15.4045946 C4.34118452,15.1505405 4.54763595,14.9437838 4.80162553,14.9410811 L6.23999435,14.9275676 C6.21418792,14.5491892 6.20603852,14.0316216 6.29839837,13.6032432 C6.42471405,13.0248649 6.75476468,12.3964865 6.91231972,12.1154054 L6.83625867,11.5802703 C6.8172434,11.4478378 6.85663216,11.3140541 6.94491731,11.2113514 C7.03456069,11.1113514 7.16359283,11.0518919 7.29805791,11.0518919 L8.07225076,11.0518919 C8.1605359,11.0518919 8.24746282,11.0775676 8.32216564,11.1248649 L10.2155425,12.3194595 L11.0861699,12.3194595 C11.2138438,12.3194595 11.3347266,12.3694595 11.4230117,12.4613514 C11.5112969,12.5532432 11.5574768,12.6762162 11.5520439,12.8032432 L11.4868487,14.287027 C11.4800575,14.4127027 11.42437,14.5275676 11.3347266,14.61 L11.9133339,14.6113514 C12.0396495,14.6113514 12.1605323,14.6627027 12.2488174,14.7532432 L12.5123146,15.0262162 L12.7133331,14.8735135 L13.0488167,14.1681081 C13.126236,14.0072973 13.2905822,13.9045946 13.469869,13.9045946 L14.705861,13.9045946 L14.705861,13.6424324 L13.52284,11.6194595 C13.4807348,11.5478378 13.4590031,11.4681081 13.4590031,11.3856757 L13.4590031,8.48837838 C13.4590031,8.23297297 13.668171,8.02621622 13.9262353,8.02621622 L16.815197,8.02621622 L17.7469449,8.02621622 L20.2039885,8.02621622 L21.1357364,8.02621622 L23.9866676,8.02621622 C24.2433736,8.02621622 24.4525415,8.23297297 24.4525415,8.48837838 L24.4525415,11.3856757 C24.4525415,11.4694595 24.4294516,11.5505405 24.3873463,11.6221622 L23.1866683,13.6437838 L23.1866683,13.9045946 L24.4131528,13.9045946 C24.5924395,13.9045946 24.7567857,14.0072973 24.8328468,14.1681081 L25.1696886,14.8735135 L25.3693488,15.0262162 L25.6342043,14.7532432 C25.7224894,14.6627027 25.842014,14.6113514 25.9683296,14.6113514 L26.5469369,14.61 C26.4586518,14.5275676 26.401606,14.4127027 26.396173,14.287027 L26.3309779,12.8032432 C26.3241867,12.6762162 26.3717248,12.5532432 26.4586518,12.4613514 C26.5469369,12.3694595 26.6678197,12.3194595 26.7954936,12.3194595 L27.6674792,12.3194595 L29.5608561,11.1248649 C29.6355589,11.0775676 29.7211276,11.0518919 29.8094127,11.0518919 L30.5849638,11.0518919 C30.7194289,11.0518919 30.848461,11.1113514 30.9367462,11.2113514 C31.0250313,11.3140541 31.0644201,11.4478378 31.0454048,11.5802703 L30.9693438,12.1154054 C31.128257,12.3964865 31.4583077,13.0248649 31.5832651,13.6032432 C31.675625,14.0316216 31.6688338,14.5491892 31.6430274,14.9275676 L33.080038,14.9410811 C33.3353858,14.9437838 33.5418372,15.1505405 33.5418372,15.4045946 L33.5391207,16.9491892 C33.5391207,17.137027 33.4250292,17.3072973 33.2484589,17.3762162 L32.8396307,17.5424324 L32.8396307,17.9789189 L33.2878476,18.2113514 C33.4426862,18.2910811 33.5391207,18.4491892 33.5391207,18.6221622 L33.5391207,19.9059459 C33.5391207,20.0559459 33.4657761,20.1964865 33.3421769,20.2843243 L32.1931118,21.0937838 L33.2117866,21.4059459 C33.3992227,21.4640541 33.5309713,21.6356757 33.5391207,21.8316216 C33.5391207,21.86 33.5635689,22.532973 33.4467609,23.2640541 C33.3802075,23.6816216 33.2810565,24.037027 33.1479496,24.3289189 L34.8430245,24.3289189 C34.8498156,24.3289189 34.8566068,24.3302703 34.8647562,24.3302703 L34.8647562,6.42351351 L3.04678841,6.42351351 L3.04678841,24.3289189 L4.73371388,24.3289189 Z" id="Fill-44" fill="#898D8D"></path>
                        <path d="M24.6549183,22.5493243 C24.6997399,22.5141892 24.7499946,22.4885135 24.8029657,22.4695946 C24.6929488,22.3844595 24.6263954,22.2533784 24.6236789,22.1114865 L24.6060219,20.7628378 C24.6060219,20.747973 24.6060219,20.7331081 24.6073801,20.7182432 L24.0966845,21.0655405 C23.9472788,21.1682432 23.750335,21.1736486 23.5941382,21.0804054 L23.1921012,20.8412162 L23.1961759,24.3290541 L24.1211327,24.3290541 C23.9893841,23.752027 24.0342057,23.0439189 24.6549183,22.5493243" id="Fill-45" fill="#898D8D"></path>
                        <path d="M30.8399042,33.9037838 C30.5831981,33.9037838 30.3740302,33.697027 30.3740302,33.4402703 L30.3740302,30.4132432 C30.3740302,30.1875676 30.2382069,29.9078378 30.0263226,29.7010811 C29.8497523,29.5281081 29.5414334,29.32 29.0701265,29.3308108 C28.3556959,29.342973 27.9264942,29.8916216 27.8680902,30.4362162 L27.8680902,33.4402703 C27.8680902,33.5632432 27.8178356,33.6808108 27.7309087,33.7686486 C27.6439818,33.8551351 27.5258155,33.9037838 27.4022163,33.9037838 L24.6341373,33.9037838 C24.376073,33.9037838 24.1682633,33.697027 24.1682633,33.4402703 L24.1682633,30.4132432 C24.1682633,30.1875676 24.0310818,29.9078378 23.8205557,29.7010811 C23.6439854,29.5281081 23.3343082,29.32 22.8643596,29.3308108 C22.551966,29.3362162 22.27217,29.4483784 22.0562109,29.6497297 L24.3312513,41.1956757 C27.5339649,39.7848649 31.3261516,37.4808108 33.3743671,33.9037838 L30.8399042,33.9037838 Z" id="Fill-46" fill="#898D8D"></path>
                        <path d="M20.240525,25.2556757 L17.6435833,25.2556757 L14.4490192,41.4908108 C14.4435862,41.5124324 14.4381533,41.5354054 14.4300039,41.5556757 C16.650715,42.4624324 18.4530903,42.9232432 18.9556365,43.08 C19.4663321,42.9205405 21.2578415,42.4624324 23.4622538,41.5651351 C23.4527462,41.5394595 23.4445968,41.5124324 23.4391638,41.4840541 L20.240525,25.2556757 Z" id="Fill-47" fill="#898D8D"></path>
                        <path d="M15.8329228,29.6347297 C15.618322,29.4441892 15.3439589,29.3374324 15.041073,29.332027 C15.0342818,29.332027 15.0247742,29.332027 15.0166248,29.332027 C14.5616167,29.332027 14.260089,29.532027 14.0862351,29.7036486 C13.8743508,29.9104054 13.7385275,30.1887838 13.7385275,30.4144595 L13.7385275,33.4428378 C13.7385275,33.6982432 13.5293596,33.9063514 13.2726535,33.9063514 L10.5045745,33.9063514 C10.3809753,33.9063514 10.2614508,33.8577027 10.1758821,33.7712162 C10.0889552,33.6833784 10.0387006,33.5658108 10.0387006,33.4428378 L10.0387006,30.4374324 C9.97893833,29.8928378 9.55109492,29.3441892 8.83666432,29.332027 C8.82851493,29.332027 8.82036553,29.332027 8.8108579,29.332027 C8.35584982,29.332027 8.05432208,29.532027 7.88046825,29.7036486 C7.66858389,29.9104054 7.53276058,30.1887838 7.53276058,30.4144595 L7.53276058,33.4428378 C7.53276058,33.6982432 7.32359269,33.9063514 7.06688664,33.9063514 L4.54193137,33.9063514 C6.5847139,37.4712162 10.3646765,39.7725676 13.5592407,41.1860811 L15.8329228,29.6347297 Z" id="Fill-48" fill="#898D8D"></path>
                        <path d="M34.8428887,25.2552703 L21.1885716,25.2552703 L21.8595388,28.657973 C22.1597083,28.4985135 22.4965501,28.4093243 22.8496907,28.4039189 C23.4622538,28.3931081 24.0435775,28.6201351 24.4741374,29.0417568 C24.8666668,29.4241892 25.1002829,29.9377027 25.1002829,30.412027 L25.1002829,32.9768919 L26.936614,32.9768919 L26.936614,30.412027 C26.936614,30.3985135 26.936614,30.3836486 26.9379722,30.3687838 C27.0398397,29.2660811 27.9512141,28.4214865 29.0540993,28.4039189 C29.6748118,28.3931081 30.2493444,28.6201351 30.6799043,29.0417568 C31.0724337,29.4241892 31.3060498,29.9377027 31.3060498,30.412027 L31.3060498,32.9768919 L33.8500203,32.9768919 C34.4870316,31.5877027 34.8646204,30.0228378 34.8646204,28.2633784 L34.8646204,25.2539189 C34.856471,25.2539189 34.8496798,25.2552703 34.8428887,25.2552703" id="Fill-49" fill="#898D8D"></path>
                        <path d="M6.60128435,32.9787838 L6.60128435,30.4152703 C6.60128435,29.9382432 6.83490043,29.4260811 7.22607156,29.0422973 C7.65663144,28.622027 8.23523872,28.3963514 8.85187653,28.4044595 C9.95476178,28.4233784 10.8661362,29.267973 10.9680037,30.3706757 C10.9693619,30.3855405 10.9707201,30.4004054 10.9707201,30.4152703 L10.9707201,32.9787838 L12.8070512,32.9787838 L12.8070512,30.4152703 C12.8070512,29.9382432 13.0406673,29.4260811 13.4318384,29.0422973 C13.8623983,28.622027 14.4410056,28.3963514 15.0576434,28.4044595 C15.4012764,28.4112162 15.7326852,28.4963514 16.0260636,28.6504054 L16.6943143,25.2558108 L3.04814665,25.2558108 L3.04814665,28.2625676 C3.04814665,30.0233784 3.42709367,31.5882432 4.06410498,32.9787838 L6.60128435,32.9787838 Z" id="Fill-50" fill="#898D8D"></path>
                        <path d="M7.69615602,23.3741892 L8.4513336,23.3741892 C8.50973763,23.4674324 8.54233522,23.5741892 8.55727578,23.685 C8.55999225,23.7471622 8.56406695,23.8106757 8.56949988,23.8741892 C8.56814165,24.0363514 8.53961875,24.1971622 8.50566293,24.3295946 L5.86118315,24.3295946 C5.47951966,24.0701351 5.28800879,23.0390541 5.27171,22.1917568 L6.42892457,21.8363514 C6.62451013,21.7755405 6.75761697,21.5958108 6.75761697,21.3931081 L6.75761697,20.9498649 C6.75761697,20.7985135 6.68427239,20.657973 6.56067318,20.5714865 L5.2757847,19.6660811 L5.2757847,18.9039189 L5.72400161,18.6714865 C5.87748194,18.5917568 5.97391649,18.4322973 5.97391649,18.2606757 L5.97391649,17.2309459 C5.97391649,17.0404054 5.85846668,16.8714865 5.68325462,16.7998649 L5.27442646,16.6363514 L5.27306823,15.8633784 L6.49411976,15.8525676 L7.07408528,16.7985135 L7.07815997,18.1174324 L6.67883945,19.3687838 C6.635376,19.5106757 6.65982419,19.6633784 6.74810934,19.7836486 C6.83503626,19.9025676 6.97629249,19.9728378 7.1243399,19.9728378 L7.47612226,19.9728378 C7.70430542,19.9728378 7.89853275,19.807973 7.93520504,19.5836486 C7.96916087,19.3782432 8.08053598,18.7863514 8.18376169,18.5201351 C8.26389744,18.3133784 8.59666454,17.8687838 8.80583243,17.6201351 C8.9525216,17.4458108 8.94980514,17.1904054 8.8003995,17.0174324 L7.19904272,15.1890541 C7.16780336,14.9133784 7.11075757,14.2606757 7.20990858,13.7985135 C7.31856723,13.2958108 7.66899136,12.6566216 7.7939488,12.4525676 C7.85099459,12.3606757 7.87272632,12.2525676 7.85778575,12.1444595 L7.83469579,11.9782432 L7.9379215,11.9782432 L9.8312984,13.1741892 C9.90600122,13.2201351 9.9915699,13.2458108 10.0812133,13.2458108 L10.6000583,13.2458108 L10.568819,13.9377027 L9.95897231,14.157973 C9.77289438,14.2241892 9.6506534,14.3998649 9.6506534,14.5958108 L9.6547281,15.0714865 C9.65608633,15.3268919 9.86389599,15.5322973 10.1192438,15.5322973 L11.7138094,15.5377027 L12.130787,15.9674324 C12.2951332,16.1377027 12.5613469,16.1566216 12.748783,16.0133784 C12.748783,16.0133784 13.4727212,15.4390541 13.5053188,15.3728378 L13.7633831,14.8309459 L14.6937728,14.8309459 L14.6937728,15.9201351 L14.6937728,16.5174324 C14.6937728,16.5174324 12.993265,17.0971622 12.8520087,17.1660811 C12.7419919,17.2214865 12.6808714,17.7444595 12.7012449,17.8714865 C12.7202601,17.9971622 12.713469,18.0471622 12.8968304,18.1822973 C12.8968304,18.1822973 13.3912273,18.5687838 13.5419911,18.6228378 L14.036388,18.1539189 L14.6910563,18.1971622 L14.6896981,19.7606757 L14.0649109,20.1322973 L12.1117717,18.8025676 C11.909395,18.6647297 11.6323154,18.7066216 11.4815516,18.8998649 L11.1759491,19.2890541 C11.0279017,19.4782432 11.0482752,19.7485135 11.2234873,19.9133784 L12.3413131,20.9552703 L12.3304472,21.8025676 L11.2085467,22.2985135 C11.0414841,22.3714865 10.9328254,22.5390541 10.9328254,22.7214865 L10.9328254,22.9106757 C10.9328254,23.1674324 11.1406351,23.3741892 11.3986994,23.3741892 L12.7474248,23.3741892 C12.9810409,23.662027 12.888681,24.0701351 12.7908882,24.3295946 L9.68189276,24.3295946 C9.57595058,24.2187838 9.52162126,24.0241892 9.49988953,23.8052703 C9.4985313,23.7471622 9.4944566,23.6863514 9.48902367,23.6268919 C9.48087427,23.3322973 9.51890479,23.0282432 9.55829355,22.8552703 L10.2822318,21.9336486 C10.341994,21.8566216 10.3759499,21.7660811 10.3800246,21.6701351 L10.4017563,21.2282432 C10.4099057,21.0687838 10.3352029,20.9187838 10.2048125,20.8268919 C10.0744221,20.7363514 9.90735945,20.7160811 9.76067028,20.7768919 L8.59258984,21.2512162 C8.44046774,21.3133784 8.33180909,21.4498649 8.30871913,21.612027 L8.23944925,22.0755405 L7.56169095,22.2795946 C7.36474715,22.3377027 7.23028208,22.5187838 7.23028208,22.7228378 L7.23028208,22.9106757 C7.23028208,23.1674324 7.43944997,23.3741892 7.69615602,23.3741892" id="Fill-51" fill="#898D8D"></path>
                        <path d="M30.1865941,23.3741892 L29.4314165,23.3741892 C29.3730125,23.4674324 29.3404149,23.5741892 29.3241161,23.685 C29.3227578,23.7471622 29.3186831,23.8106757 29.3132502,23.8741892 C29.3146084,24.0363514 29.3431313,24.1971622 29.3757289,24.3295946 L32.0215669,24.3295946 C32.4032304,24.0701351 32.5933831,23.0390541 32.6110401,22.1917568 L31.4538255,21.8363514 C31.2582399,21.7755405 31.1237749,21.5958108 31.1237749,21.3931081 L31.1237749,20.9498649 C31.1237749,20.7985135 31.1984777,20.657973 31.3207187,20.5714865 L32.6069654,19.6660811 L32.6069654,18.9039189 L32.1587485,18.6714865 C32.0052681,18.5917568 31.9074754,18.4322973 31.9074754,18.2606757 L31.9074754,17.2309459 C31.9074754,17.0404054 32.0242834,16.8714865 32.1981372,16.7998649 L32.6083236,16.6363514 L32.6083236,15.8633784 L31.3886303,15.8525676 L30.8086648,16.7985135 L30.8045901,18.1174324 L31.2025524,19.3687838 C31.2473741,19.5106757 31.2215677,19.6633784 31.1346407,19.7836486 C31.0463556,19.9025676 30.9064576,19.9728378 30.7584102,19.9728378 L30.4066278,19.9728378 C30.1784447,19.9728378 29.9842173,19.807973 29.9461868,19.5836486 C29.912231,19.3782432 29.8022141,18.7863514 29.6976302,18.5201351 C29.6174944,18.3133784 29.2860855,17.8687838 29.0769176,17.6201351 C28.9302285,17.4458108 28.9315867,17.1904054 29.0823506,17.0174324 L30.6837074,15.1890541 C30.7149467,14.9133784 30.7719925,14.2606757 30.6728415,13.7985135 C30.5641829,13.2958108 30.2137587,12.6566216 30.0888013,12.4525676 C30.0317555,12.3606757 30.0100238,12.2525676 30.0249643,12.1444595 L30.0480543,11.9782432 L29.9448286,11.9782432 L28.0514517,13.1741892 C27.9767489,13.2201351 27.8898219,13.2458108 27.8015368,13.2458108 L27.2826918,13.2458108 L27.3139311,13.9377027 L27.9237778,14.157973 C28.1084975,14.2241892 28.2320967,14.3998649 28.2307384,14.5958108 L28.228022,15.0714865 C28.2266637,15.3268919 28.0188541,15.5322973 27.7635063,15.5322973 L26.1689407,15.5377027 L25.7519631,15.9674324 C25.5876169,16.1377027 25.3214032,16.1566216 25.1339671,16.0133784 C25.1339671,16.0133784 24.4086706,15.4390541 24.3774312,15.3728378 L24.1180087,14.8309459 L23.1889773,14.8309459 L23.1889773,15.9201351 L23.1889773,16.5174324 C23.1889773,16.5174324 24.8894851,17.0971622 25.0293831,17.1660811 C25.1407582,17.2214865 25.2018787,17.7444595 25.1815052,17.8714865 C25.1624899,17.9971622 25.1692811,18.0471622 24.9859197,18.1822973 C24.9859197,18.1822973 24.4915228,18.5687838 24.3394007,18.6228378 L23.8463621,18.1539189 L23.1916938,18.1971622 L23.193052,19.7606757 L23.8178392,20.1322973 L25.7709784,18.8025676 C25.9733551,18.6647297 26.2504346,18.7066216 26.3998403,18.8998649 L26.7068009,19.2890541 C26.8548483,19.4782432 26.8344749,19.7485135 26.6579046,19.9133784 L25.541437,20.9552703 L25.5523028,21.8025676 L26.6742034,22.2985135 C26.841266,22.3714865 26.9499247,22.5390541 26.9499247,22.7214865 L26.9499247,22.9106757 C26.9499247,23.1674324 26.7407568,23.3741892 26.4840507,23.3741892 L25.1353253,23.3741892 C24.9017092,23.662027 24.994069,24.0701351 25.0918618,24.3295946 L28.2008573,24.3295946 C28.3067995,24.2187838 28.3611288,24.0241892 28.3828605,23.8052703 C28.3842188,23.7471622 28.3882935,23.6863514 28.3937264,23.6268919 C28.4018758,23.3322973 28.3638453,23.0282432 28.3244565,22.8552703 L27.6005183,21.9336486 C27.540756,21.8566216 27.5068002,21.7660811 27.5013673,21.6701351 L27.4809938,21.2282432 C27.4728444,21.0687838 27.5475472,20.9187838 27.6779376,20.8268919 C27.808328,20.7363514 27.9753906,20.7160811 28.1220798,20.7768919 L29.2901602,21.2512162 C29.4422823,21.3133784 29.550941,21.4498649 29.5740309,21.612027 L29.6433008,22.0755405 L30.3210591,22.2795946 C30.5180029,22.3377027 30.652468,22.5187838 30.652468,22.7228378 L30.652468,22.9106757 C30.652468,23.1674324 30.4433001,23.3741892 30.1865941,23.3741892" id="Fill-52" fill="#898D8D"></path>
                        <path d="M103.421706,19.2666216 L103.421706,19.2490541 C103.421706,17.4882432 104.721535,15.9287838 106.657017,15.9287838 C107.744962,15.9287838 108.418645,16.2409459 109.062448,16.7814865 L108.592499,17.3314865 C108.094028,16.9017568 107.542585,16.5977027 106.629853,16.5977027 C105.200991,16.5977027 104.178242,17.7990541 104.178242,19.2301351 L104.178242,19.2490541 C104.178242,20.7801351 105.164319,21.9166216 106.730362,21.9166216 C107.467882,21.9166216 108.149715,21.6328378 108.592499,21.2747297 L108.592499,19.6787838 L106.629853,19.6787838 L106.629853,19.0274324 L109.293348,19.0274324 L109.293348,21.5868919 C108.694367,22.117973 107.791142,22.567973 106.703197,22.567973 C104.675355,22.567973 103.421706,21.1004054 103.421706,19.2666216" id="Fill-53" fill="#898D8D"></path>
                        <path d="M111.678541,19.2666216 L111.678541,19.2490541 C111.678541,17.4787838 113.015042,15.9287838 114.979047,15.9287838 C116.941694,15.9287838 118.260538,17.4598649 118.260538,19.2301351 L118.260538,19.2490541 C118.260538,21.0193243 116.924037,22.567973 114.96139,22.567973 C112.997385,22.567973 111.678541,21.0368919 111.678541,19.2666216 M117.50536,19.2666216 L117.50536,19.2490541 C117.50536,17.7909459 116.435076,16.5977027 114.96139,16.5977027 C113.486349,16.5977027 112.435076,17.772027 112.435076,19.2301351 L112.435076,19.2490541 C112.435076,20.7071622 113.504006,21.8990541 114.979047,21.8990541 C116.454088,21.8990541 117.50536,20.7260811 117.50536,19.2666216" id="Fill-54" fill="#898D8D"></path>
                        <path d="M120.868617,16.037973 L123.614964,16.037973 C124.351127,16.037973 124.933809,16.2501351 125.30189,16.6068919 C125.569462,16.8825676 125.716151,17.2217568 125.716151,17.6339189 L125.716151,17.6528378 C125.716151,18.4866216 125.200022,18.9177027 124.693402,19.137973 C125.459445,19.3677027 126.076083,19.8082432 126.076083,20.687973 L126.076083,20.7068919 C126.076083,21.8068919 125.145693,22.4582432 123.734489,22.4582432 L120.868617,22.4582432 L120.868617,16.037973 Z M124.97863,17.7352703 C124.97863,17.1028378 124.47201,16.6893243 123.551128,16.6893243 L121.587123,16.6893243 L121.587123,18.9001351 L123.49544,18.9001351 C124.3715,18.9001351 124.97863,18.5055405 124.97863,17.7528378 L124.97863,17.7352703 Z M123.624472,19.542027 L121.587123,19.542027 L121.587123,21.8068919 L123.753504,21.8068919 C124.730074,21.8068919 125.338562,21.3758108 125.338562,20.6609459 L125.338562,20.642027 C125.338562,19.9460811 124.749089,19.542027 123.624472,19.542027 L123.624472,19.542027 Z" id="Fill-55" fill="#898D8D"></path>
                        <polygon id="Fill-56" fill="#898D8D" points="128.67968 22.4587838 129.407693 22.4587838 129.407693 16.0385135 128.67968 16.0385135"></polygon>
                        <polygon id="Fill-57" fill="#898D8D" points="132.355873 16.037973 137.018687 16.037973 137.018687 16.6987838 133.083886 16.6987838 133.083886 18.8906757 136.604426 18.8906757 136.604426 19.5514865 133.083886 19.5514865 133.083886 21.7974324 137.064867 21.7974324 137.064867 22.4582432 132.355873 22.4582432"></polygon>
                        <path d="M139.4813,16.037973 L142.254812,16.037973 C143.04802,16.037973 143.685031,16.2771622 144.089785,16.6798649 C144.403536,16.992027 144.586898,17.442027 144.586898,17.9460811 L144.586898,17.965 C144.586898,19.0271622 143.849377,19.6514865 142.836136,19.8352703 L144.817798,22.4582432 L143.92408,22.4582432 L142.053793,19.9622973 L140.209313,19.9622973 L140.209313,22.4582432 L139.4813,22.4582432 L139.4813,16.037973 Z M142.190975,19.3122973 C143.158037,19.3122973 143.849377,18.8177027 143.849377,17.992027 L143.849377,17.9731081 C143.849377,17.1852703 143.242247,16.7082432 142.199124,16.7082432 L140.209313,16.7082432 L140.209313,19.3122973 L142.190975,19.3122973 Z" id="Fill-58" fill="#898D8D"></path>
                        <polygon id="Fill-59" fill="#898D8D" points="147.212227 16.037973 147.89406 16.037973 151.959251 21.1839189 151.959251 16.037973 152.669607 16.037973 152.669607 22.4582432 152.088283 22.4582432 147.921224 17.1947297 147.921224 22.4582432 147.212227 22.4582432"></polygon>
                        <path d="M155.274698,19.2666216 L155.274698,19.2490541 C155.274698,17.4787838 156.611199,15.9287838 158.575204,15.9287838 C160.537851,15.9287838 161.856696,17.4598649 161.856696,19.2301351 L161.856696,19.2490541 C161.856696,21.0193243 160.520194,22.567973 158.557547,22.567973 C156.593542,22.567973 155.274698,21.0368919 155.274698,19.2666216 M161.101518,19.2666216 L161.101518,19.2490541 C161.101518,17.7909459 160.031234,16.5977027 158.557547,16.5977027 C157.082506,16.5977027 156.031234,17.772027 156.031234,19.2301351 L156.031234,19.2490541 C156.031234,20.7071622 157.100163,21.8990541 158.575204,21.8990541 C160.050246,21.8990541 161.101518,20.7260811 161.101518,19.2666216" id="Fill-60" fill="#898D8D"></path>
                        <path d="M167.821104,16.037973 L170.060831,16.037973 C172.088673,16.037973 173.489011,17.4231081 173.489011,19.2298649 L173.489011,19.2487838 C173.489011,21.0555405 172.088673,22.4582432 170.060831,22.4582432 L167.821104,22.4582432 L167.821104,16.037973 Z M168.549117,16.7082432 L168.549117,21.787973 L170.060831,21.787973 C171.692069,21.787973 172.733833,20.687973 172.733833,19.2663514 L172.733833,19.2487838 C172.733833,17.8271622 171.692069,16.7082432 170.060831,16.7082432 L168.549117,16.7082432 Z" id="Fill-61" fill="#898D8D"></path>
                        <polygon id="Fill-62" fill="#898D8D" points="175.80344 16.037973 180.466254 16.037973 180.466254 16.6987838 176.531453 16.6987838 176.531453 18.8906757 180.051993 18.8906757 180.051993 19.5514865 176.531453 19.5514865 176.531453 21.7974324 180.513792 21.7974324 180.513792 22.4582432 175.80344 22.4582432"></polygon>
                        <polygon id="Fill-63" fill="#898D8D" points="186.312497 16.037973 187.039152 16.037973 187.039152 21.787973 190.672425 21.787973 190.672425 22.4582432 186.312497 22.4582432"></polygon>
                        <path d="M195.142234,15.9925676 L195.824067,15.9925676 L198.764642,22.4587838 L197.9823,22.4587838 L197.225764,20.7614865 L193.713373,20.7614865 L192.948688,22.4587838 L192.20166,22.4587838 L195.142234,15.9925676 Z M196.939177,20.102027 L195.473643,16.8371622 L193.99996,20.102027 L196.939177,20.102027 Z" id="Fill-64" fill="#898D8D"></path>
                        <path d="M103.283845,30.2727027 L103.283845,30.2551351 C103.283845,28.4294595 104.666527,26.9348649 106.648189,26.9348649 C107.865165,26.9348649 108.593178,27.3389189 109.192159,27.9254054 L108.288934,28.9618919 C107.790463,28.5118919 107.283845,28.2375676 106.638681,28.2375676 C105.550736,28.2375676 104.768394,29.1348649 104.768394,30.2362162 L104.768394,30.2551351 C104.768394,31.3551351 105.533079,32.2713514 106.638681,32.2713514 C107.376202,32.2713514 107.828493,31.9781081 108.335114,31.52 L109.238339,32.4281081 C108.575521,33.1348649 107.838001,33.5740541 106.592501,33.5740541 C104.693691,33.5740541 103.283845,32.1159459 103.283845,30.2727027" id="Fill-65" fill="#898D8D"></path>
                        <polygon id="Fill-66" fill="#898D8D" points="110.410087 33.4628378 111.82944 33.4628378 111.82944 27.0439189 110.410087 27.0439189"></polygon>
                        <path d="M113.467198,30.7135135 L113.467198,27.0445946 L114.886551,27.0445946 L114.886551,30.677027 C114.886551,31.7216216 115.412188,32.2621622 116.27874,32.2621622 C117.145293,32.2621622 117.669571,31.7405405 117.669571,30.7216216 L117.669571,27.0445946 L119.090283,27.0445946 L119.090283,30.6675676 C119.090283,32.6121622 117.99283,33.5648649 116.259725,33.5648649 C114.527978,33.5648649 113.467198,32.6013514 113.467198,30.7135135" id="Fill-67" fill="#898D8D"></path>
                        <path d="M120.704135,27.0441892 L123.220941,27.0441892 C125.248783,27.0441892 126.649121,28.4293243 126.649121,30.2360811 L126.649121,30.255 C126.649121,32.0604054 125.248783,33.4631081 123.220941,33.4631081 L120.704135,33.4631081 L120.704135,27.0441892 Z M123.220941,32.1901351 C124.38223,32.1901351 125.165931,31.4090541 125.165931,30.2725676 L125.165931,30.255 C125.165931,29.1171622 124.38223,28.3198649 123.220941,28.3198649 L122.123489,28.3198649 L122.123489,32.1901351 L123.220941,32.1901351 Z" id="Fill-68" fill="#898D8D"></path>
                        <path d="M129.793838,26.9986486 L131.103175,26.9986486 L133.868538,33.4648649 L132.383989,33.4648649 L131.794516,32.0243243 L129.065825,32.0243243 L128.476352,33.4648649 L127.028476,33.4648649 L129.793838,26.9986486 Z M131.287895,30.777027 L130.43085,28.6945946 L129.572446,30.777027 L131.287895,30.777027 Z" id="Fill-69" fill="#898D8D"></path>
                        <path d="M134.895905,27.0441892 L137.412711,27.0441892 C139.439195,27.0441892 140.840891,28.4293243 140.840891,30.2360811 L140.840891,30.255 C140.840891,32.0604054 139.439195,33.4631081 137.412711,33.4631081 L134.895905,33.4631081 L134.895905,27.0441892 Z M137.412711,32.1901351 C138.574,32.1901351 139.357701,31.4090541 139.357701,30.2725676 L139.357701,30.255 C139.357701,29.1171622 138.574,28.3198649 137.412711,28.3198649 L136.315259,28.3198649 L136.315259,32.1901351 L137.412711,32.1901351 Z" id="Fill-70" fill="#898D8D"></path>
                        <path d="M144.961906,27.0441892 L147.478712,27.0441892 C149.506554,27.0441892 150.906892,28.4293243 150.906892,30.2360811 L150.906892,30.255 C150.906892,32.0604054 149.506554,33.4631081 147.478712,33.4631081 L144.961906,33.4631081 L144.961906,27.0441892 Z M147.478712,32.1901351 C148.640001,32.1901351 149.423702,31.4090541 149.423702,30.2725676 L149.423702,30.255 C149.423702,29.1171622 148.640001,28.3198649 147.478712,28.3198649 L146.38126,28.3198649 L146.38126,32.1901351 L147.478712,32.1901351 Z" id="Fill-71" fill="#898D8D"></path>
                        <polygon id="Fill-72" fill="#898D8D" points="152.253852 27.0441892 157.120401 27.0441892 157.120401 28.3009459 153.663698 28.3009459 153.663698 29.6036486 156.70614 29.6036486 156.70614 30.8604054 153.663698 30.8604054 153.663698 32.2077027 157.166581 32.2077027 157.166581 33.4631081 152.253852 33.4631081"></polygon>
                        <polygon id="Fill-73" fill="#898D8D" points="161.287324 27.0441892 162.816695 27.0441892 164.513128 29.7590541 166.209561 27.0441892 167.738931 27.0441892 167.738931 33.4631081 166.329085 33.4631081 166.329085 29.2725676 164.513128 32.0158108 164.476455 32.0158108 162.679513 29.3009459 162.679513 33.4631081 161.287324 33.4631081"></polygon>
                        <path d="M169.431969,27.0441892 L174.298518,27.0441892 L174.298518,28.3009459 L170.841815,28.3009459 L170.841815,29.6036486 L173.882899,29.6036486 L173.882899,30.8604054 L170.841815,30.8604054 L170.841815,32.2077027 L174.344698,32.2077027 L174.344698,33.4631081 L169.431969,33.4631081 L169.431969,27.0441892 Z M172.132136,24.9171622 L173.339605,25.4401351 L172.160659,26.5401351 L171.090371,26.5401351 L172.132136,24.9171622 Z" id="Fill-74" fill="#898D8D"></path>
                        <polygon id="Fill-75" fill="#898D8D" points="177.506529 30.2001351 175.349654 27.0447297 177.008057 27.0447297 178.363574 29.1271622 179.72724 27.0447297 181.340821 27.0447297 179.183946 30.1812162 181.43318 33.465 179.77342 33.465 178.326901 31.2636486 176.870875 33.465 175.257295 33.465"></polygon>
                        <polygon id="Fill-76" fill="#898D8D" points="182.521397 33.4628378 183.94075 33.4628378 183.94075 27.0439189 182.521397 27.0439189"></polygon>
                        <path d="M185.313652,30.2727027 L185.313652,30.2551351 C185.313652,28.4294595 186.696333,26.9348649 188.679354,26.9348649 C189.894972,26.9348649 190.624344,27.3389189 191.223324,27.9254054 L190.318741,28.9618919 C189.82027,28.5118919 189.313652,28.2375676 188.668488,28.2375676 C187.580543,28.2375676 186.798201,29.1348649 186.798201,30.2362162 L186.798201,30.2551351 C186.798201,31.3551351 187.562886,32.2713514 188.668488,32.2713514 C189.406008,32.2713514 189.8583,31.9781081 190.364921,31.52 L191.268146,32.4281081 C190.605328,33.1348649 189.867808,33.5740541 188.623666,33.5740541 C186.723498,33.5740541 185.313652,32.1159459 185.313652,30.2727027" id="Fill-77" fill="#898D8D"></path>
                        <path d="M191.938434,30.2727027 L191.938434,30.2551351 C191.938434,28.4294595 193.384952,26.9348649 195.376122,26.9348649 C197.36865,26.9348649 198.794795,28.4105405 198.794795,30.2362162 L198.794795,30.2551351 C198.794795,32.0794595 197.349635,33.5740541 195.358465,33.5740541 C193.367295,33.5740541 191.938434,32.0983784 191.938434,30.2727027 M197.312962,30.2727027 L197.312962,30.2551351 C197.312962,29.1537838 196.500739,28.2375676 195.358465,28.2375676 C194.214833,28.2375676 193.422983,29.1348649 193.422983,30.2362162 L193.422983,30.2551351 C193.422983,31.3551351 194.23249,32.2713514 195.376122,32.2713514 C196.519754,32.2713514 197.312962,31.3740541 197.312962,30.2727027" id="Fill-78" fill="#898D8D"></path>
                        <path d="M72.2745695,43.0498649 C70.4572537,43.0498649 68.9781379,44.5025676 68.9781379,46.2877027 C68.9781379,48.0714865 70.4572537,49.5241892 72.2745695,49.5241892 C74.0918854,49.5241892 75.5696429,48.0714865 75.5696429,46.2877027 C75.5696429,44.5025676 74.0918854,43.0498649 72.2745695,43.0498649 M72.2745695,48.0268919 C71.3183735,48.0268919 70.5414641,47.2471622 70.5414641,46.2877027 C70.5414641,45.3268919 71.3183735,44.5458108 72.2745695,44.5458108 C73.2294074,44.5458108 74.0076749,45.3268919 74.0076749,46.2877027 C74.0076749,47.2471622 73.2294074,48.0268919 72.2745695,48.0268919" id="Fill-39" fill="#00B140"></path>
                    </g>
                </g>
                <path d="M224.9334,18.0592002 C224.9334,18.4374021 224.865201,18.7690988 224.7288,19.0543002 C224.592399,19.3395016 224.404851,19.5781992 224.16615,19.7704002 C223.927449,19.9626012 223.648452,20.1067497 223.32915,20.2028502 C223.009848,20.2989507 222.667302,20.3470002 222.3015,20.3470002 L221.2134,20.3470002 L221.2134,22.3000002 L219.7812,22.3000002 L219.7812,15.7900002 L222.441,15.7900002 C222.831602,15.7900002 223.180348,15.8442496 223.48725,15.9527502 C223.794152,16.0612507 224.054549,16.2146992 224.26845,16.4131002 C224.482351,16.6115012 224.646649,16.8486488 224.76135,17.1245502 C224.876051,17.4004516 224.9334,17.7057985 224.9334,18.0406002 L224.9334,18.0592002 Z M223.4826,18.0871002 L223.4826,18.0685002 C223.4826,17.7460986 223.378751,17.501201 223.17105,17.3338002 C222.963349,17.1663994 222.679702,17.0827002 222.3201,17.0827002 L221.2134,17.0827002 L221.2134,19.0729002 L222.348,19.0729002 C222.707602,19.0729002 222.986599,18.9783511 223.185,18.7892502 C223.383401,18.6001492 223.4826,18.3661016 223.4826,18.0871002 Z M230.6715,22.3000002 L225.9936,22.3000002 L225.9936,15.7900002 L227.4258,15.7900002 L227.4258,20.9980002 L230.6715,20.9980002 L230.6715,22.3000002 Z M238.0929,22.3000002 L236.5956,22.3000002 L236.0004,20.8399002 L233.2476,20.8399002 L232.6524,22.3000002 L231.1923,22.3000002 L233.9823,15.7435002 L235.3029,15.7435002 L238.0929,22.3000002 Z M235.4889,19.5751002 L234.624,17.4640002 L233.7591,19.5751002 L235.4889,19.5751002 Z M244.0263,17.1106002 L242.0454,17.1106002 L242.0454,22.3000002 L240.6132,22.3000002 L240.6132,17.1106002 L238.6323,17.1106002 L238.6323,15.7900002 L244.0263,15.7900002 L244.0263,17.1106002 Z M251.4663,22.3000002 L249.969,22.3000002 L249.3738,20.8399002 L246.621,20.8399002 L246.0258,22.3000002 L244.5657,22.3000002 L247.3557,15.7435002 L248.6763,15.7435002 L251.4663,22.3000002 Z M248.8623,19.5751002 L247.9974,17.4640002 L247.1325,19.5751002 L248.8623,19.5751002 Z M257.4276,17.0920002 L253.9029,17.0920002 L253.9029,18.4777002 L257.0091,18.4777002 L257.0091,19.7797002 L253.9029,19.7797002 L253.9029,22.3000002 L252.4707,22.3000002 L252.4707,15.7900002 L257.4276,15.7900002 L257.4276,17.0920002 Z M265.2024,19.0450002 C265.2024,19.5100025 265.115601,19.9455482 264.942,20.3516502 C264.768399,20.7577522 264.528152,21.1142487 264.22125,21.4211502 C263.914348,21.7280517 263.548552,21.9698493 263.12385,22.1465502 C262.699148,22.3232511 262.235703,22.4116002 261.7335,22.4116002 C261.231297,22.4116002 260.769402,22.3232511 260.3478,22.1465502 C259.926198,21.9698493 259.561952,21.7311517 259.25505,21.4304502 C258.948148,21.1297487 258.709451,20.7763522 258.53895,20.3702502 C258.368449,19.9641482 258.2832,19.5286025 258.2832,19.0636002 L258.2832,19.0450002 C258.2832,18.5799979 258.369999,18.1444522 258.5436,17.7383502 C258.717201,17.3322482 258.957448,16.9757517 259.26435,16.6688502 C259.571252,16.3619487 259.937048,16.1201511 260.36175,15.9434502 C260.786452,15.7667493 261.249897,15.6784002 261.7521,15.6784002 C262.254303,15.6784002 262.716198,15.7667493 263.1378,15.9434502 C263.559402,16.1201511 263.923648,16.3588487 264.23055,16.6595502 C264.537452,16.9602517 264.776149,17.3136482 264.94665,17.7197502 C265.117151,18.1258522 265.2024,18.5613979 265.2024,19.0264002 L265.2024,19.0450002 Z M263.7051,19.0636002 L263.7051,19.0450002 C263.7051,18.7659988 263.65705,18.5025014 263.56095,18.2545002 C263.46485,18.006499 263.328451,17.7895011 263.15175,17.6035002 C262.975049,17.4174993 262.765801,17.2702507 262.524,17.1617502 C262.282199,17.0532496 262.018701,16.9990002 261.7335,16.9990002 C261.442099,16.9990002 261.177051,17.0516997 260.93835,17.1571002 C260.699649,17.2625007 260.495051,17.4081993 260.32455,17.5942002 C260.154049,17.7802011 260.02075,17.995649 259.92465,18.2405502 C259.82855,18.4854514 259.7805,18.7473988 259.7805,19.0264002 L259.7805,19.0450002 C259.7805,19.3240016 259.82855,19.587499 259.92465,19.8355002 C260.02075,20.0835014 260.157149,20.3004993 260.33385,20.4865002 C260.510551,20.6725011 260.718249,20.8197496 260.95695,20.9282502 C261.195651,21.0367507 261.460699,21.0910002 261.7521,21.0910002 C262.037301,21.0910002 262.300799,21.0383007 262.5426,20.9329002 C262.784401,20.8274997 262.990549,20.6818011 263.16105,20.4958002 C263.331551,20.3097993 263.46485,20.0943514 263.56095,19.8494502 C263.65705,19.604549 263.7051,19.3426016 263.7051,19.0636002 Z M272.103,22.3000002 L270.429,22.3000002 L269.034,20.2168002 L267.9087,20.2168002 L267.9087,22.3000002 L266.4765,22.3000002 L266.4765,15.7900002 L269.4525,15.7900002 C270.227504,15.7900002 270.830448,15.9790983 271.26135,16.3573002 C271.692252,16.7355021 271.9077,17.2624968 271.9077,17.9383002 L271.9077,17.9569002 C271.9077,18.4839028 271.779051,18.9132485 271.52175,19.2449502 C271.264449,19.5766518 270.928102,19.8199994 270.5127,19.9750002 L272.103,22.3000002 Z M270.4569,18.0313002 L270.4569,18.0127002 C270.4569,17.7026986 270.357701,17.470201 270.1593,17.3152002 C269.960899,17.1601994 269.685002,17.0827002 269.3316,17.0827002 L267.9087,17.0827002 L267.9087,18.9520002 L269.3595,18.9520002 C269.712902,18.9520002 269.984149,18.868301 270.17325,18.7009002 C270.362351,18.5334994 270.4569,18.3103016 270.4569,18.0313002 Z M279.7104,22.3000002 L278.2875,22.3000002 L278.2875,18.0499002 L276.4554,20.8306002 L276.4182,20.8306002 L274.6047,18.0778002 L274.6047,22.3000002 L273.2004,22.3000002 L273.2004,15.7900002 L274.7442,15.7900002 L276.4554,18.5428002 L278.1666,15.7900002 L279.7104,15.7900002 L279.7104,22.3000002 Z M287.6154,22.3000002 L286.1181,22.3000002 L285.5229,20.8399002 L282.7701,20.8399002 L282.1749,22.3000002 L280.7148,22.3000002 L283.5048,15.7435002 L284.8254,15.7435002 L287.6154,22.3000002 Z M285.0114,19.5751002 L284.1465,17.4640002 L283.2816,19.5751002 L285.0114,19.5751002 Z M297.4083,19.0450002 C297.4083,19.5038025 297.324601,19.9315982 297.1572,20.3284002 C296.989799,20.7252022 296.752652,21.0692987 296.44575,21.3607002 C296.138848,21.6521016 295.773052,21.8814994 295.34835,22.0489002 C294.923648,22.216301 294.457103,22.3000002 293.9487,22.3000002 L291.4098,22.3000002 L291.4098,15.7900002 L293.9487,15.7900002 C294.457103,15.7900002 294.923648,15.8721494 295.34835,16.0364502 C295.773052,16.200751 296.138848,16.4285987 296.44575,16.7200002 C296.752652,17.0114016 296.989799,17.3539482 297.1572,17.7476502 C297.324601,18.1413522 297.4083,18.5675979 297.4083,19.0264002 L297.4083,19.0450002 Z M295.911,19.0636002 L295.911,19.0450002 C295.911,18.7597988 295.86295,18.4963014 295.76685,18.2545002 C295.67075,18.012699 295.537451,17.8050011 295.36695,17.6314002 C295.196449,17.4577993 294.990301,17.3229507 294.7485,17.2268502 C294.506699,17.1307497 294.240101,17.0827002 293.9487,17.0827002 L292.842,17.0827002 L292.842,21.0073002 L293.9487,21.0073002 C294.240101,21.0073002 294.506699,20.9608007 294.7485,20.8678002 C294.990301,20.7747997 295.196449,20.6415011 295.36695,20.4679002 C295.537451,20.2942993 295.67075,20.0897014 295.76685,19.8541002 C295.86295,19.618499 295.911,19.3550016 295.911,19.0636002 Z M300.1797,22.3000002 L298.7475,22.3000002 L298.7475,15.7900002 L300.1797,15.7900002 L300.1797,22.3000002 Z M307.722,21.3793002 C307.387198,21.6645016 306.988852,21.9078492 306.52695,22.1093502 C306.065048,22.3108512 305.536503,22.4116002 304.9413,22.4116002 C304.432897,22.4116002 303.969452,22.327901 303.55095,22.1605002 C303.132448,21.9930994 302.772852,21.7606017 302.47215,21.4630002 C302.171448,21.1653987 301.937401,20.8120022 301.77,20.4028002 C301.602599,19.9935981 301.5189,19.5472026 301.5189,19.0636002 L301.5189,19.0450002 C301.5189,18.5799979 301.604149,18.1444522 301.77465,17.7383502 C301.945151,17.3322482 302.182298,16.9757517 302.4861,16.6688502 C302.789902,16.3619487 303.149498,16.1201511 303.5649,15.9434502 C303.980302,15.7667493 304.435998,15.6784002 304.932,15.6784002 C305.223401,15.6784002 305.488449,15.69855 305.72715,15.7388502 C305.965851,15.7791504 306.187499,15.8364998 306.3921,15.9109002 C306.596701,15.9853006 306.788899,16.0782996 306.9687,16.1899002 C307.148501,16.3015007 307.322099,16.4285995 307.4895,16.5712002 L306.5874,17.6593002 C306.463399,17.5538997 306.339401,17.4609006 306.2154,17.3803002 C306.091399,17.2996998 305.962751,17.2315005 305.82945,17.1757002 C305.696149,17.1198999 305.552001,17.0765003 305.397,17.0455002 C305.241999,17.0145 305.071501,16.9990002 304.8855,16.9990002 C304.625099,16.9990002 304.381751,17.0532496 304.15545,17.1617502 C303.929149,17.2702507 303.730751,17.4159493 303.56025,17.5988502 C303.389749,17.7817511 303.25645,17.995649 303.16035,18.2405502 C303.06425,18.4854514 303.0162,18.7473988 303.0162,19.0264002 L303.0162,19.0450002 C303.0162,19.3426017 303.06425,19.6169489 303.16035,19.8680502 C303.25645,20.1191514 303.392849,20.3376993 303.56955,20.5237002 C303.746251,20.7097011 303.953949,20.8538497 304.19265,20.9561502 C304.431351,21.0584507 304.696399,21.1096002 304.9878,21.1096002 C305.521003,21.1096002 305.970498,20.9794015 306.3363,20.7190002 L306.3363,19.7890002 L304.8948,19.7890002 L304.8948,18.5521002 L307.722,18.5521002 L307.722,21.3793002 Z M310.5957,22.3000002 L309.1635,22.3000002 L309.1635,15.7900002 L310.5957,15.7900002 L310.5957,22.3000002 Z M317.1522,17.1106002 L315.1713,17.1106002 L315.1713,22.3000002 L313.7391,22.3000002 L313.7391,17.1106002 L311.7582,17.1106002 L311.7582,15.7900002 L317.1522,15.7900002 L317.1522,17.1106002 Z M324.5922,22.3000002 L323.0949,22.3000002 L322.4997,20.8399002 L319.7469,20.8399002 L319.1517,22.3000002 L317.6916,22.3000002 L320.4816,15.7435002 L321.8022,15.7435002 L324.5922,22.3000002 Z M321.9882,19.5751002 L321.1233,17.4640002 L320.2584,19.5751002 L321.9882,19.5751002 Z M330.2745,22.3000002 L325.5966,22.3000002 L325.5966,15.7900002 L327.0288,15.7900002 L327.0288,20.9980002 L330.2745,20.9980002 L330.2745,22.3000002 Z M339.2955,18.0592002 C339.2955,18.4374021 339.227301,18.7690988 339.0909,19.0543002 C338.954499,19.3395016 338.766951,19.5781992 338.52825,19.7704002 C338.289549,19.9626012 338.010552,20.1067497 337.69125,20.2028502 C337.371948,20.2989507 337.029402,20.3470002 336.6636,20.3470002 L335.5755,20.3470002 L335.5755,22.3000002 L334.1433,22.3000002 L334.1433,15.7900002 L336.8031,15.7900002 C337.193702,15.7900002 337.542448,15.8442496 337.84935,15.9527502 C338.156252,16.0612507 338.416649,16.2146992 338.63055,16.4131002 C338.844451,16.6115012 339.008749,16.8486488 339.12345,17.1245502 C339.238151,17.4004516 339.2955,17.7057985 339.2955,18.0406002 L339.2955,18.0592002 Z M337.8447,18.0871002 L337.8447,18.0685002 C337.8447,17.7460986 337.740851,17.501201 337.53315,17.3338002 C337.325449,17.1663994 337.041802,17.0827002 336.6822,17.0827002 L335.5755,17.0827002 L335.5755,19.0729002 L336.7101,19.0729002 C337.069702,19.0729002 337.348699,18.9783511 337.5471,18.7892502 C337.745501,18.6001492 337.8447,18.3661016 337.8447,18.0871002 Z M346.6983,22.3000002 L345.201,22.3000002 L344.6058,20.8399002 L341.853,20.8399002 L341.2578,22.3000002 L339.7977,22.3000002 L342.5877,15.7435002 L343.9083,15.7435002 L346.6983,22.3000002 Z M344.0943,19.5751002 L343.2294,17.4640002 L342.3645,19.5751002 L344.0943,19.5751002 Z M353.3292,22.3000002 L351.6552,22.3000002 L350.2602,20.2168002 L349.1349,20.2168002 L349.1349,22.3000002 L347.7027,22.3000002 L347.7027,15.7900002 L350.6787,15.7900002 C351.453704,15.7900002 352.056648,15.9790983 352.48755,16.3573002 C352.918452,16.7355021 353.1339,17.2624968 353.1339,17.9383002 L353.1339,17.9569002 C353.1339,18.4839028 353.005251,18.9132485 352.74795,19.2449502 C352.490649,19.5766518 352.154302,19.8199994 351.7389,19.9750002 L353.3292,22.3000002 Z M351.6831,18.0313002 L351.6831,18.0127002 C351.6831,17.7026986 351.583901,17.470201 351.3855,17.3152002 C351.187099,17.1601994 350.911202,17.0827002 350.5578,17.0827002 L349.1349,17.0827002 L349.1349,18.9520002 L350.5857,18.9520002 C350.939102,18.9520002 351.210349,18.868301 351.39945,18.7009002 C351.588551,18.5334994 351.6831,18.3103016 351.6831,18.0313002 Z M360.7692,22.3000002 L359.2719,22.3000002 L358.6767,20.8399002 L355.9239,20.8399002 L355.3287,22.3000002 L353.8686,22.3000002 L356.6586,15.7435002 L357.9792,15.7435002 L360.7692,22.3000002 Z M358.1652,19.5751002 L357.3003,17.4640002 L356.4354,19.5751002 L358.1652,19.5751002 Z M221.2785,33.6000004 L219.8463,33.6000004 L219.8463,27.0900004 L221.2785,27.0900004 L221.2785,33.6000004 Z M228.6906,33.6000004 L227.4723,33.6000004 L224.3196,29.4615004 L224.3196,33.6000004 L222.906,33.6000004 L222.906,27.0900004 L224.2266,27.0900004 L227.277,31.0983004 L227.277,27.0900004 L228.6906,27.0900004 L228.6906,33.6000004 Z M236.1678,32.6793004 C235.832998,32.9645018 235.434652,33.2078494 234.97275,33.4093504 C234.510848,33.6108514 233.982303,33.7116004 233.3871,33.7116004 C232.878697,33.7116004 232.415252,33.6279012 231.99675,33.4605004 C231.578248,33.2930995 231.218652,33.0606019 230.91795,32.7630004 C230.617248,32.4653989 230.383201,32.1120024 230.2158,31.7028004 C230.048399,31.2935983 229.9647,30.8472028 229.9647,30.3636004 L229.9647,30.3450004 C229.9647,29.8799981 230.049949,29.4444524 230.22045,29.0383504 C230.390951,28.6322484 230.628098,28.2757519 230.9319,27.9688504 C231.235702,27.6619488 231.595298,27.4201513 232.0107,27.2434504 C232.426102,27.0667495 232.881798,26.9784004 233.3778,26.9784004 C233.669201,26.9784004 233.934249,26.9985502 234.17295,27.0388504 C234.411651,27.0791506 234.633299,27.1365 234.8379,27.2109004 C235.042501,27.2853008 235.234699,27.3782998 235.4145,27.4899004 C235.594301,27.6015009 235.767899,27.7285997 235.9353,27.8712004 L235.0332,28.9593004 C234.909199,28.8538999 234.785201,28.7609008 234.6612,28.6803004 C234.537199,28.5997 234.408551,28.5315007 234.27525,28.4757004 C234.141949,28.4199001 233.997801,28.3765005 233.8428,28.3455004 C233.687799,28.3145002 233.517301,28.2990004 233.3313,28.2990004 C233.070899,28.2990004 232.827551,28.3532498 232.60125,28.4617504 C232.374949,28.5702509 232.176551,28.7159495 232.00605,28.8988504 C231.835549,29.0817513 231.70225,29.2956492 231.60615,29.5405504 C231.51005,29.7854516 231.462,30.047399 231.462,30.3264004 L231.462,30.3450004 C231.462,30.6426019 231.51005,30.9169491 231.60615,31.1680504 C231.70225,31.4191516 231.838649,31.6376995 232.01535,31.8237004 C232.192051,32.0097013 232.399749,32.1538499 232.63845,32.2561504 C232.877151,32.3584509 233.142199,32.4096004 233.4336,32.4096004 C233.966803,32.4096004 234.416298,32.2794017 234.7821,32.0190004 L234.7821,31.0890004 L233.3406,31.0890004 L233.3406,29.8521004 L236.1678,29.8521004 L236.1678,32.6793004 Z M243.1707,33.6000004 L241.4967,33.6000004 L240.1017,31.5168004 L238.9764,31.5168004 L238.9764,33.6000004 L237.5442,33.6000004 L237.5442,27.0900004 L240.5202,27.0900004 C241.295204,27.0900004 241.898148,27.2790985 242.32905,27.6573004 C242.759952,28.0355023 242.9754,28.562497 242.9754,29.2383004 L242.9754,29.2569004 C242.9754,29.783903 242.846751,30.2132487 242.58945,30.5449504 C242.332149,30.876652 241.995802,31.1199996 241.5804,31.2750004 L243.1707,33.6000004 Z M241.5246,29.3313004 L241.5246,29.3127004 C241.5246,29.0026988 241.425401,28.7702012 241.227,28.6152004 C241.028599,28.4601996 240.752702,28.3827004 240.3993,28.3827004 L238.9764,28.3827004 L238.9764,30.2520004 L240.4272,30.2520004 C240.780602,30.2520004 241.051849,30.1683012 241.24095,30.0009004 C241.430051,29.8334995 241.5246,29.6103018 241.5246,29.3313004 Z M249.225,33.6000004 L244.2681,33.6000004 L244.2681,27.0900004 L249.1785,27.0900004 L249.1785,28.3641004 L245.691,28.3641004 L245.691,29.6847004 L248.76,29.6847004 L248.76,30.9588004 L245.691,30.9588004 L245.691,32.3259004 L249.225,32.3259004 L249.225,33.6000004 Z M255.2049,31.6749004 C255.2049,31.997302 255.146001,32.2840491 255.0282,32.5351504 C254.910399,32.7862516 254.746101,32.9970495 254.5353,33.1675504 C254.324499,33.3380512 254.073401,33.4682499 253.782,33.5581504 C253.490599,33.6480508 253.168202,33.6930004 252.8148,33.6930004 C252.318798,33.6930004 251.832102,33.6077512 251.3547,33.4372504 C250.877298,33.2667495 250.443302,33.0048021 250.0527,32.6514004 L250.899,31.6377004 C251.196601,31.8795016 251.501948,32.0716997 251.81505,32.2143004 C252.128152,32.3569011 252.470698,32.4282004 252.8427,32.4282004 C253.140301,32.4282004 253.371249,32.3739509 253.53555,32.2654504 C253.699851,32.1569498 253.782,32.0066013 253.782,31.8144004 L253.782,31.7958004 C253.782,31.7027999 253.76495,31.6206507 253.73085,31.5493504 C253.69675,31.47805 253.63165,31.4114007 253.53555,31.3494004 C253.43945,31.2874001 253.306151,31.2254007 253.13565,31.1634004 C252.965149,31.1014001 252.743501,31.0363007 252.4707,30.9681004 C252.142098,30.8875 251.844501,30.7976009 251.5779,30.6984004 C251.311299,30.5991999 251.085001,30.4767511 250.899,30.3310504 C250.712999,30.1853497 250.568851,30.0040015 250.46655,29.7870004 C250.364249,29.5699993 250.3131,29.300302 250.3131,28.9779004 L250.3131,28.9593004 C250.3131,28.6616989 250.368899,28.3935516 250.4805,28.1548504 C250.592101,27.9161492 250.748649,27.7100012 250.95015,27.5364004 C251.151651,27.3627995 251.391899,27.2295008 251.6709,27.1365004 C251.949901,27.0434999 252.256798,26.9970004 252.5916,26.9970004 C253.069002,26.9970004 253.507648,27.0682997 253.90755,27.2109004 C254.307452,27.3535011 254.674798,27.558099 255.0096,27.8247004 L254.2656,28.9035004 C253.974199,28.7050994 253.689001,28.548551 253.41,28.4338504 C253.130999,28.3191498 252.852001,28.2618004 252.573,28.2618004 C252.293999,28.2618004 252.084751,28.3160498 251.94525,28.4245504 C251.805749,28.5330509 251.736,28.6678996 251.736,28.8291004 L251.736,28.8477004 C251.736,28.9531009 251.75615,29.04455 251.79645,29.1220504 C251.83675,29.1995508 251.909599,29.2693001 252.015,29.3313004 C252.120401,29.3933007 252.264549,29.4522001 252.44745,29.5080004 C252.630351,29.5638007 252.861299,29.6289 253.1403,29.7033004 C253.468902,29.7901008 253.761849,29.8877498 254.01915,29.9962504 C254.276451,30.1047509 254.493449,30.2349496 254.67015,30.3868504 C254.846851,30.5387511 254.98015,30.7169994 255.07005,30.9216004 C255.15995,31.1262014 255.2049,31.371099 255.2049,31.6563004 L255.2049,31.6749004 Z M263.082,30.3450004 C263.082,30.8100027 262.995201,31.2455484 262.8216,31.6516504 C262.647999,32.0577524 262.407752,32.4142488 262.10085,32.7211504 C261.793948,33.0280519 261.428152,33.2698495 261.00345,33.4465504 C260.578748,33.6232513 260.115303,33.7116004 259.6131,33.7116004 C259.110897,33.7116004 258.649002,33.6232513 258.2274,33.4465504 C257.805798,33.2698495 257.441552,33.0311519 257.13465,32.7304504 C256.827748,32.4297489 256.589051,32.0763524 256.41855,31.6702504 C256.248049,31.2641484 256.1628,30.8286027 256.1628,30.3636004 L256.1628,30.3450004 C256.1628,29.8799981 256.249599,29.4444524 256.4232,29.0383504 C256.596801,28.6322484 256.837048,28.2757519 257.14395,27.9688504 C257.450852,27.6619488 257.816648,27.4201513 258.24135,27.2434504 C258.666052,27.0667495 259.129497,26.9784004 259.6317,26.9784004 C260.133903,26.9784004 260.595798,27.0667495 261.0174,27.2434504 C261.439002,27.4201513 261.803248,27.6588489 262.11015,27.9595504 C262.417052,28.2602519 262.655749,28.6136484 262.82625,29.0197504 C262.996751,29.4258524 263.082,29.8613981 263.082,30.3264004 L263.082,30.3450004 Z M261.5847,30.3636004 L261.5847,30.3450004 C261.5847,30.065999 261.53665,29.8025016 261.44055,29.5545004 C261.34445,29.3064991 261.208051,29.0895013 261.03135,28.9035004 C260.854649,28.7174995 260.645401,28.5702509 260.4036,28.4617504 C260.161799,28.3532498 259.898301,28.2990004 259.6131,28.2990004 C259.321699,28.2990004 259.056651,28.3516999 258.81795,28.4571004 C258.579249,28.5625009 258.374651,28.7081995 258.20415,28.8942004 C258.033649,29.0802013 257.90035,29.2956492 257.80425,29.5405504 C257.70815,29.7854516 257.6601,30.047399 257.6601,30.3264004 L257.6601,30.3450004 C257.6601,30.6240018 257.70815,30.8874991 257.80425,31.1355004 C257.90035,31.3835016 258.036749,31.6004995 258.21345,31.7865004 C258.390151,31.9725013 258.597849,32.1197498 258.83655,32.2282504 C259.075251,32.3367509 259.340299,32.3910004 259.6317,32.3910004 C259.916901,32.3910004 260.180399,32.3383009 260.4222,32.2329004 C260.664001,32.1274999 260.870149,31.9818013 261.04065,31.7958004 C261.211151,31.6097995 261.34445,31.3943516 261.44055,31.1494504 C261.53665,30.9045492 261.5847,30.6426018 261.5847,30.3636004 Z M273.1446,30.3450004 C273.1446,30.8038027 273.060901,31.2315984 272.8935,31.6284004 C272.726099,32.0252024 272.488952,32.3692989 272.18205,32.6607004 C271.875148,32.9521018 271.509352,33.1814995 271.08465,33.3489004 C270.659948,33.5163012 270.193403,33.6000004 269.685,33.6000004 L267.1461,33.6000004 L267.1461,27.0900004 L269.685,27.0900004 C270.193403,27.0900004 270.659948,27.1721496 271.08465,27.3364504 C271.509352,27.5007512 271.875148,27.7285989 272.18205,28.0200004 C272.488952,28.3114018 272.726099,28.6539484 272.8935,29.0476504 C273.060901,29.4413523 273.1446,29.8675981 273.1446,30.3264004 L273.1446,30.3450004 Z M271.6473,30.3636004 L271.6473,30.3450004 C271.6473,30.059799 271.59925,29.7963016 271.50315,29.5545004 C271.40705,29.3126992 271.273751,29.1050012 271.10325,28.9314004 C270.932749,28.7577995 270.726601,28.6229509 270.4848,28.5268504 C270.242999,28.4307499 269.976401,28.3827004 269.685,28.3827004 L268.5783,28.3827004 L268.5783,32.3073004 L269.685,32.3073004 C269.976401,32.3073004 270.242999,32.2608008 270.4848,32.1678004 C270.726601,32.0747999 270.932749,31.9415012 271.10325,31.7679004 C271.273751,31.5942995 271.40705,31.3897016 271.50315,31.1541004 C271.59925,30.9184992 271.6473,30.6550018 271.6473,30.3636004 Z M279.3756,33.6000004 L274.4187,33.6000004 L274.4187,27.0900004 L279.3291,27.0900004 L279.3291,28.3641004 L275.8416,28.3641004 L275.8416,29.6847004 L278.9106,29.6847004 L278.9106,30.9588004 L275.8416,30.9588004 L275.8416,32.3259004 L279.3756,32.3259004 L279.3756,33.6000004 Z M285.3276,33.6000004 L280.6497,33.6000004 L280.6497,27.0900004 L282.0819,27.0900004 L282.0819,32.2980004 L285.3276,32.2980004 L285.3276,33.6000004 Z M294.3486,29.3592004 C294.3486,29.7374023 294.280401,30.069099 294.144,30.3543004 C294.007599,30.6395018 293.820051,30.8781994 293.58135,31.0704004 C293.342649,31.2626013 293.063652,31.4067499 292.74435,31.5028504 C292.425048,31.5989509 292.082502,31.6470004 291.7167,31.6470004 L290.6286,31.6470004 L290.6286,33.6000004 L289.1964,33.6000004 L289.1964,27.0900004 L291.8562,27.0900004 C292.246802,27.0900004 292.595548,27.1442498 292.90245,27.2527504 C293.209352,27.3612509 293.469749,27.5146994 293.68365,27.7131004 C293.897551,27.9115014 294.061849,28.148649 294.17655,28.4245504 C294.291251,28.7004518 294.3486,29.0057987 294.3486,29.3406004 L294.3486,29.3592004 Z M292.8978,29.3871004 L292.8978,29.3685004 C292.8978,29.0460988 292.793951,28.8012012 292.58625,28.6338004 C292.378549,28.4663995 292.094902,28.3827004 291.7353,28.3827004 L290.6286,28.3827004 L290.6286,30.3729004 L291.7632,30.3729004 C292.122802,30.3729004 292.401799,30.2783513 292.6002,30.0892504 C292.798601,29.9001494 292.8978,29.6661018 292.8978,29.3871004 Z M296.9061,33.6000004 L295.4739,33.6000004 L295.4739,27.0900004 L296.9061,27.0900004 L296.9061,33.6000004 Z M303.6858,29.3592004 C303.6858,29.7374023 303.617601,30.069099 303.4812,30.3543004 C303.344799,30.6395018 303.157251,30.8781994 302.91855,31.0704004 C302.679849,31.2626013 302.400852,31.4067499 302.08155,31.5028504 C301.762248,31.5989509 301.419702,31.6470004 301.0539,31.6470004 L299.9658,31.6470004 L299.9658,33.6000004 L298.5336,33.6000004 L298.5336,27.0900004 L301.1934,27.0900004 C301.584002,27.0900004 301.932748,27.1442498 302.23965,27.2527504 C302.546552,27.3612509 302.806949,27.5146994 303.02085,27.7131004 C303.234751,27.9115014 303.399049,28.148649 303.51375,28.4245504 C303.628451,28.7004518 303.6858,29.0057987 303.6858,29.3406004 L303.6858,29.3592004 Z M302.235,29.3871004 L302.235,29.3685004 C302.235,29.0460988 302.131151,28.8012012 301.92345,28.6338004 C301.715749,28.4663995 301.432102,28.3827004 301.0725,28.3827004 L299.9658,28.3827004 L299.9658,30.3729004 L301.1004,30.3729004 C301.460002,30.3729004 301.738999,30.2783513 301.9374,30.0892504 C302.135801,29.9001494 302.235,29.6661018 302.235,29.3871004 Z M310.4655,32.5491004 C310.298099,32.7289013 310.124501,32.8900997 309.9447,33.0327004 C309.764899,33.1753011 309.568051,33.2977499 309.35415,33.4000504 C309.140249,33.5023509 308.906201,33.5798501 308.652,33.6325504 C308.397799,33.6852506 308.112602,33.7116004 307.7964,33.7116004 C307.318998,33.7116004 306.875702,33.6248012 306.4665,33.4512004 C306.057298,33.2775995 305.703901,33.0404519 305.4063,32.7397504 C305.108699,32.4390489 304.876201,32.0841024 304.7088,31.6749004 C304.541399,31.2656983 304.4577,30.8286027 304.4577,30.3636004 L304.4577,30.3450004 C304.4577,29.8799981 304.541399,29.4444524 304.7088,29.0383504 C304.876201,28.6322484 305.108699,28.2757519 305.4063,27.9688504 C305.703901,27.6619488 306.060398,27.4201513 306.4758,27.2434504 C306.891202,27.0667495 307.349997,26.9784004 307.8522,26.9784004 C308.156002,26.9784004 308.433449,27.0032001 308.68455,27.0528004 C308.935651,27.1024006 309.163499,27.1705999 309.3681,27.2574004 C309.572701,27.3442008 309.761799,27.4495998 309.9354,27.5736004 C310.109001,27.697601 310.270199,27.8339996 310.419,27.9828004 L309.5076,29.0337004 C309.253399,28.8042992 308.994551,28.624501 308.73105,28.4943004 C308.467549,28.3640997 308.171502,28.2990004 307.8429,28.2990004 C307.570099,28.2990004 307.317451,28.3516999 307.08495,28.4571004 C306.852449,28.5625009 306.652501,28.7081995 306.4851,28.8942004 C306.317699,29.0802013 306.1875,29.2956492 306.0945,29.5405504 C306.0015,29.7854516 305.955,30.047399 305.955,30.3264004 L305.955,30.3450004 C305.955,30.6240018 306.0015,30.8874991 306.0945,31.1355004 C306.1875,31.3835016 306.316149,31.6004995 306.48045,31.7865004 C306.644751,31.9725013 306.843149,32.1197498 307.07565,32.2282504 C307.308151,32.3367509 307.563899,32.3910004 307.8429,32.3910004 C308.214902,32.3910004 308.529549,32.3228011 308.78685,32.1864004 C309.044151,32.0499997 309.299899,31.8640016 309.5541,31.6284004 L310.4655,32.5491004 Z" id="PLATAFORMADIGITALPARAINGRESODELPIPC" fill="#898D8D" fill-rule="nonzero"></path>
            </g>
        </g>
    </g>
</svg>