<?xml version="1.0" encoding="UTF-8"?>
<svg width="222px" height="40px" viewBox="0 0 222 40" version="1.1" xmlns="http://www.w3.org/2000/svg" xmlns:xlink="http://www.w3.org/1999/xlink">
    <!-- Generator: Sketch 56 (81588) - https://sketch.com -->
    <title>Group 4</title>
    <desc>Created with Sketch.</desc>
    <g id="Page-1" stroke="none" stroke-width="1" fill="none" fill-rule="evenodd">
        <g id="PC-PI-01" transform="translate(-47.000000, -494.000000)" fill="#FFFFFF">
            <g id="Group-4" transform="translate(47.000000, 494.000000)">
                <path d="M52.7584865,21.9351351 C52.9660541,22.2508108 53.2536216,22.3935135 53.6579459,22.4043243 C54.2082162,22.4172973 54.5606486,21.8778378 54.5606486,21.8778378 L63.684973,10.1859459 C64.4384865,9.40108108 65.1811892,10.0356757 65.1811892,10.0356757 C65.9033514,10.7891892 65.364973,11.4789189 65.364973,11.4789189 L63.3238919,14.0897297 L63.3238919,14.1027027 C63.1487568,14.2843243 63.0406486,14.5297297 63.0406486,14.8010811 C63.0406486,15.0497297 63.1314595,15.2767568 63.2806486,15.4518919 L63.2806486,15.4562162 L65.3336216,18.0594595 L71.8017297,9.83243243 L69.2168649,6.53837838 L68.7401081,5.91783784 C68.3206486,5.31459459 67.3833514,5.17513514 67.3833514,5.17513514 L63.5109189,5.17513514 C62.4838919,5.17513514 61.924973,5.88540541 61.924973,5.88540541 L51.0784865,19.8032432 L52.7584865,21.9351351 Z" id="Fill-32"></path>
                <path d="M52.2987027,14.8004324 L49.7041081,11.4728649 C49.1765405,10.6231351 49.9462703,10.0144865 49.9462703,10.0144865 C50.9149189,9.44908108 51.4770811,10.3204324 51.4770811,10.3204324 L53.6241081,13.0771892 L56.1646486,9.80475676 L53.2349189,6.03610811 C52.5354595,5.03502703 51.4695135,5.17448649 51.4695135,5.17448649 L47.9711351,5.17448649 C46.8511351,5.17448649 46.3700541,5.8707027 46.3700541,5.8707027 L43.276,9.79718919 L49.7441081,18.0588108 L52.2987027,14.8004324 Z" id="Fill-33"></path>
                <path d="M62.2981622,17.6362162 C62.2981622,17.6362162 61.9997838,17.1745946 61.4246486,17.1831232 C60.8257297,17.1918919 60.5846486,17.5908108 60.5846486,17.5908108 L51.3662703,29.4286486 C50.6192432,30.2491892 49.816,29.5897297 49.816,29.5897297 C49.0949189,28.8351351 49.6862703,28.1367568 49.6862703,28.1367568 L51.7532973,25.4816216 L51.7543784,25.4675676 C51.9284324,25.287027 52.0365405,25.0405405 52.0365405,24.7691892 C52.0365405,24.5216216 51.9457297,24.2935135 51.7965405,24.1194595 L51.7965405,24.1140541 L49.7435676,21.5118919 L43.2549189,29.8308108 L46.8722162,34.4102703 L52.5576216,34.4243243 L63.9911351,19.8016216 L62.2981622,17.6362162 Z" id="Fill-34"></path>
                <path d="M62.7748108,24.7703784 L65.391027,28.1368649 C65.9942703,28.9725405 65.2331892,29.5898378 65.2331892,29.5898378 C64.2288649,30.2644324 63.6148108,29.2568649 63.6148108,29.2568649 L61.4245405,26.4752432 L58.884,29.7487568 L62.5488649,34.4384865 L68.191027,34.4244324 L71.8083243,29.7876757 L65.3261622,21.5076757 L62.7748108,24.7703784 Z" id="Fill-35"></path>
                <path d="M71.7602162,17.227027 C70.3137297,17.227027 69.1364324,18.3891892 69.1364324,19.8172973 C69.1364324,21.2443243 70.3137297,22.4064865 71.7602162,22.4064865 C73.2067027,22.4064865 74.384,21.2443243 74.384,19.8172973 C74.384,18.3891892 73.2067027,17.227027 71.7602162,17.227027 M71.7602162,21.2097297 C70.9991351,21.2097297 70.3807568,20.5848649 70.3807568,19.8172973 C70.3807568,19.0486486 70.9991351,18.4237838 71.7602162,18.4237838 C72.5212973,18.4237838 73.1396757,19.0486486 73.1396757,19.8172973 C73.1396757,20.5848649 72.5212973,21.2097297 71.7602162,21.2097297" id="Fill-36"></path>
                <path d="M57.523027,5.17945946 C58.9695135,5.17945946 60.1468108,4.0172973 60.1468108,2.58918919 C60.1468108,1.16216216 58.9695135,-3.28626015e-14 57.523027,-3.28626015e-14 C56.0765405,-3.28626015e-14 54.8992432,1.16216216 54.8992432,2.58918919 C54.8992432,4.0172973 56.0765405,5.17945946 57.523027,5.17945946 M57.523027,1.19783784 C58.2841081,1.19783784 58.9024865,1.82162162 58.9024865,2.58918919 C58.9024865,3.35783784 58.2841081,3.9827027 57.523027,3.9827027 C56.7619459,3.9827027 56.1435676,3.35783784 56.1435676,2.58918919 C56.1435676,1.82162162 56.7619459,1.19783784 57.523027,1.19783784" id="Fill-37"></path>
                <path d="M45.8713514,19.8073514 C45.8713514,18.3792432 44.6940541,17.2170811 43.2486486,17.2170811 C41.8010811,17.2170811 40.6237838,18.3792432 40.6237838,19.8073514 C40.6237838,21.2343784 41.8010811,22.3965405 43.2486486,22.3965405 C44.6940541,22.3965405 45.8713514,21.2343784 45.8713514,19.8073514 M41.8681081,19.8073514 C41.8681081,19.0397838 42.4875676,18.4149189 43.2486486,18.4149189 C44.0086486,18.4149189 44.6281081,19.0397838 44.6281081,19.8073514 C44.6281081,20.5749189 44.0086486,21.1997838 43.2486486,21.1997838 C42.4875676,21.1997838 41.8681081,20.5749189 41.8681081,19.8073514" id="Fill-38"></path>
                <path d="M57.5267027,34.4398919 C56.0802162,34.4398919 54.9029189,35.6020541 54.9029189,37.0301622 C54.9029189,38.4571892 56.0802162,39.6193514 57.5267027,39.6193514 C58.9731892,39.6193514 60.1494054,38.4571892 60.1494054,37.0301622 C60.1494054,35.6020541 58.9731892,34.4398919 57.5267027,34.4398919 M57.5267027,38.4215135 C56.7656216,38.4215135 56.1472432,37.7977297 56.1472432,37.0301622 C56.1472432,36.2615135 56.7656216,35.6366486 57.5267027,35.6366486 C58.2867027,35.6366486 58.9061622,36.2615135 58.9061622,37.0301622 C58.9061622,37.7977297 58.2867027,38.4215135 57.5267027,38.4215135" id="Fill-39"></path>
                <g id="Group-15" transform="translate(0.000000, 2.574595)">
                    <path d="M29.4075676,0.732972973 L29.4075676,20.0983784 C29.4075676,22.4443243 28.6691892,24.6118919 27.2140541,26.5372973 C26.0281081,28.107027 24.3643243,29.5286486 22.2681081,30.7621622 C19.0605405,32.6518919 15.8010811,33.5221622 15.0702703,33.7027027 C14.3427027,33.5232432 11.1102703,32.6627027 7.90378378,30.7805405 C5.8,29.5459459 4.12972973,28.1232432 2.93837838,26.5524324 C1.47567568,24.6227027 0.734054054,22.4508108 0.734054054,20.0983784 L0.734054054,0.732972973 L29.4075676,0.732972973 Z M30.1405405,-3.55271368e-15 L1.19015908e-13,-3.55271368e-15 L1.19015908e-13,20.0983784 C1.19015908e-13,31.1308108 15.0637838,34.4540541 15.0637838,34.4540541 L15.0778378,34.4540541 C15.0778378,34.4540541 30.1405405,31.1308108 30.1405405,20.0983784 L30.1405405,-3.55271368e-15 Z" id="Fill-40"></path>
                    <path d="M18.7212973,6.43297297 L18.7212973,4.58648649 L16.8229189,4.58648649 L16.8229189,6.30972973 L16.0812973,6.30972973 L16.0812973,4.58648649 L14.1256216,4.58648649 L14.1256216,6.30972973 L13.384,6.30972973 L13.384,4.58648649 L11.4542703,4.58648649 L11.4542703,6.43405405 L12.3958919,8.05243243 C12.4283243,8.10972973 12.4456216,8.17351351 12.4456216,8.23837838 L12.4542703,16.6913514 L13.3667027,16.6913514 L13.356973,13.6556757 C13.356973,12.9389189 14.1721081,12.2891892 15.0661622,12.2891892 C15.9612973,12.2891892 16.7753514,12.9389189 16.7753514,13.6545946 L16.784,16.6913514 L17.7212973,16.6913514 L17.7180541,13.4859459 C17.716973,13.4718919 17.7158919,13.4567568 17.7158919,13.4416216 L17.7158919,11.8524324 C17.7158919,11.8437838 17.7158919,11.8362162 17.716973,11.8286486 L17.7158919,10.6708108 C17.7158919,10.6686486 17.7158919,10.6675676 17.7158919,10.6654054 L17.7158919,10.1605405 L17.7137297,8.23945946 C17.7137297,8.17351351 17.731027,8.10756757 17.7656216,8.05027027 L18.7212973,6.43297297 Z" id="Fill-41"></path>
                    <path d="M11.7122162,16.8885405 L11.7100541,14.0874595 L11.3727568,14.2896216 C11.2484324,14.3652973 11.0927568,14.3598919 10.9727568,14.2777297 L10.5651892,13.9998919 C10.5662703,14.0117838 10.5673514,14.0236757 10.5662703,14.0355676 L10.5532973,15.1144865 C10.5511351,15.228 10.4981622,15.3328649 10.4105946,15.4020541 C10.4527568,15.415027 10.4927568,15.4366486 10.5284324,15.4647568 C11.0224865,15.8604324 11.0592432,16.4269189 10.9522162,16.8885405 L11.7122162,16.8885405 Z" id="Fill-42"></path>
                    <path d="M15.0662703,13.0298378 C14.4976216,13.0298378 14.0987027,13.4352432 14.0987027,13.6547027 L14.1084324,16.6914595 L16.0435676,16.6914595 L16.0349189,13.6557838 C16.0349189,13.4352432 15.6349189,13.0298378 15.0662703,13.0298378" id="Fill-43"></path>
                    <path d="M3.76778378,16.8885405 C3.66291892,16.655027 3.584,16.3707027 3.53102703,16.0366486 C3.43697297,15.4517838 3.45643243,14.9134054 3.45643243,14.8907027 C3.46291892,14.7339459 3.56778378,14.5966486 3.71805405,14.5501622 L4.52886486,14.3004324 L3.61318919,13.6528649 C3.51589189,13.5825946 3.45643243,13.4701622 3.45643243,13.3501622 L3.45643243,12.3231351 C3.45643243,12.1847568 3.53427027,12.0582703 3.65643243,11.9944865 L4.01427027,11.8085405 L4.01427027,11.4593514 L3.68778378,11.3263784 C3.54832432,11.2712432 3.45643243,11.135027 3.45643243,10.9847568 L3.45535135,9.74908108 C3.45535135,9.54583784 3.61967568,9.38043243 3.82183784,9.37827027 L4.9667027,9.36745946 C4.94616216,9.06475676 4.93967568,8.6507027 5.01318919,8.308 C5.11372973,7.8452973 5.37643243,7.34259459 5.50183784,7.11772973 L5.4412973,6.68962162 C5.42616216,6.58367568 5.45751351,6.47664865 5.52778378,6.39448649 C5.59913514,6.31448649 5.70183784,6.26691892 5.80886486,6.26691892 L6.42508108,6.26691892 C6.49535135,6.26691892 6.56454054,6.28745946 6.624,6.3252973 L8.13102703,7.28097297 L8.824,7.28097297 C8.92562162,7.28097297 9.02183784,7.32097297 9.09210811,7.39448649 C9.16237838,7.468 9.19913514,7.56637838 9.19481081,7.668 L9.14291892,8.85502703 C9.13751351,8.95556757 9.09318919,9.04745946 9.02183784,9.11340541 L9.48237838,9.11448649 C9.58291892,9.11448649 9.67913514,9.15556757 9.74940541,9.228 L9.95913514,9.44637838 L10.1191351,9.32421622 L10.3861622,8.75989189 C10.4477838,8.63124324 10.5785946,8.54908108 10.7212973,8.54908108 L11.7050811,8.54908108 L11.7050811,8.33935135 L10.7634595,6.72097297 C10.7299459,6.66367568 10.7126486,6.59989189 10.7126486,6.53394595 L10.7126486,4.21610811 C10.7126486,4.01178378 10.8791351,3.84637838 11.0845405,3.84637838 L13.384,3.84637838 L14.1256216,3.84637838 L16.0812973,3.84637838 L16.8229189,3.84637838 L19.0921081,3.84637838 C19.2964324,3.84637838 19.4629189,4.01178378 19.4629189,4.21610811 L19.4629189,6.53394595 C19.4629189,6.60097297 19.4445405,6.66583784 19.411027,6.72313514 L18.4553514,8.34043243 L18.4553514,8.54908108 L19.4315676,8.54908108 C19.5742703,8.54908108 19.7050811,8.63124324 19.7656216,8.75989189 L20.0337297,9.32421622 L20.1926486,9.44637838 L20.4034595,9.228 C20.4737297,9.15556757 20.5688649,9.11448649 20.6694054,9.11448649 L21.1299459,9.11340541 C21.0596757,9.04745946 21.0142703,8.95556757 21.0099459,8.85502703 L20.9580541,7.668 C20.9526486,7.56637838 20.9904865,7.468 21.0596757,7.39448649 C21.1299459,7.32097297 21.2261622,7.28097297 21.3277838,7.28097297 L22.0218378,7.28097297 L23.5288649,6.3252973 C23.5883243,6.28745946 23.6564324,6.26691892 23.7267027,6.26691892 L24.344,6.26691892 C24.451027,6.26691892 24.5537297,6.31448649 24.624,6.39448649 C24.6942703,6.47664865 24.7256216,6.58367568 24.7104865,6.68962162 L24.6499459,7.11772973 C24.7764324,7.34259459 25.0391351,7.8452973 25.1385946,8.308 C25.2121081,8.6507027 25.2067027,9.06475676 25.1861622,9.36745946 L26.3299459,9.37827027 C26.5331892,9.38043243 26.6975135,9.54583784 26.6975135,9.74908108 L26.6953514,10.9847568 C26.6953514,11.135027 26.6045405,11.2712432 26.464,11.3263784 L26.1385946,11.4593514 L26.1385946,11.8085405 L26.4953514,11.9944865 C26.6185946,12.0582703 26.6953514,12.1847568 26.6953514,12.3231351 L26.6953514,13.3501622 C26.6953514,13.4701622 26.636973,13.5825946 26.5385946,13.6528649 L25.624,14.3004324 L26.4348108,14.5501622 C26.584,14.5966486 26.6888649,14.7339459 26.6953514,14.8907027 C26.6953514,14.9134054 26.7148108,15.4517838 26.6218378,16.0366486 C26.5688649,16.3707027 26.4899459,16.655027 26.384,16.8885405 L27.7331892,16.8885405 C27.7385946,16.8885405 27.744,16.8896216 27.7504865,16.8896216 L27.7504865,2.56421622 L2.42508108,2.56421622 L2.42508108,16.8885405 L3.76778378,16.8885405 Z" id="Fill-44"></path>
                    <path d="M19.624,15.4648649 C19.6596757,15.4367568 19.6996757,15.4162162 19.7418378,15.4010811 C19.6542703,15.332973 19.6012973,15.2281081 19.5991351,15.1145946 L19.5850811,14.0356757 C19.5850811,14.0237838 19.5850811,14.0118919 19.5861622,14 L19.1796757,14.2778378 C19.0607568,14.36 18.904,14.3643243 18.7796757,14.2897297 L18.4596757,14.0983784 L18.4629189,16.8886486 L19.1991351,16.8886486 C19.0942703,16.427027 19.1299459,15.8605405 19.624,15.4648649" id="Fill-45"></path>
                    <path d="M24.5469189,24.5484324 C24.3425946,24.5484324 24.1761081,24.383027 24.1761081,24.1776216 L24.1761081,21.756 C24.1761081,21.5754595 24.068,21.3516757 23.8993514,21.1862703 C23.7588108,21.0478919 23.5134054,20.8814054 23.1382703,20.8900541 C22.5696216,20.8997838 22.228,21.3387027 22.1815135,21.7743784 L22.1815135,24.1776216 C22.1815135,24.276 22.1415135,24.3700541 22.0723243,24.4403243 C22.0031351,24.5095135 21.9090811,24.5484324 21.8107027,24.5484324 L19.6074595,24.5484324 C19.4020541,24.5484324 19.2366486,24.383027 19.2366486,24.1776216 L19.2366486,21.756 C19.2366486,21.5754595 19.1274595,21.3516757 18.9598919,21.1862703 C18.8193514,21.0478919 18.5728649,20.8814054 18.1988108,20.8900541 C17.9501622,20.8943784 17.7274595,20.9841081 17.5555676,21.1451892 L19.3663784,30.3819459 C21.9155676,29.2532973 24.9339459,27.4100541 26.5642162,24.5484324 L24.5469189,24.5484324 Z" id="Fill-46"></path>
                    <path d="M18.6563243,30.6126486 L16.1103784,17.6299459 L14.0433514,17.6299459 L11.5006486,30.6180541 C11.4963243,30.6353514 11.492,30.6537297 11.4855135,30.6699459 C13.2530811,31.3953514 14.6876757,31.764 15.0876757,31.8894054 C15.4941622,31.7618378 16.9201081,31.3953514 18.6747027,30.6775135 C18.6671351,30.656973 18.6606486,30.6353514 18.6563243,30.6126486" id="Fill-47"></path>
                    <path d="M12.6021622,21.1331892 C12.4313514,20.9807568 12.212973,20.8953514 11.9718919,20.891027 C11.9664865,20.891027 11.9589189,20.891027 11.9524324,20.891027 C11.5902703,20.891027 11.3502703,21.051027 11.2118919,21.1883243 C11.0432432,21.3537297 10.9351351,21.5764324 10.9351351,21.756973 L10.9351351,24.1796757 C10.9351351,24.384 10.7686486,24.5504865 10.5643243,24.5504865 L8.36108108,24.5504865 C8.2627027,24.5504865 8.16756757,24.5115676 8.09945946,24.4423784 C8.03027027,24.3721081 7.99027027,24.2780541 7.99027027,24.1796757 L7.99027027,21.7753514 C7.9427027,21.3396757 7.60216216,20.9007568 7.03351351,20.891027 C7.02702703,20.891027 7.02054054,20.891027 7.01297297,20.891027 C6.65081081,20.891027 6.41081081,21.051027 6.27243243,21.1883243 C6.10378378,21.3537297 5.99567568,21.5764324 5.99567568,21.756973 L5.99567568,24.1796757 C5.99567568,24.384 5.82918919,24.5504865 5.62486486,24.5504865 L3.61513514,24.5504865 C5.24108108,27.4023784 8.24972973,29.2434595 10.7924324,30.3742703 L12.6021622,21.1331892 Z" id="Fill-48"></path>
                    <path d="M27.7330811,17.6296216 L16.864973,17.6296216 L17.399027,20.3517838 C17.6379459,20.2242162 17.9060541,20.1528649 18.1871351,20.1485405 C18.6747027,20.1398919 19.1374054,20.3215135 19.4801081,20.6588108 C19.7925405,20.9647568 19.9784865,21.3755676 19.9784865,21.755027 L19.9784865,23.8069189 L21.4401081,23.8069189 L21.4401081,21.755027 C21.4401081,21.7442162 21.4401081,21.7323243 21.4411892,21.7204324 C21.5222703,20.8382703 22.2476757,20.1625946 23.1255135,20.1485405 C23.6195676,20.1398919 24.0768649,20.3215135 24.4195676,20.6588108 C24.732,20.9647568 24.9179459,21.3755676 24.9179459,21.755027 L24.9179459,23.8069189 L26.9428108,23.8069189 C27.4498378,22.6955676 27.7503784,21.4436757 27.7503784,20.0361081 L27.7503784,17.6285405 C27.7438919,17.6285405 27.7384865,17.6296216 27.7330811,17.6296216" id="Fill-49"></path>
                    <path d="M5.25427027,23.8084324 L5.25427027,21.7576216 C5.25427027,21.376 5.44021622,20.9662703 5.75156757,20.6592432 C6.09427027,20.323027 6.55481081,20.1424865 7.04562162,20.148973 C7.92345946,20.1641081 8.64886486,20.8397838 8.72994595,21.7219459 C8.73102703,21.7338378 8.73210811,21.7457297 8.73210811,21.7576216 L8.73210811,23.8084324 L10.1937297,23.8084324 L10.1937297,21.7576216 C10.1937297,21.376 10.3796757,20.9662703 10.691027,20.6592432 C11.0337297,20.323027 11.4942703,20.1424865 11.9850811,20.148973 C12.2585946,20.1543784 12.5223784,20.2224865 12.7558919,20.3457297 L13.2877838,17.6300541 L2.42616216,17.6300541 L2.42616216,20.0354595 C2.42616216,21.4441081 2.72778378,22.696 3.23481081,23.8084324 L5.25427027,23.8084324 Z" id="Fill-50"></path>
                    <path d="M6.12572973,16.1247568 L6.72681081,16.1247568 C6.7732973,16.1993514 6.79924324,16.2847568 6.81113514,16.3734054 C6.8132973,16.4231351 6.81654054,16.4739459 6.82086486,16.5247568 C6.81978378,16.6544865 6.79708108,16.7831351 6.77005405,16.8890811 L4.66518919,16.8890811 C4.36140541,16.6815135 4.20897297,15.8566486 4.196,15.1788108 L5.11708108,14.8944865 C5.27275676,14.8458378 5.3787027,14.7020541 5.3787027,14.5398919 L5.3787027,14.1852973 C5.3787027,14.0642162 5.32032432,13.9517838 5.22194595,13.8825946 L4.19924324,13.1582703 L4.19924324,12.5485405 L4.556,12.3625946 C4.67816216,12.2988108 4.75491892,12.1712432 4.75491892,12.0339459 L4.75491892,11.2101622 C4.75491892,11.0577297 4.66302703,10.9225946 4.52356757,10.8652973 L4.19816216,10.7344865 L4.19708108,10.1161081 L5.16897297,10.1074595 L5.63059459,10.8642162 L5.63383784,11.9193514 L5.316,12.9204324 C5.28140541,13.0339459 5.30086486,13.1561081 5.37113514,13.2523243 C5.44032432,13.3474595 5.55275676,13.4036757 5.67059459,13.4036757 L5.95059459,13.4036757 C6.13221622,13.4036757 6.28681081,13.2717838 6.316,13.0923243 C6.34302703,12.928 6.43167568,12.4544865 6.51383784,12.2415135 C6.57762162,12.0761081 6.84248649,11.7204324 7.00897297,11.5215135 C7.12572973,11.3820541 7.12356757,11.1777297 7.00464865,11.0393514 L5.73005405,9.57664865 C5.70518919,9.35610811 5.65978378,8.83394595 5.7387027,8.46421622 C5.82518919,8.06205405 6.10410811,7.5507027 6.20356757,7.38745946 C6.24897297,7.31394595 6.26627027,7.22745946 6.25437838,7.14097297 L6.236,7.008 L6.31816216,7.008 L7.82518919,7.96475676 C7.88464865,8.00151351 7.95275676,8.02205405 8.02410811,8.02205405 L8.43708108,8.02205405 L8.41221622,8.57556757 L7.92681081,8.75178378 C7.7787027,8.80475676 7.68140541,8.9452973 7.68140541,9.10205405 L7.68464865,9.48259459 C7.68572973,9.68691892 7.85113514,9.85124324 8.05437838,9.85124324 L9.32356757,9.85556757 L9.65545946,10.1993514 C9.78627027,10.3355676 9.99816216,10.3507027 10.1473514,10.2361081 C10.1473514,10.2361081 10.7235676,9.77664865 10.7495135,9.72367568 L10.9549189,9.29016216 L11.6954595,9.29016216 L11.6954595,10.1615135 L11.6954595,10.6393514 C11.6954595,10.6393514 10.3419459,11.1031351 10.2295135,11.1582703 C10.1419459,11.2025946 10.0932973,11.620973 10.1095135,11.7225946 C10.1246486,11.8231351 10.1192432,11.8631351 10.2651892,11.9712432 C10.2651892,11.9712432 10.6587027,12.2804324 10.7787027,12.3236757 L11.1722162,11.9485405 L11.6932973,11.9831351 L11.6922162,13.2339459 L11.1949189,13.5312432 L9.64032432,12.4674595 C9.47924324,12.3571892 9.2587027,12.3907027 9.1387027,12.5452973 L8.89545946,12.8566486 C8.77762162,13.008 8.79383784,13.2242162 8.9332973,13.3561081 L9.82302703,14.1896216 L9.81437838,14.8674595 L8.92140541,15.2642162 C8.78843243,15.3225946 8.70194595,15.4566486 8.70194595,15.6025946 L8.70194595,15.7539459 C8.70194595,15.9593514 8.86735135,16.1247568 9.07275676,16.1247568 L10.1462703,16.1247568 C10.3322162,16.355027 10.2587027,16.6815135 10.1808649,16.8890811 L7.70627027,16.8890811 C7.62194595,16.8004324 7.5787027,16.6447568 7.56140541,16.4696216 C7.56032432,16.4231351 7.55708108,16.3744865 7.55275676,16.3269189 C7.54627027,16.0912432 7.57654054,15.848 7.60789189,15.7096216 L8.18410811,14.9723243 C8.23167568,14.9107027 8.2587027,14.8382703 8.26194595,14.7615135 L8.27924324,14.408 C8.28572973,14.2804324 8.22627027,14.1604324 8.12248649,14.0869189 C8.0187027,14.0144865 7.88572973,13.9982703 7.76897297,14.0469189 L6.83924324,14.4263784 C6.71816216,14.4761081 6.63167568,14.5852973 6.6132973,14.715027 L6.55816216,15.0858378 L6.0187027,15.2490811 C5.86194595,15.2955676 5.75491892,15.4404324 5.75491892,15.6036757 L5.75491892,15.7539459 C5.75491892,15.9593514 5.92140541,16.1247568 6.12572973,16.1247568" id="Fill-51"></path>
                    <path d="M24.0269189,16.1247568 L23.4258378,16.1247568 C23.3793514,16.1993514 23.3534054,16.2847568 23.3404324,16.3734054 C23.3393514,16.4231351 23.3361081,16.4739459 23.3317838,16.5247568 C23.3328649,16.6544865 23.3555676,16.7831351 23.3815135,16.8890811 L25.4874595,16.8890811 C25.7912432,16.6815135 25.9425946,15.8566486 25.9566486,15.1788108 L25.0355676,14.8944865 C24.8798919,14.8458378 24.7728649,14.7020541 24.7728649,14.5398919 L24.7728649,14.1852973 C24.7728649,14.0642162 24.8323243,13.9517838 24.9296216,13.8825946 L25.9534054,13.1582703 L25.9534054,12.5485405 L25.5966486,12.3625946 C25.4744865,12.2988108 25.3966486,12.1712432 25.3966486,12.0339459 L25.3966486,11.2101622 C25.3966486,11.0577297 25.4896216,10.9225946 25.628,10.8652973 L25.9544865,10.7344865 L25.9544865,10.1161081 L24.9836757,10.1074595 L24.5220541,10.8642162 L24.5188108,11.9193514 L24.8355676,12.9204324 C24.8712432,13.0339459 24.8507027,13.1561081 24.7815135,13.2523243 C24.7112432,13.3474595 24.5998919,13.4036757 24.4820541,13.4036757 L24.2020541,13.4036757 C24.0204324,13.4036757 23.8658378,13.2717838 23.8355676,13.0923243 C23.8085405,12.928 23.720973,12.4544865 23.6377297,12.2415135 C23.5739459,12.0761081 23.3101622,11.7204324 23.1436757,11.5215135 C23.0269189,11.3820541 23.028,11.1777297 23.148,11.0393514 L24.4225946,9.57664865 C24.4474595,9.35610811 24.4928649,8.83394595 24.4139459,8.46421622 C24.3274595,8.06205405 24.0485405,7.5507027 23.9490811,7.38745946 C23.9036757,7.31394595 23.8863784,7.22745946 23.8982703,7.14097297 L23.9166486,7.008 L23.8344865,7.008 L22.3274595,7.96475676 C22.268,8.00151351 22.1988108,8.02205405 22.1285405,8.02205405 L21.7155676,8.02205405 L21.7404324,8.57556757 L22.2258378,8.75178378 C22.3728649,8.80475676 22.4712432,8.9452973 22.4701622,9.10205405 L22.468,9.48259459 C22.4669189,9.68691892 22.3015135,9.85124324 22.0982703,9.85124324 L20.8290811,9.85556757 L20.4971892,10.1993514 C20.3663784,10.3355676 20.1544865,10.3507027 20.0052973,10.2361081 C20.0052973,10.2361081 19.428,9.77664865 19.4031351,9.72367568 L19.1966486,9.29016216 L18.4571892,9.29016216 L18.4571892,10.1615135 L18.4571892,10.6393514 C18.4571892,10.6393514 19.8107027,11.1031351 19.9220541,11.1582703 C20.0107027,11.2025946 20.0593514,11.620973 20.0431351,11.7225946 C20.028,11.8231351 20.0334054,11.8631351 19.8874595,11.9712432 C19.8874595,11.9712432 19.4939459,12.2804324 19.3728649,12.3236757 L18.9804324,11.9485405 L18.4593514,11.9831351 L18.4604324,13.2339459 L18.9577297,13.5312432 L20.5123243,12.4674595 C20.6734054,12.3571892 20.8939459,12.3907027 21.0128649,12.5452973 L21.2571892,12.8566486 C21.375027,13.008 21.3588108,13.2242162 21.2182703,13.3561081 L20.3296216,14.1896216 L20.3382703,14.8674595 L21.2312432,15.2642162 C21.3642162,15.3225946 21.4507027,15.4566486 21.4507027,15.6025946 L21.4507027,15.7539459 C21.4507027,15.9593514 21.2842162,16.1247568 21.0798919,16.1247568 L20.0063784,16.1247568 C19.8204324,16.355027 19.8939459,16.6815135 19.9717838,16.8890811 L22.4463784,16.8890811 C22.5307027,16.8004324 22.5739459,16.6447568 22.5912432,16.4696216 C22.5923243,16.4231351 22.5955676,16.3744865 22.5998919,16.3269189 C22.6063784,16.0912432 22.5761081,15.848 22.5447568,15.7096216 L21.9685405,14.9723243 C21.920973,14.9107027 21.8939459,14.8382703 21.8896216,14.7615135 L21.8734054,14.408 C21.8669189,14.2804324 21.9263784,14.1604324 22.0301622,14.0869189 C22.1339459,14.0144865 22.2669189,13.9982703 22.3836757,14.0469189 L23.3134054,14.4263784 C23.4344865,14.4761081 23.520973,14.5852973 23.5393514,14.715027 L23.5944865,15.0858378 L24.1339459,15.2490811 C24.2907027,15.2955676 24.3977297,15.4404324 24.3977297,15.6036757 L24.3977297,15.7539459 C24.3977297,15.9593514 24.2312432,16.1247568 24.0269189,16.1247568" id="Fill-52"></path>
                </g>
                <path d="M82.3181622,15.4132973 L82.3181622,15.3992432 C82.3181622,13.9905946 83.3527568,12.743027 84.8932973,12.743027 C85.7592432,12.743027 86.2954595,12.9927568 86.8078919,13.4251892 L86.4338378,13.8651892 C86.0370811,13.5214054 85.5981622,13.2781622 84.8716757,13.2781622 C83.7343784,13.2781622 82.9203243,14.2392432 82.9203243,15.3841081 L82.9203243,15.3992432 C82.9203243,16.6241081 83.7051892,17.5332973 84.9516757,17.5332973 C85.5387027,17.5332973 86.0814054,17.3062703 86.4338378,17.0197838 L86.4338378,15.743027 L84.8716757,15.743027 L84.8716757,15.2219459 L86.9916757,15.2219459 L86.9916757,17.2695135 C86.5149189,17.6943784 85.796,18.0543784 84.9300541,18.0543784 C83.316,18.0543784 82.3181622,16.8803243 82.3181622,15.4132973" id="Fill-53"></path>
                <path d="M88.8901622,15.4132973 L88.8901622,15.3992432 C88.8901622,13.983027 89.9539459,12.743027 91.5171892,12.743027 C93.0793514,12.743027 94.1290811,13.9678919 94.1290811,15.3841081 L94.1290811,15.3992432 C94.1290811,16.8154595 93.0652973,18.0543784 91.5031351,18.0543784 C89.9398919,18.0543784 88.8901622,16.8295135 88.8901622,15.4132973 M93.528,15.4132973 L93.528,15.3992432 C93.528,14.2327568 92.6761081,13.2781622 91.5031351,13.2781622 C90.3290811,13.2781622 89.4923243,14.2176216 89.4923243,15.3841081 L89.4923243,15.3992432 C89.4923243,16.5657297 90.3431351,17.5192432 91.5171892,17.5192432 C92.6912432,17.5192432 93.528,16.5808649 93.528,15.4132973" id="Fill-54"></path>
                <path d="M96.204973,12.8303784 L98.3909189,12.8303784 C98.9768649,12.8303784 99.4406486,13.0001081 99.7336216,13.2855135 C99.9465946,13.5060541 100.063351,13.7774054 100.063351,14.1071351 L100.063351,14.1222703 C100.063351,14.7892973 99.6525405,15.1341622 99.2492973,15.3103784 C99.859027,15.4941622 100.349838,15.8465946 100.349838,16.5503784 L100.349838,16.5655135 C100.349838,17.4455135 99.6092973,17.9665946 98.4860541,17.9665946 L96.204973,17.9665946 L96.204973,12.8303784 Z M99.4763243,14.1882162 C99.4763243,13.6822703 99.0730811,13.3514595 98.3401081,13.3514595 L96.7768649,13.3514595 L96.7768649,15.1201081 L98.2957838,15.1201081 C98.9930811,15.1201081 99.4763243,14.8044324 99.4763243,14.2022703 L99.4763243,14.1882162 Z M98.3984865,15.6336216 L96.7768649,15.6336216 L96.7768649,17.4455135 L98.5011892,17.4455135 C99.2784865,17.4455135 99.7628108,17.1006486 99.7628108,16.5287568 L99.7628108,16.5136216 C99.7628108,15.9568649 99.2936216,15.6336216 98.3984865,15.6336216 L98.3984865,15.6336216 Z" id="Fill-55"></path>
                <polygon id="Fill-56" points="102.422162 17.967027 103.001622 17.967027 103.001622 12.8308108 102.422162 12.8308108"></polygon>
                <polygon id="Fill-57" points="105.348216 12.8303784 109.059568 12.8303784 109.059568 13.359027 105.927676 13.359027 105.927676 15.1125405 108.729838 15.1125405 108.729838 15.6411892 105.927676 15.6411892 105.927676 17.4379459 109.096324 17.4379459 109.096324 17.9665946 105.348216 17.9665946"></polygon>
                <path d="M111.019676,12.8303784 L113.227243,12.8303784 C113.858595,12.8303784 114.365622,13.0217297 114.687784,13.3438919 C114.937514,13.5936216 115.083459,13.9536216 115.083459,14.3568649 L115.083459,14.372 C115.083459,15.2217297 114.496432,15.7211892 113.689946,15.8682162 L115.267243,17.9665946 L114.555892,17.9665946 L113.067243,15.9698378 L111.599135,15.9698378 L111.599135,17.9665946 L111.019676,17.9665946 L111.019676,12.8303784 Z M113.176432,15.4498378 C113.946162,15.4498378 114.496432,15.0541622 114.496432,14.3936216 L114.496432,14.3784865 C114.496432,13.7482162 114.013189,13.3665946 113.182919,13.3665946 L111.599135,13.3665946 L111.599135,15.4498378 L113.176432,15.4498378 Z" id="Fill-58"></path>
                <polygon id="Fill-59" points="117.173081 12.8303784 117.715784 12.8303784 120.951459 16.9471351 120.951459 12.8303784 121.516865 12.8303784 121.516865 17.9665946 121.054162 17.9665946 117.737405 13.7557838 117.737405 17.9665946 117.173081 17.9665946"></polygon>
                <path d="M123.590378,15.4132973 L123.590378,15.3992432 C123.590378,13.983027 124.654162,12.743027 126.217405,12.743027 C127.779568,12.743027 128.829297,13.9678919 128.829297,15.3841081 L128.829297,15.3992432 C128.829297,16.8154595 127.765514,18.0543784 126.203351,18.0543784 C124.640108,18.0543784 123.590378,16.8295135 123.590378,15.4132973 M128.228216,15.4132973 L128.228216,15.3992432 C128.228216,14.2327568 127.376324,13.2781622 126.203351,13.2781622 C125.029297,13.2781622 124.192541,14.2176216 124.192541,15.3841081 L124.192541,15.3992432 C124.192541,16.5657297 125.043351,17.5192432 126.217405,17.5192432 C127.391459,17.5192432 128.228216,16.5808649 128.228216,15.4132973" id="Fill-60"></path>
                <path d="M133.576649,12.8303784 L135.359351,12.8303784 C136.973405,12.8303784 138.088,13.9384865 138.088,15.3838919 L138.088,15.399027 C138.088,16.8444324 136.973405,17.9665946 135.359351,17.9665946 L133.576649,17.9665946 L133.576649,12.8303784 Z M134.156108,13.3665946 L134.156108,17.4303784 L135.359351,17.4303784 C136.65773,17.4303784 137.486919,16.5503784 137.486919,15.4130811 L137.486919,15.399027 C137.486919,14.2617297 136.65773,13.3665946 135.359351,13.3665946 L134.156108,13.3665946 Z" id="Fill-61"></path>
                <polygon id="Fill-62" points="139.930162 12.8303784 143.641514 12.8303784 143.641514 13.359027 140.509622 13.359027 140.509622 15.1125405 143.311784 15.1125405 143.311784 15.6411892 140.509622 15.6411892 140.509622 17.4379459 143.679351 17.4379459 143.679351 17.9665946 139.930162 17.9665946"></polygon>
                <polygon id="Fill-63" points="148.294811 12.8303784 148.873189 12.8303784 148.873189 17.4303784 151.765081 17.4303784 151.765081 17.9665946 148.294811 17.9665946"></polygon>
                <path d="M155.322811,12.7940541 L155.865514,12.7940541 L158.206054,17.967027 L157.583351,17.967027 L156.981189,16.6091892 L154.185514,16.6091892 L153.576865,17.967027 L152.98227,17.967027 L155.322811,12.7940541 Z M156.753081,16.0816216 L155.586595,13.4697297 L154.413622,16.0816216 L156.753081,16.0816216 Z" id="Fill-64"></path>
                <path d="M82.2084324,24.2181622 L82.2084324,24.2041081 C82.2084324,22.7435676 83.308973,21.5478919 84.8862703,21.5478919 C85.8549189,21.5478919 86.4343784,21.8711351 86.9111351,22.3403243 L86.1922162,23.1695135 C85.7954595,22.8095135 85.3922162,22.5900541 84.8787027,22.5900541 C84.0127568,22.5900541 83.3900541,23.3078919 83.3900541,24.188973 L83.3900541,24.2041081 C83.3900541,25.0841081 83.9987027,25.8170811 84.8787027,25.8170811 C85.4657297,25.8170811 85.8257297,25.5824865 86.228973,25.216 L86.9478919,25.9424865 C86.4203243,26.5078919 85.8332973,26.8592432 84.8419459,26.8592432 C83.3305946,26.8592432 82.2084324,25.6927568 82.2084324,24.2181622" id="Fill-65"></path>
                <polygon id="Fill-66" points="87.8805405 26.7702703 89.0102703 26.7702703 89.0102703 21.6351351 87.8805405 21.6351351"></polygon>
                <path d="M90.3138378,24.5708108 L90.3138378,21.6356757 L91.4435676,21.6356757 L91.4435676,24.5416216 C91.4435676,25.3772973 91.8619459,25.8097297 92.5516757,25.8097297 C93.2414054,25.8097297 93.6587027,25.3924324 93.6587027,24.5772973 L93.6587027,21.6356757 L94.7895135,21.6356757 L94.7895135,24.5340541 C94.7895135,26.0897297 93.916,26.8518919 92.5365405,26.8518919 C91.1581622,26.8518919 90.3138378,26.0810811 90.3138378,24.5708108" id="Fill-67"></path>
                <path d="M96.0740541,21.6353514 L98.0772973,21.6353514 C99.6913514,21.6353514 100.805946,22.7434595 100.805946,24.1888649 L100.805946,24.204 C100.805946,25.6483243 99.6913514,26.7704865 98.0772973,26.7704865 L96.0740541,26.7704865 L96.0740541,21.6353514 Z M98.0772973,25.7521081 C99.0016216,25.7521081 99.6254054,25.1272432 99.6254054,24.2180541 L99.6254054,24.204 C99.6254054,23.2937297 99.0016216,22.6558919 98.0772973,22.6558919 L97.2037838,22.6558919 L97.2037838,25.7521081 L98.0772973,25.7521081 Z" id="Fill-68"></path>
                <path d="M103.308973,21.5989189 L104.351135,21.5989189 L106.552216,26.7718919 L105.370595,26.7718919 L104.901405,25.6194595 L102.729514,25.6194595 L102.260324,26.7718919 L101.107892,26.7718919 L103.308973,21.5989189 Z M104.498162,24.6216216 L103.816,22.9556757 L103.132757,24.6216216 L104.498162,24.6216216 Z" id="Fill-69"></path>
                <path d="M107.369946,21.6353514 L109.373189,21.6353514 C110.986162,21.6353514 112.101838,22.7434595 112.101838,24.1888649 L112.101838,24.204 C112.101838,25.6483243 110.986162,26.7704865 109.373189,26.7704865 L107.369946,26.7704865 L107.369946,21.6353514 Z M109.373189,25.7521081 C110.297514,25.7521081 110.921297,25.1272432 110.921297,24.2180541 L110.921297,24.204 C110.921297,23.2937297 110.297514,22.6558919 109.373189,22.6558919 L108.499676,22.6558919 L108.499676,25.7521081 L109.373189,25.7521081 Z" id="Fill-70"></path>
                <path d="M115.381946,21.6353514 L117.385189,21.6353514 C118.999243,21.6353514 120.113838,22.7434595 120.113838,24.1888649 L120.113838,24.204 C120.113838,25.6483243 118.999243,26.7704865 117.385189,26.7704865 L115.381946,26.7704865 L115.381946,21.6353514 Z M117.385189,25.7521081 C118.309514,25.7521081 118.933297,25.1272432 118.933297,24.2180541 L118.933297,24.204 C118.933297,23.2937297 118.309514,22.6558919 117.385189,22.6558919 L116.511676,22.6558919 L116.511676,25.7521081 L117.385189,25.7521081 Z" id="Fill-71"></path>
                <polygon id="Fill-72" points="121.185946 21.6353514 125.059459 21.6353514 125.059459 22.6407568 122.308108 22.6407568 122.308108 23.6829189 124.72973 23.6829189 124.72973 24.6883243 122.308108 24.6883243 122.308108 25.7661622 125.096216 25.7661622 125.096216 26.7704865 121.185946 26.7704865"></polygon>
                <polygon id="Fill-73" points="128.376108 21.6353514 129.593405 21.6353514 130.943676 23.8072432 132.293946 21.6353514 133.511243 21.6353514 133.511243 26.7704865 132.389081 26.7704865 132.389081 23.4180541 130.943676 25.6126486 130.914486 25.6126486 129.484216 23.4407568 129.484216 26.7704865 128.376108 26.7704865"></polygon>
                <path d="M134.858811,21.6353514 L138.732324,21.6353514 L138.732324,22.6407568 L135.980973,22.6407568 L135.980973,23.6829189 L138.401514,23.6829189 L138.401514,24.6883243 L135.980973,24.6883243 L135.980973,25.7661622 L138.769081,25.7661622 L138.769081,26.7704865 L134.858811,26.7704865 L134.858811,21.6353514 Z M137.008,19.9337297 L137.969081,20.3521081 L137.030703,21.2321081 L136.178811,21.2321081 L137.008,19.9337297 Z" id="Fill-74"></path>
                <polygon id="Fill-75" points="141.28573 24.1601081 139.568973 21.6357838 140.888973 21.6357838 141.967892 23.3017297 143.053297 21.6357838 144.337622 21.6357838 142.620865 24.144973 144.411135 26.772 143.090054 26.772 141.938703 25.0109189 140.779784 26.772 139.495459 26.772"></polygon>
                <polygon id="Fill-76" points="145.277297 26.7702703 146.407027 26.7702703 146.407027 21.6351351 145.277297 21.6351351"></polygon>
                <path d="M147.499784,24.2181622 L147.499784,24.2041081 C147.499784,22.7435676 148.600324,21.5478919 150.178703,21.5478919 C151.14627,21.5478919 151.726811,21.8711351 152.203568,22.3403243 L151.483568,23.1695135 C151.086811,22.8095135 150.683568,22.5900541 150.170054,22.5900541 C149.304108,22.5900541 148.681405,23.3078919 148.681405,24.188973 L148.681405,24.2041081 C148.681405,25.0841081 149.290054,25.8170811 150.170054,25.8170811 C150.757081,25.8170811 151.117081,25.5824865 151.520324,25.216 L152.239243,25.9424865 C151.711676,26.5078919 151.124649,26.8592432 150.134378,26.8592432 C148.621946,26.8592432 147.499784,25.6927568 147.499784,24.2181622" id="Fill-77"></path>
                <path d="M152.772757,24.2181622 L152.772757,24.2041081 C152.772757,22.7435676 153.924108,21.5478919 155.508973,21.5478919 C157.094919,21.5478919 158.230054,22.7284324 158.230054,24.188973 L158.230054,24.2041081 C158.230054,25.6635676 157.079784,26.8592432 155.494919,26.8592432 C153.910054,26.8592432 152.772757,25.6787027 152.772757,24.2181622 M157.050595,24.2181622 L157.050595,24.2041081 C157.050595,23.323027 156.404108,22.5900541 155.494919,22.5900541 C154.584649,22.5900541 153.954378,23.3078919 153.954378,24.188973 L153.954378,24.2041081 C153.954378,25.0841081 154.598703,25.8170811 155.508973,25.8170811 C156.419243,25.8170811 157.050595,25.0992432 157.050595,24.2181622" id="Fill-78"></path>
                <path d="M194.67,25 L192.255,25 L191.295,22.645 L186.855,22.645 L185.895,25 L183.54,25 L188.04,14.425 L190.17,14.425 L194.67,25 Z M190.47,20.605 L189.075,17.2 L187.68,20.605 L190.47,20.605 Z M205.965,19.75 C205.965,20.4900037 205.830001,21.1799968 205.56,21.82 C205.29,22.4600032 204.907502,23.0149977 204.4125,23.485 C203.917498,23.9550024 203.327503,24.3249987 202.6425,24.595 C201.957497,24.8650014 201.205004,25 200.385,25 L196.29,25 L196.29,14.5 L200.385,14.5 C201.205004,14.5 201.957497,14.6324987 202.6425,14.8975 C203.327503,15.1625013 203.917498,15.5299977 204.4125,16 C204.907502,16.4700024 205.29,17.0224968 205.56,17.6575 C205.830001,18.2925032 205.965,18.9799963 205.965,19.72 L205.965,19.75 Z M203.55,19.78 L203.55,19.75 C203.55,19.2899977 203.472501,18.865002 203.3175,18.475 C203.162499,18.085 202.947501,17.7500014 202.6725,17.47 C202.397499,17.1899986 202.065002,16.9725008 201.675,16.8175 C201.284998,16.6624992 200.855002,16.585 200.385,16.585 L198.6,16.585 L198.6,22.915 L200.385,22.915 C200.855002,22.915 201.284998,22.8400008 201.675,22.69 C202.065002,22.5399993 202.397499,22.3250014 202.6725,22.045 C202.947501,21.7649986 203.162499,21.4350019 203.3175,21.055 C203.472501,20.6749981 203.55,20.2500024 203.55,19.78 Z M210.435,25 L208.125,25 L208.125,14.5 L210.435,14.5 L210.435,25 Z M221.37,18.16 C221.37,18.7700031 221.260001,19.3049977 221.04,19.765 C220.819999,20.2250023 220.517502,20.6099985 220.1325,20.92 C219.747498,21.2300016 219.297503,21.4624992 218.7825,21.6175 C218.267497,21.7725008 217.715003,21.85 217.125,21.85 L215.37,21.85 L215.37,25 L213.06,25 L213.06,14.5 L217.35,14.5 C217.980003,14.5 218.542498,14.5874991 219.0375,14.7625 C219.532502,14.9375009 219.952498,15.1849984 220.2975,15.505 C220.642502,15.8250016 220.907499,16.2074978 221.0925,16.6525 C221.277501,17.0975022 221.37,17.5899973 221.37,18.13 L221.37,18.16 Z M219.03,18.205 L219.03,18.175 C219.03,17.6549974 218.862502,17.2600014 218.5275,16.99 C218.192498,16.7199987 217.735003,16.585 217.155,16.585 L215.37,16.585 L215.37,19.795 L217.2,19.795 C217.780003,19.795 218.229998,19.6425015 218.55,19.3375 C218.87,19.0324985 219.03,18.6550023 219.03,18.205 Z" id="ADIP" fill-rule="nonzero"></path>
                <rect id="Rectangle-Copy-20" x="171" y="6" width="1" height="29"></rect>
            </g>
        </g>
    </g>
</svg>