<svg xmlns="http://www.w3.org/2000/svg" width="211" height="50" viewBox="0 0 211 50">
    <g fill="none" fill-rule="evenodd">
        <path fill-rule="nonzero" stroke="#898D8D" stroke-linecap="square" d="M210.125 6.528v34.676"/>
        <path fill="#00B140" d="M66.284 27.419c.26.395.622.573 1.13.586.691.017 1.134-.658 1.134-.658l11.464-14.615c.946-.98 1.88-.187 1.88-.187.907.941.23 1.804.23 1.804l-2.564 3.263v.016a1.25 1.25 0 0 0-.054 1.687v.005l2.579 3.254 8.126-10.283-3.247-4.118-.6-.776c-.526-.754-1.704-.928-1.704-.928h-4.865a2.66 2.66 0 0 0-1.993.888L64.173 24.754l2.11 2.665zM65.706 18.5l-3.26-4.159c-.662-1.062.305-1.823.305-1.823 1.217-.707 1.923.383 1.923.383l2.697 3.445 3.192-4.09-3.68-4.71c-.88-1.252-2.218-1.078-2.218-1.078h-4.396c-1.407 0-2.011.87-2.011.87l-3.888 4.908 8.127 10.328 3.21-4.073z"/>
        <path fill="#00B140" d="M78.27 22.045s-.376-.577-1.098-.566c-.753.01-1.056.51-1.056.51L64.535 36.786c-.939 1.025-1.948.201-1.948.201-.906-.943-.163-1.816-.163-1.816l2.597-3.319.001-.018a1.252 1.252 0 0 0 .053-1.685v-.006l-2.579-3.253-8.152 10.399 4.545 5.724 7.143.017 14.364-18.278-2.127-2.707zM78.868 30.963l3.287 4.208c.758 1.045-.198 1.816-.198 1.816-1.262.844-2.034-.416-2.034-.416l-2.751-3.477-3.192 4.092 4.604 5.862 7.089-.017 4.545-5.796-8.144-10.35-3.206 4.078zM90.157 21.534c-1.817 0-3.296 1.452-3.296 3.238 0 1.783 1.479 3.236 3.296 3.236 1.817 0 3.296-1.453 3.296-3.236 0-1.786-1.479-3.238-3.296-3.238m0 4.978a1.739 1.739 0 0 1-1.733-1.74c0-.961.777-1.742 1.733-1.742.956 0 1.733.78 1.733 1.742 0 .96-.777 1.74-1.733 1.74M72.27 6.474c1.817 0 3.296-1.452 3.296-3.238C75.566 1.453 74.087 0 72.27 0c-1.817 0-3.296 1.453-3.296 3.236 0 1.786 1.479 3.238 3.296 3.238m0-4.977c.956 0 1.733.78 1.733 1.74s-.777 1.741-1.733 1.741a1.739 1.739 0 0 1-1.733-1.742c0-.959.777-1.739 1.733-1.739M57.631 24.76c0-1.786-1.479-3.239-3.295-3.239-1.819 0-3.298 1.453-3.298 3.238 0 1.784 1.48 3.237 3.298 3.237 1.816 0 3.295-1.453 3.295-3.237m-5.03 0c0-.96.779-1.74 1.735-1.74a1.74 1.74 0 0 1 1.733 1.74c0 .96-.778 1.74-1.733 1.74a1.74 1.74 0 0 1-1.734-1.74"/>
        <path fill="#898D8D" d="M36.947 4.134v24.207c0 2.933-.928 5.642-2.756 8.049-1.49 1.962-3.58 3.74-6.214 5.28-4.03 2.363-8.125 3.45-9.043 3.677-.914-.225-4.975-1.3-9.004-3.653-2.643-1.543-4.742-3.322-6.238-5.285-1.838-2.412-2.77-5.127-2.77-8.068V4.134h36.025zm.92-.916H0v25.123c0 13.79 18.926 17.945 18.926 17.945h.017s18.925-4.154 18.925-17.945V3.218z"/>
        <path fill="#898D8D" d="M23.52 11.26V8.95h-2.384v2.154h-.932V8.951h-2.457v2.154h-.932V8.951h-2.424v2.31l1.183 2.023a.47.47 0 0 1 .062.232l.011 10.566h1.146l-.012-3.794c0-.896 1.024-1.708 2.148-1.708s2.147.812 2.147 1.706l.01 3.796h1.178l-.004-4.006a.72.72 0 0 1-.002-.056v-1.986l.001-.03-.001-1.447v-.638l-.003-2.401c0-.083.022-.165.065-.237l1.2-2.022zM14.715 24.329l-.003-3.501-.424.252a.464.464 0 0 1-.502-.015l-.512-.347c.001.015.002.03.001.045l-.016 1.348a.468.468 0 0 1-.18.36.46.46 0 0 1 .149.078c.62.495.666 1.203.532 1.78h.955z"/>
        <path fill="#898D8D" d="M18.929 19.506c-.715 0-1.216.506-1.216.78l.012 3.797h2.432l-.011-3.795c0-.276-.503-.782-1.217-.782"/>
        <path fill="#898D8D" d="M4.734 24.329a4.216 4.216 0 0 1-.298-1.065c-.118-.731-.093-1.404-.093-1.432a.467.467 0 0 1 .328-.426l1.019-.312-1.15-.81a.468.468 0 0 1-.197-.378v-1.284c0-.173.097-.33.25-.41l.45-.233v-.437l-.41-.166a.46.46 0 0 1-.29-.427l-.002-1.544c0-.254.207-.461.46-.464l1.439-.013c-.026-.379-.034-.896.058-1.325.127-.578.457-1.207.614-1.488l-.076-.535a.464.464 0 0 1 .462-.528h.774c.089 0 .175.026.25.073l1.894 1.194h.87a.464.464 0 0 1 .466.484l-.065 1.484a.472.472 0 0 1-.152.323l.578.001c.127 0 .248.052.336.142l.263.273.201-.152.336-.706a.468.468 0 0 1 .42-.263h1.237v-.263l-1.183-2.023a.459.459 0 0 1-.064-.233V8.488c0-.255.21-.462.467-.462h10.06c.257 0 .467.207.467.462v2.898a.466.466 0 0 1-.066.236l-1.2 2.022v.26h1.226c.18 0 .344.103.42.264l.337.706.2.152.264-.273a.466.466 0 0 1 .334-.142l.579-.001a.471.471 0 0 1-.15-.323l-.066-1.484a.462.462 0 0 1 .464-.484h.872l1.894-1.194a.464.464 0 0 1 .248-.073h.776a.464.464 0 0 1 .46.528l-.076.535c.16.281.49.91.614 1.488.093.429.086.946.06 1.325l1.437.013c.255.003.462.21.462.464l-.003 1.544a.458.458 0 0 1-.29.427l-.41.166v.437l.449.232c.155.08.251.238.251.411v1.284c0 .15-.073.29-.197.378l-1.149.81 1.019.312c.187.058.319.23.327.426 0 .028.025.701-.092 1.432a4.158 4.158 0 0 1-.3 1.065h1.696l.022.001V6.424H3.047v17.905h1.687z"/>
        <path fill="#898D8D" d="M24.655 22.55a.523.523 0 0 1 .148-.08.463.463 0 0 1-.18-.359l-.017-1.348.001-.045-.51.348a.467.467 0 0 1-.503.014l-.402-.239.004 3.488h.925c-.132-.577-.087-1.285.534-1.78M30.84 33.904a.465.465 0 0 1-.466-.464v-3.027c0-.225-.136-.505-.348-.712a1.287 1.287 0 0 0-.956-.37c-.714.012-1.144.56-1.202 1.105v3.004a.468.468 0 0 1-.466.464h-2.768a.464.464 0 0 1-.466-.464v-3.027c0-.225-.137-.505-.347-.712a1.29 1.29 0 0 0-.957-.37 1.196 1.196 0 0 0-.808.319l2.275 11.546c3.203-1.411 6.995-3.715 9.043-7.292H30.84zM20.24 25.256h-2.596L14.449 41.49c-.005.021-.01.044-.019.065 2.22.906 4.023 1.367 4.526 1.524.51-.16 2.302-.618 4.506-1.515a.51.51 0 0 1-.023-.08l-3.198-16.23zM15.833 29.635a1.21 1.21 0 0 0-.792-.303h-.024c-.455 0-.757.2-.93.372-.213.206-.348.485-.348.71v3.029c0 .255-.21.463-.466.463h-2.768a.463.463 0 0 1-.466-.463v-3.006c-.06-.544-.488-1.093-1.202-1.105H8.81c-.455 0-.757.2-.93.372-.212.206-.348.485-.348.71v3.029c0 .255-.21.463-.466.463H4.542c2.043 3.565 5.823 5.867 9.017 7.28l2.274-11.551z"/>
        <path fill="#898D8D" d="M34.843 25.255H21.189l.67 3.403c.3-.16.638-.249.99-.254a2.252 2.252 0 0 1 1.625.638c.393.382.626.896.626 1.37v2.565h1.837v-2.565l.001-.043a2.16 2.16 0 0 1 2.116-1.965c.62-.01 1.195.216 1.626.638.392.382.626.896.626 1.37v2.565h2.544a11.177 11.177 0 0 0 1.015-4.714v-3.01l-.022.002M6.601 32.979v-2.564c0-.477.234-.989.625-1.373.43-.42 1.01-.646 1.626-.638a2.162 2.162 0 0 1 2.119 2.011v2.564h1.836v-2.564c0-.477.234-.989.625-1.373.43-.42 1.009-.646 1.626-.638.343.007.675.092.968.246l.668-3.394H3.048v3.007c0 1.76.38 3.325 1.016 4.716h2.537zM7.696 23.374h.755c.059.093.091.2.106.311l.012.19a1.94 1.94 0 0 1-.063.455H5.86c-.381-.26-.573-1.29-.59-2.138l1.158-.356a.465.465 0 0 0 .329-.443v-.443a.46.46 0 0 0-.197-.379l-1.285-.905v-.762l.448-.233c.153-.08.25-.239.25-.41v-1.03c0-.19-.116-.36-.29-.431l-.41-.164v-.773l1.22-.01.58.946.004 1.318-.4 1.252a.467.467 0 0 0 .446.604h.352a.465.465 0 0 0 .46-.39c.033-.205.145-.797.248-1.063.08-.207.413-.651.622-.9a.464.464 0 0 0-.006-.603L7.2 15.19c-.031-.276-.088-.928.01-1.39.11-.503.46-1.142.585-1.346a.461.461 0 0 0 .064-.309l-.023-.166h.103l1.893 1.196c.075.046.16.072.25.072h.52l-.032.692-.61.22a.464.464 0 0 0-.308.438l.004.475c.001.256.209.461.464.461l1.595.006.417.43c.164.17.43.189.618.045 0 0 .724-.574.756-.64l.258-.542h.93v1.686s-1.7.58-1.841.65c-.11.054-.171.577-.15.704.018.126.011.176.195.311 0 0 .494.387.645.44l.494-.468.655.043-.001 1.564-.625.371-1.953-1.33a.467.467 0 0 0-.63.098l-.306.39a.464.464 0 0 0 .047.623l1.118 1.042-.01.848-1.122.496a.463.463 0 0 0-.276.422v.19c0 .256.208.463.466.463h1.348c.234.288.142.696.044.956H9.68c-.105-.111-.16-.306-.181-.525a2.672 2.672 0 0 0-.011-.178c-.008-.295.03-.599.07-.772l.723-.921a.459.459 0 0 0 .098-.264l.022-.442a.466.466 0 0 0-.641-.451l-1.168.474a.461.461 0 0 0-.284.361l-.07.464-.677.204a.462.462 0 0 0-.332.443v.188c0 .256.21.463.466.463M30.187 23.374h-.756a.8.8 0 0 0-.107.311 3 3 0 0 1-.01.19c0 .161.03.322.062.455h2.646c.381-.26.571-1.29.589-2.138l-1.157-.356a.467.467 0 0 1-.33-.443v-.443c0-.151.074-.292.197-.379l1.286-.905v-.762l-.448-.233a.466.466 0 0 1-.252-.41v-1.03c0-.19.117-.36.291-.431l.41-.164v-.773l-1.22-.01-.58.946-.003 1.318.398 1.252a.466.466 0 0 1-.068.415.47.47 0 0 1-.377.189h-.351a.467.467 0 0 1-.46-.39c-.035-.205-.145-.797-.25-1.063-.08-.207-.41-.651-.62-.9a.463.463 0 0 1 .005-.603l1.602-1.828c.03-.276.088-.928-.011-1.39-.109-.503-.46-1.142-.584-1.346a.461.461 0 0 1-.064-.309l.023-.166h-.103l-1.894 1.196a.48.48 0 0 1-.25.072h-.518l.03.692.61.22a.463.463 0 0 1 .308.438l-.003.475a.464.464 0 0 1-.464.461l-1.595.006-.417.43a.466.466 0 0 1-.618.045s-.725-.574-.757-.64l-.259-.542h-.929v1.686s1.7.58 1.84.65c.112.054.173.577.153.704-.02.126-.013.176-.196.311 0 0-.494.387-.647.44l-.493-.468-.654.043.001 1.564.625.371 1.953-1.33a.465.465 0 0 1 .629.098l.307.39c.148.188.127.459-.05.623l-1.116 1.042.011.848 1.122.496c.167.072.276.24.276.422v.19c0 .256-.21.463-.466.463h-1.349c-.233.288-.14.696-.043.956H28.2c.106-.111.16-.306.182-.525.001-.058.005-.119.01-.178a3.403 3.403 0 0 0-.069-.772l-.723-.921a.47.47 0 0 1-.1-.264l-.02-.442a.466.466 0 0 1 .641-.451l1.168.474c.152.062.26.199.284.361l.07.464.677.204c.197.058.331.239.331.443v.188c0 .256-.209.463-.465.463M103.422 19.267v-.018c0-1.76 1.3-3.32 3.235-3.32 1.088 0 1.762.312 2.405.852l-.47.55c-.498-.43-1.05-.733-1.962-.733-1.429 0-2.452 1.201-2.452 2.632v.02c0 1.53.986 2.667 2.552 2.667.738 0 1.42-.284 1.862-.642v-1.596h-1.962v-.652h2.663v2.56a3.924 3.924 0 0 1-2.59.981c-2.028 0-3.281-1.468-3.281-3.301M111.679 19.267v-.018c0-1.77 1.336-3.32 3.3-3.32 1.963 0 3.282 1.53 3.282 3.301v.02c0 1.77-1.337 3.318-3.3 3.318-1.964 0-3.282-1.531-3.282-3.301m5.826 0v-.018c0-1.458-1.07-2.651-2.544-2.651-1.475 0-2.526 1.174-2.526 2.632v.02c0 1.457 1.069 2.65 2.544 2.65s2.526-1.174 2.526-2.633M120.869 16.038h2.746c.736 0 1.319.212 1.687.569.267.276.414.615.414 1.027v.019c0 .834-.516 1.265-1.023 1.485.766.23 1.383.67 1.383 1.55v.019c0 1.1-.93 1.751-2.342 1.751h-2.865v-6.42zm4.11 1.697c0-.632-.507-1.046-1.428-1.046h-1.964V18.9h1.908c.876 0 1.484-.394 1.484-1.147v-.018zm-1.355 1.807h-2.037v2.265h2.167c.976 0 1.585-.431 1.585-1.146v-.019c0-.696-.59-1.1-1.715-1.1zM128.68 22.459h.728v-6.42h-.728zM132.356 16.038h4.663v.66h-3.935v2.193h3.52v.66h-3.52v2.246h3.98v.661h-4.708zM139.481 16.038h2.774c.793 0 1.43.24 1.835.642.314.312.497.762.497 1.266v.019c0 1.062-.738 1.686-1.75 1.87l1.98 2.623h-.893l-1.87-2.496h-1.845v2.496h-.728v-6.42zm2.71 3.274c.967 0 1.658-.494 1.658-1.32v-.019c0-.788-.607-1.265-1.65-1.265h-1.99v2.604h1.982zM147.212 16.038h.682l4.065 5.146v-5.146h.71v6.42h-.58l-4.168-5.263v5.263h-.709zM155.275 19.267v-.018c0-1.77 1.336-3.32 3.3-3.32 1.963 0 3.282 1.53 3.282 3.301v.02c0 1.77-1.337 3.318-3.3 3.318-1.963 0-3.282-1.531-3.282-3.301m5.827 0v-.018c0-1.458-1.07-2.651-2.544-2.651-1.475 0-2.527 1.174-2.527 2.632v.02c0 1.457 1.07 2.65 2.544 2.65 1.475 0 2.527-1.174 2.527-2.633M167.821 16.038h2.24c2.028 0 3.428 1.385 3.428 3.192v.019c0 1.807-1.4 3.21-3.428 3.21h-2.24v-6.421zm.728.67v5.08h1.512c1.631 0 2.673-1.1 2.673-2.522v-.017c0-1.422-1.042-2.54-2.673-2.54h-1.512zM175.803 16.038h4.663v.66h-3.935v2.193h3.521v.66h-3.52v2.246h3.982v.661h-4.71zM186.312 16.038h.727v5.75h3.633v.67h-4.36zM195.142 15.993h.682l2.94 6.466h-.782l-.756-1.698h-3.513l-.764 1.698h-.747l2.94-6.466zm1.797 4.109l-1.465-3.265L194 20.102h2.94zM103.284 30.273v-.018c0-1.826 1.383-3.32 3.364-3.32 1.217 0 1.945.404 2.544.99l-.903 1.037c-.499-.45-1.005-.724-1.65-.724-1.088 0-1.87.897-1.87 1.998v.02c0 1.1.764 2.015 1.87 2.015.737 0 1.19-.293 1.696-.751l.903.908c-.662.707-1.4 1.146-2.645 1.146-1.9 0-3.31-1.458-3.31-3.301M110.41 33.463h1.42v-6.42h-1.42zM113.467 30.714v-3.67h1.42v3.633c0 1.045.525 1.585 1.392 1.585.866 0 1.39-.521 1.39-1.54v-3.677h1.421v3.623c0 1.944-1.097 2.897-2.83 2.897-1.732 0-2.793-.964-2.793-2.851M120.704 27.044h2.517c2.028 0 3.428 1.385 3.428 3.192v.019c0 1.805-1.4 3.208-3.428 3.208h-2.517v-6.419zm2.517 5.146c1.161 0 1.945-.78 1.945-1.917v-.018c0-1.138-.784-1.935-1.945-1.935h-1.098v3.87h1.098zM129.794 26.999h1.31l2.765 6.466h-1.485l-.59-1.44h-2.728l-.59 1.44h-1.448l2.766-6.466zm1.494 3.778l-.857-2.082-.859 2.082h1.716zM134.896 27.044h2.517c2.026 0 3.428 1.385 3.428 3.192v.019c0 1.805-1.402 3.208-3.428 3.208h-2.517v-6.419zm2.517 5.146c1.161 0 1.945-.78 1.945-1.917v-.018c0-1.138-.784-1.935-1.945-1.935h-1.098v3.87h1.098zM144.962 27.044h2.517c2.028 0 3.428 1.385 3.428 3.192v.019c0 1.805-1.4 3.208-3.428 3.208h-2.517v-6.419zm2.517 5.146c1.161 0 1.945-.78 1.945-1.917v-.018c0-1.138-.784-1.935-1.945-1.935h-1.098v3.87h1.098zM152.254 27.044h4.866v1.257h-3.456v1.303h3.042v1.256h-3.042v1.348h3.503v1.255h-4.913zM161.287 27.044h1.53l1.696 2.715 1.697-2.715h1.529v6.42h-1.41v-4.191l-1.816 2.743h-.037L162.68 29.3v4.162h-1.393zM169.432 27.044h4.867v1.257h-3.457v1.303h3.04v1.256h-3.04v1.348h3.503v1.255h-4.913v-6.419zm2.7-2.127l1.208.523-1.18 1.1h-1.07l1.042-1.623zM177.507 30.2l-2.157-3.155h1.658l1.356 2.082 1.363-2.082h1.614l-2.157 3.136 2.25 3.284h-1.66l-1.447-2.201-1.456 2.201h-1.614zM182.521 33.463h1.42v-6.42h-1.42zM185.314 30.273v-.018c0-1.826 1.382-3.32 3.365-3.32 1.216 0 1.945.404 2.544.99l-.904 1.037c-.499-.45-1.005-.724-1.65-.724-1.088 0-1.87.897-1.87 1.998v.02c0 1.1.764 2.015 1.87 2.015.737 0 1.19-.293 1.696-.751l.903.908c-.663.707-1.4 1.146-2.644 1.146-1.9 0-3.31-1.458-3.31-3.301M191.938 30.273v-.018c0-1.826 1.447-3.32 3.438-3.32 1.993 0 3.419 1.476 3.419 3.301v.02c0 1.823-1.445 3.318-3.437 3.318-1.99 0-3.42-1.476-3.42-3.301m5.375 0v-.018c0-1.101-.812-2.017-1.955-2.017s-1.935.897-1.935 1.998v.02c0 1.1.81 2.015 1.953 2.015 1.144 0 1.937-.897 1.937-1.998"/>
        <path fill="#00B140" d="M72.275 43.05c-1.818 0-3.297 1.453-3.297 3.238 0 1.783 1.48 3.236 3.297 3.236 1.817 0 3.295-1.453 3.295-3.236 0-1.785-1.478-3.238-3.295-3.238m0 4.977c-.957 0-1.734-.78-1.734-1.74s.777-1.741 1.734-1.741a1.74 1.74 0 0 1 1.733 1.742c0 .96-.779 1.739-1.733 1.739"/>
    </g>
</svg>
