<?xml version="1.0" encoding="UTF-8"?>
<svg width="20px" height="14px" viewBox="0 0 20 14" version="1.1" xmlns="http://www.w3.org/2000/svg" xmlns:xlink="http://www.w3.org/1999/xlink">
    <!-- Generator: Sketch 56 (81588) - https://sketch.com -->
    <title>Group 6</title>
    <desc>Created with Sketch.</desc>
    <defs>
        <polygon id="path-1" points="7.31707317e-05 0.22097561 19.9297561 0.22097561 19.9297561 13.4146341 7.31707317e-05 13.4146341"></polygon>
    </defs>
    <g id="Symbols" stroke="none" stroke-width="1" fill="none" fill-rule="evenodd">
        <g id="icons/see/green" transform="translate(-2.000000, -5.000000)">
            <g id="Group-6" transform="translate(2.000000, 5.000000)">
                <path d="M9.9647561,7.80009756 C9.42621951,7.80009756 8.98817073,7.36204878 8.98817073,6.8235122 C8.98817073,6.28497561 9.42621951,5.84692683 9.9647561,5.84692683 C10.5032927,5.84692683 10.9413415,6.28497561 10.9413415,6.8235122 C10.9413415,7.36204878 10.5032927,7.80009756 9.9647561,7.80009756 M9.9647561,3.65180488 C8.21597561,3.65180488 6.79304878,5.07473171 6.79304878,6.8235122 C6.79304878,8.57229268 8.21597561,9.99521951 9.9647561,9.99521951 C11.7135366,9.99521951 13.1364634,8.57229268 13.1364634,6.8235122 C13.1364634,5.07473171 11.7135366,3.65180488 9.9647561,3.65180488" id="Fill-1" fill="#00B140"></path>
                <g id="Group-5" transform="translate(0.000000, 0.022854)">
                    <mask id="mask-2" fill="white">
                        <use xlink:href="#path-1"></use>
                    </mask>
                    <g id="Clip-4"></g>
                    <path d="M9.99665854,11.2195122 C7.04397561,11.2195122 4.16226829,9.50243902 2.50592683,6.8002439 C4.16568293,4.08146341 6.98665854,2.41609756 9.99665854,2.41609756 C12.8564146,2.41609756 15.7037317,4.11902439 17.4022683,6.80097561 C15.6944634,9.50365854 12.8469024,11.2195122 9.99665854,11.2195122 L9.99665854,11.2195122 Z M19.637878,6.27097561 C17.5812927,2.53926829 13.8869024,0.22097561 9.99665854,0.22097561 C5.98714634,0.22097561 2.26129268,2.54487805 0.273731707,6.28560976 L7.31707317e-05,6.80073171 L0.273731707,7.31560976 C2.2727561,11.0778049 5.99836585,13.4146341 9.99665854,13.4146341 C13.8751951,13.4146341 17.5695854,11.0831707 19.637878,7.3304878 L19.9298293,6.80073171 L19.637878,6.27097561 Z" id="Fill-3" fill="#00B140" mask="url(#mask-2)"></path>
                </g>
            </g>
        </g>
    </g>
</svg>